<svg xmlns="http://www.w3.org/2000/svg" width="163" height="162.998" viewBox="0 0 163 162.998">
  <g id="Grupo_159" data-name="Grupo 159" transform="translate(-111.991 -45.197)">
    <g id="Grupo_157" data-name="Grupo 157" transform="translate(111.991 45.197)">
      <path id="Trazado_372" data-name="Trazado 372" d="M193.49,45.9,112.7,126.7l80.792,80.792L274.284,126.7ZM117.776,126.7,193.49,50.982,269.2,126.7,193.49,202.41Z" transform="translate(-111.991 -45.197)" fill="#ffd300"/>
      <path id="Trazado_373" data-name="Trazado 373" d="M193.49,208.2l-81.5-81.5,81.5-81.5,81.5,81.5Zm-78.978-81.5,78.978,78.978L272.468,126.7,193.49,47.719Zm78.978,76.456L117.034,126.7,193.49,50.24,269.946,126.7ZM119.556,126.7l73.934,73.934L267.425,126.7,193.49,52.762Z" transform="translate(-111.991 -45.197)" fill="#ffd300"/>
    </g>
    <g id="Grupo_158" data-name="Grupo 158" transform="translate(141.991 90.197)">
      <path id="Trazado_374" data-name="Trazado 374" d="M215.819,94.959a9.958,9.958,0,0,0-9.806,8.316H185.079a9.92,9.92,0,0,0-2.812-5.435l7.921-10.194a9.96,9.96,0,1,0-2.641-1.933l-7.958,10.243a9.917,9.917,0,0,0-14.121,7.319H144.534a9.952,9.952,0,1,0,0,3.27h20.933a9.937,9.937,0,0,0,14.511,7.131l7.3,9.4a9.913,9.913,0,1,0,2.553-2.044l-7.272-9.36a9.911,9.911,0,0,0,2.52-5.123h20.933a9.947,9.947,0,1,0,9.806-11.587ZM194.663,72.086a6.682,6.682,0,1,1-6.683,6.683A6.69,6.69,0,0,1,194.663,72.086Zm-59.936,39.506a6.681,6.681,0,1,1,6.683-6.681A6.689,6.689,0,0,1,134.728,111.592Zm33.864-6.681a6.682,6.682,0,1,1,6.681,6.681A6.689,6.689,0,0,1,168.592,104.911Zm32.754,24.81a6.683,6.683,0,1,1-6.683-6.681A6.69,6.69,0,0,1,201.346,129.721Zm14.473-18.129a6.681,6.681,0,1,1,6.681-6.681A6.689,6.689,0,0,1,215.819,111.592Z" transform="translate(-123.958 -67.998)" fill="#ffd300"/>
      <path id="Trazado_375" data-name="Trazado 375" d="M194.981,140.81a10.752,10.752,0,0,1-8.437-17.441l-6.483-8.344a10.756,10.756,0,0,1-14.945-7.344H145.523a10.769,10.769,0,1,1,0-4.906h19.591a10.723,10.723,0,0,1,10.477-8.316,10.613,10.613,0,0,1,4.063.806l7.142-9.191a10.826,10.826,0,1,1,3.954,2.906l-7.09,9.126a10.657,10.657,0,0,1,2.407,4.67h19.591a10.769,10.769,0,1,1,0,4.906H186.067a10.706,10.706,0,0,1-2.132,4.333l6.443,8.294a10.768,10.768,0,1,1,4.6,20.5Zm-14.465-27.863,8.146,10.483-.458.509a9.081,9.081,0,1,0,2.343-1.879l-.613.342-8.13-10.462.474-.51a9.073,9.073,0,0,0,2.312-4.7l.113-.684h22.318l.114.684a9.134,9.134,0,1,0,0-3l-.114.684H184.7l-.113-.684a9.076,9.076,0,0,0-2.58-4.989l-.515-.51,8.778-11.3.6.3a9.008,9.008,0,0,0,4.106.988,9.157,9.157,0,1,0-6.531-2.76l.5.509-8.8,11.328-.6-.288a9.1,9.1,0,0,0-12.96,6.717l-.113.684H144.16l-.114-.684a9.134,9.134,0,1,0,0,3l.114-.684h22.318l.113.684a9.12,9.12,0,0,0,13.317,6.546Zm14.465,24.593a7.5,7.5,0,1,1,7.5-7.5A7.51,7.51,0,0,1,194.981,137.539Zm0-13.364a5.865,5.865,0,1,0,5.865,5.864A5.871,5.871,0,0,0,194.981,124.175Zm21.156-11.448a7.5,7.5,0,1,1,7.5-7.5A7.508,7.508,0,0,1,216.137,112.727Zm0-13.363A5.864,5.864,0,1,0,222,105.228,5.87,5.87,0,0,0,216.137,99.365Zm-40.546,13.363a7.5,7.5,0,1,1,7.5-7.5A7.507,7.507,0,0,1,175.591,112.727Zm0-13.363a5.864,5.864,0,1,0,5.865,5.864A5.87,5.87,0,0,0,175.591,99.365Zm-40.546,13.363a7.5,7.5,0,1,1,7.5-7.5A7.507,7.507,0,0,1,135.045,112.727Zm0-13.363a5.864,5.864,0,1,0,5.865,5.864A5.87,5.87,0,0,0,135.045,99.365Zm59.936-12.779a7.5,7.5,0,1,1,7.5-7.5A7.508,7.508,0,0,1,194.981,86.586Zm0-13.364a5.865,5.865,0,1,0,5.865,5.865A5.872,5.872,0,0,0,194.981,73.222Z" transform="translate(-124.276 -68.316)" fill="#ffd300"/>
    </g>
  </g>
</svg>
