<svg xmlns="http://www.w3.org/2000/svg" width="164.414" height="164.414" viewBox="0 0 164.414 164.414">
  <g id="Grupo_129" data-name="Grupo 129" transform="translate(-144.323 40.697)">
    <path id="Trazado_355" data-name="Trazado 355" d="M145.03,41.51l81.5,81.5,81.5-81.5-81.5-81.5ZM184.506,7.158v68.7L150.152,41.51Zm7.468,76.173h69.112L226.53,117.888ZM302.908,41.51l-38.2,38.2H188.353l-.226-.225V3.536l38.4-38.4Z" transform="translate(0)" fill="#ffd300" stroke="#ffd300" stroke-miterlimit="10" stroke-width="1"/>
    <path id="Trazado_356" data-name="Trazado 356" d="M223.964,25a3.619,3.619,0,0,0-1.63,1.8l-24.453,3.351a3.744,3.744,0,0,0-.277-.337,3.6,3.6,0,0,0-6.119,3.068L179.721,42.2a3.627,3.627,0,1,0,2.241,2.846l11.763-9.323a3.614,3.614,0,0,0,4.67-1.989l24.445-3.351a3.6,3.6,0,1,0,4.746-5.273l1.023-31.671a3.6,3.6,0,0,0,1.944-3.186,3.613,3.613,0,0,0-3.614-3.614,3.616,3.616,0,0,0-3.615,3.614,3.611,3.611,0,0,0,1.665,3.036Z" transform="translate(24.139 21.603)" fill="#ffd300" stroke="#ffd300" stroke-miterlimit="10" stroke-width="1"/>
  </g>
</svg>
