<svg xmlns="http://www.w3.org/2000/svg" width="163" height="162.998" viewBox="0 0 163 162.998">
  <g id="Grupo_140" data-name="Grupo 140" transform="translate(-172.257 -99.027)">
    <g id="Grupo_136" data-name="Grupo 136" transform="translate(172.257 99.027)">
      <path id="Trazado_358" data-name="Trazado 358" d="M253.756,262.025l-81.5-81.5,81.5-81.5,81.5,81.5Zm-73.933-81.5,73.933,73.934,73.934-73.934-73.934-73.935Z" transform="translate(-172.257 -99.027)" fill="#ffd300"/>
    </g>
    <g id="Grupo_139" data-name="Grupo 139" transform="translate(219.003 145.773)">
      <g id="Grupo_138" data-name="Grupo 138">
        <g id="Grupo_137" data-name="Grupo 137">
          <path id="Trazado_359" data-name="Trazado 359" d="M231.279,192.8a34.754,34.754,0,1,0-34.754-34.753A34.828,34.828,0,0,0,231.279,192.8Zm10.31-5.856a32.429,32.429,0,0,0,4.611-8.535h8A30.78,30.78,0,0,1,241.59,186.945Zm15.676-12.606h-9.748a61.051,61.051,0,0,0,2.058-14.254h12.316a30.483,30.483,0,0,1-4.626,14.254Zm0-32.582a30.489,30.489,0,0,1,4.626,14.255H249.575a61.053,61.053,0,0,0-2.058-14.255Zm-3.06-4.073h-8a32.452,32.452,0,0,0-4.613-8.533A30.8,30.8,0,0,1,254.206,137.684Zm-20.89-9.968c4,1.354,6.862,6.106,8.5,9.968h-8.5Zm0,14.041h9.967a55.8,55.8,0,0,1,2.218,14.255H233.316Zm0,18.327H245.5a55.791,55.791,0,0,1-2.218,14.255h-9.967Zm0,18.327h8.5c-1.642,3.87-4.511,8.618-8.5,9.97Zm-24.964,0h8a32.454,32.454,0,0,0,4.613,8.533A30.77,30.77,0,0,1,208.351,178.411Zm20.892,9.968c-3.993-1.352-6.86-6.1-8.5-9.968h8.5Zm0-14.041h-9.968a55.791,55.791,0,0,1-2.218-14.254h12.186Zm0-18.326H217.057a55.8,55.8,0,0,1,2.218-14.255h9.968Zm0-28.3v9.968h-8.5C222.383,133.815,225.249,129.069,229.243,127.716Zm-8.274,1.435a32.4,32.4,0,0,0-4.613,8.533h-8A30.8,30.8,0,0,1,220.969,129.15Zm-15.677,12.6h9.748a61,61,0,0,0-2.056,14.257H200.668A30.482,30.482,0,0,1,205.292,141.755Zm-4.624,18.33h12.316a60.967,60.967,0,0,0,2.056,14.254h-9.748A30.464,30.464,0,0,1,200.668,160.085Z" transform="translate(-196.525 -123.294)" fill="#ffd300"/>
        </g>
      </g>
    </g>
  </g>
</svg>
