<svg xmlns="http://www.w3.org/2000/svg" width="163" height="163.002" viewBox="0 0 163 163.002">
  <g id="Grupo_156" data-name="Grupo 156" transform="translate(-64.186 7.679)">
    <g id="Grupo_145" data-name="Grupo 145" transform="translate(64.186 -7.679)">
      <g id="Grupo_144" data-name="Grupo 144">
        <path id="Trazado_360" data-name="Trazado 360" d="M64.893,73.823l80.793,80.793,80.793-80.793L145.686-6.972Zm39.131-34.055v68.109L69.971,73.823Zm7.405,75.514h68.513l-34.256,34.255ZM221.4,73.823,183.532,111.69H107.838l-.223-.223V36.178l38.07-38.07Z" transform="translate(-64.186 7.679)" fill="#ffd300"/>
        <path id="Trazado_361" data-name="Trazado 361" d="M145.686,155.323l-81.5-81.5,81.5-81.5,81.5,81.5Zm-78.978-81.5L145.686,152.8l78.978-78.978L145.686-5.157Zm78.978,76.455-36.174-36.172h72.346Zm-31.869-34.389,31.869,31.867,31.867-31.867Zm69.825-3.567H107.729l-.744-.744V36.065l38.7-38.7,76.457,76.457Zm-74.873-1.783H182.9l36.718-36.716L145.686-.112,108.768,36.8ZM105.2,109.8,69.229,73.823,105.2,37.848ZM71.751,73.823l31.668,31.668V42.153Z" transform="translate(-64.186 7.679)" fill="#ffd300"/>
      </g>
    </g>
    <g id="Grupo_146" data-name="Grupo 146" transform="translate(124.713 87.361)">
      <circle id="Elipse_16" data-name="Elipse 16" cx="1.736" cy="1.736" r="1.736" transform="translate(0.501 0.5)" fill="#ffd300"/>
      <path id="Trazado_362" data-name="Trazado 362" d="M99.614,48.911a2.236,2.236,0,1,1,2.237-2.236A2.239,2.239,0,0,1,99.614,48.911Zm0-3.473a1.236,1.236,0,1,0,1.237,1.237A1.239,1.239,0,0,0,99.614,45.438Z" transform="translate(-97.377 -44.438)" fill="#ffd300"/>
    </g>
    <g id="Grupo_147" data-name="Grupo 147" transform="translate(127.881 76.758)">
      <circle id="Elipse_17" data-name="Elipse 17" cx="1.736" cy="1.736" r="1.736" transform="translate(0.5 0.501)" fill="#ffd300"/>
      <path id="Trazado_363" data-name="Trazado 363" d="M101.351,43.1a2.237,2.237,0,1,1,2.236-2.237A2.24,2.24,0,0,1,101.351,43.1Zm0-3.474a1.237,1.237,0,1,0,1.236,1.237A1.239,1.239,0,0,0,101.351,39.623Z" transform="translate(-99.114 -38.623)" fill="#ffd300"/>
    </g>
    <g id="Grupo_148" data-name="Grupo 148" transform="translate(134.214 87.361)">
      <circle id="Elipse_18" data-name="Elipse 18" cx="1.736" cy="1.736" r="1.736" transform="translate(0.5 0.5)" fill="#ffd300"/>
      <path id="Trazado_364" data-name="Trazado 364" d="M104.823,48.911a2.236,2.236,0,1,1,2.237-2.236A2.238,2.238,0,0,1,104.823,48.911Zm0-3.473a1.236,1.236,0,1,0,1.237,1.237A1.238,1.238,0,0,0,104.823,45.438Z" transform="translate(-102.587 -44.438)" fill="#ffd300"/>
    </g>
    <g id="Grupo_149" data-name="Grupo 149" transform="translate(138.763 73.312)">
      <circle id="Elipse_19" data-name="Elipse 19" cx="1.736" cy="1.736" r="1.736" transform="translate(0.5 0.5)" fill="#ffd300"/>
      <path id="Trazado_365" data-name="Trazado 365" d="M107.318,41.207a2.236,2.236,0,1,1,2.236-2.236A2.239,2.239,0,0,1,107.318,41.207Zm0-3.473a1.236,1.236,0,1,0,1.236,1.237A1.238,1.238,0,0,0,107.318,37.734Z" transform="translate(-105.082 -36.734)" fill="#ffd300"/>
    </g>
    <g id="Grupo_150" data-name="Grupo 150" transform="translate(141.93 62.71)">
      <circle id="Elipse_20" data-name="Elipse 20" cx="1.736" cy="1.736" r="1.736" transform="translate(0.5 0.5)" fill="#ffd300"/>
      <path id="Trazado_366" data-name="Trazado 366" d="M109.054,35.392a2.236,2.236,0,1,1,2.237-2.236A2.238,2.238,0,0,1,109.054,35.392Zm0-3.472a1.236,1.236,0,1,0,1.237,1.236A1.237,1.237,0,0,0,109.054,31.92Z" transform="translate(-106.818 -30.92)" fill="#ffd300"/>
    </g>
    <g id="Grupo_151" data-name="Grupo 151" transform="translate(148.263 73.312)">
      <circle id="Elipse_21" data-name="Elipse 21" cx="1.736" cy="1.736" r="1.736" transform="translate(0.5 0.5)" fill="#ffd300"/>
      <path id="Trazado_367" data-name="Trazado 367" d="M112.527,41.207a2.236,2.236,0,1,1,2.237-2.236A2.239,2.239,0,0,1,112.527,41.207Zm0-3.473a1.236,1.236,0,1,0,1.237,1.237A1.238,1.238,0,0,0,112.527,37.734Z" transform="translate(-110.291 -36.734)" fill="#ffd300"/>
    </g>
    <g id="Grupo_152" data-name="Grupo 152" transform="translate(151.981 60.095)">
      <circle id="Elipse_22" data-name="Elipse 22" cx="1.736" cy="1.736" r="1.736" transform="translate(0.5 0.5)" fill="#ffd300"/>
      <path id="Trazado_368" data-name="Trazado 368" d="M114.566,33.959a2.236,2.236,0,1,1,2.237-2.236A2.239,2.239,0,0,1,114.566,33.959Zm0-3.473a1.236,1.236,0,1,0,1.237,1.237A1.238,1.238,0,0,0,114.566,30.486Z" transform="translate(-112.33 -29.486)" fill="#ffd300"/>
    </g>
    <g id="Grupo_153" data-name="Grupo 153" transform="translate(155.147 49.491)">
      <circle id="Elipse_23" data-name="Elipse 23" cx="1.736" cy="1.736" r="1.736" transform="translate(0.5 0.5)" fill="#ffd300"/>
      <path id="Trazado_369" data-name="Trazado 369" d="M116.3,28.144a2.236,2.236,0,1,1,2.236-2.236A2.239,2.239,0,0,1,116.3,28.144Zm0-3.473a1.236,1.236,0,1,0,1.236,1.237A1.239,1.239,0,0,0,116.3,24.671Z" transform="translate(-114.066 -23.671)" fill="#ffd300"/>
    </g>
    <g id="Grupo_154" data-name="Grupo 154" transform="translate(167.814 49.491)">
      <circle id="Elipse_24" data-name="Elipse 24" cx="1.736" cy="1.736" r="1.736" transform="translate(0.5 0.5)" fill="#ffd300"/>
      <path id="Trazado_370" data-name="Trazado 370" d="M123.249,28.144a2.236,2.236,0,1,1,2.236-2.236A2.239,2.239,0,0,1,123.249,28.144Zm0-3.473a1.236,1.236,0,1,0,1.236,1.237A1.239,1.239,0,0,0,123.249,24.671Z" transform="translate(-121.012 -23.671)" fill="#ffd300"/>
    </g>
    <g id="Grupo_155" data-name="Grupo 155" transform="translate(161.48 60.095)">
      <circle id="Elipse_25" data-name="Elipse 25" cx="1.736" cy="1.736" r="1.736" transform="translate(0.5 0.5)" fill="#ffd300"/>
      <path id="Trazado_371" data-name="Trazado 371" d="M119.775,33.959a2.236,2.236,0,1,1,2.237-2.236A2.239,2.239,0,0,1,119.775,33.959Zm0-3.473a1.236,1.236,0,1,0,1.237,1.237A1.238,1.238,0,0,0,119.775,30.486Z" transform="translate(-117.539 -29.486)" fill="#ffd300"/>
    </g>
  </g>
</svg>
