<svg id="Capa_1" data-name="Capa 1" xmlns="http://www.w3.org/2000/svg" viewBox="0 0 306.7 55.54"><defs><style>.cls-1{fill:#fff;}</style></defs><title>bancoldex-white</title><g id="Grupo_102" data-name="Grupo 102"><g id="Grupo_101" data-name="Grupo 101"><g id="Grupo_100" data-name="Grupo 100"><g id="Grupo_98" data-name="Grupo 98"><g id="Grupo_97" data-name="Grupo 97"><g id="Grupo_96" data-name="Grupo 96"><path id="Trazado_239" data-name="Trazado 239" class="cls-1" d="M.38,13.71H10c4.55,0,8.88,1.33,8.88,6.13,0,3.44-1.7,5.14-4.36,5.8v.08c2.84.41,5.31,2.22,5.31,5.84,0,5-4.25,6.77-9.94,6.77H.38ZM9,23.5c2.07,0,3-.73,3-2.33S11,19,9.14,19H7.33V23.5Zm.52,9.58c1.88,0,3.18-.63,3.18-2.4s-1.07-2.4-3-2.4H7.33v4.8Z" transform="translate(0 0)"/><path id="Trazado_240" data-name="Trazado 240" class="cls-1" d="M34.59,13.71h6.77l9.75,24.62H43.42l-1.18-3.48H33.49l-1.15,3.48H25.21Zm5.73,15.63L39,25.46a35.08,35.08,0,0,1-1.15-4.28h-.07a42.2,42.2,0,0,1-1.15,4.28l-1.29,3.88Z" transform="translate(0 0)"/><path id="Trazado_241" data-name="Trazado 241" class="cls-1" d="M57.9,13.71H65l6.73,9.64a46.76,46.76,0,0,1,2.85,4.55h.07c0-.18-.15-2.33-.15-4.28V13.71h6.36V38.33H74.46L66.92,27.72a43.9,43.9,0,0,1-2.7-4.1h-.07c0,.22.1,1.88.1,3.73v11H57.9Z" transform="translate(0 0)"/><path id="Trazado_242" data-name="Trazado 242" class="cls-1" d="M89.13,26c0-6.73,4.32-12.75,13.23-12.75a13.57,13.57,0,0,1,7.77,2l-3,5.1a8.71,8.71,0,0,0-4.84-1.33c-3.62,0-5.66,2.77-5.66,6.72,0,4.14,1.93,7.14,5.73,7.14a8.33,8.33,0,0,0,5.22-1.74l2.81,4.88a13.49,13.49,0,0,1-8.14,2.7C93.26,38.77,89.13,32.74,89.13,26Z" transform="translate(0 0)"/><path id="Trazado_243" data-name="Trazado 243" class="cls-1" d="M115.77,26.05c0-6.61,4.43-12.78,13.19-12.78s13.13,6.06,13.13,12.56-4.18,12.94-13,12.94S115.77,32.6,115.77,26.05Zm18.89,0c0-3.84-1.37-7.17-5.55-7.17s-5.88,3.15-5.88,7,1.59,7.32,5.73,7.32S134.66,29.86,134.66,26.05Z" transform="translate(0 0)"/><path id="Trazado_244" data-name="Trazado 244" class="cls-1" d="M150.22,13.71h7.1v19h8.76v5.59H150.22Z" transform="translate(0 0)"/><path id="Trazado_245" data-name="Trazado 245" class="cls-1" d="M172.84,13.71h8.8c9.64,0,14.15,4.84,14.15,11.94s-4.62,12.68-14.38,12.68h-8.57Zm9.13,19c4.32,0,6.36-2.36,6.36-6.87s-2-6.58-6.55-6.58h-1.89V32.74Z" transform="translate(0 0)"/><path id="Trazado_246" data-name="Trazado 246" class="cls-1" d="M203.93,13.71h15.45v5.73h-8.5v3.7h7.5v5.32h-7.5V32.6h8.76v5.73H203.92Z" transform="translate(0 0)"/><path id="Trazado_247" data-name="Trazado 247" class="cls-1" d="M234.4,25.76l-7.46-12h8L238.54,20l3.4-6.24h7l-7,11.94,7.84,12.68h-7.94l-4.11-7-4.06,7h-7Z" transform="translate(0 0)"/></g><path id="Trazado_248" data-name="Trazado 248" class="cls-1" d="M306.23,20.23c-1.22-3.11-4.79-5.34-10.62-6.63l0,0h-.06c1.69-2.88,2-5.39.9-7.47C294.35,2.05,287.14,0,275,0c-4.8,0-8.58.36-8.62.36l-.83.08V55.27l1.19-.37c1-.32,24.77-8,36.22-23.33C306.34,27.1,307.43,23.29,306.23,20.23Zm-38.08-5.72.83-.06,1.3-.08.65,0,1.59-.08h.33c2-.09,3.85-.14,5.66-.16h3.77l1.35,0h.31l1.3,0h.29l1.3.08.23,0,1.32.1h.15c1.41.12,2.73.28,4,.47L267.42,51.1V14.56Zm-.73-12.4c1.36-.1,4.23-.28,7.62-.28,11,0,18.09,1.81,19.82,5.12.84,1.61.43,3.71-1.22,6.26l-.32-.05-.77-.12-.67-.1-.7-.09-.82-.1-.55-.06-1.05-.1h-.19c-2.62-.23-5.52-.34-8.69-.35h-2.05l-1.3,0-2.17.06-1,0-2.44.11-.33,0-2.83.18-.37,0Zm34.12,28.36c-8.9,11.91-26.09,19.26-32.66,21.73L285,28.94l9.5-13.71c5.63,1.12,9,3,10,5.66,1,2.43-.06,5.65-3,9.58Z" transform="translate(0 0)"/></g></g><g id="Grupo_99" data-name="Grupo 99"><path id="Trazado_249" data-name="Trazado 249" class="cls-1" d="M1.8,52.62H1.23v2.79H0V48.75H2c1.39,0,2.06.45,2.06,1.9C4,52.42,3.13,52.62,1.8,52.62Zm-.13-3H1.23v2.07h.41c.79,0,1.16-.2,1.16-1.06s-.38-1-1.12-1Z" transform="translate(0 0)"/><path id="Trazado_250" data-name="Trazado 250" class="cls-1" d="M10.51,55.41a8.93,8.93,0,0,1-.09-1c0-.26,0-.56,0-.85-.06-.76-.2-1-1-1H8.91v2.85H7.67V48.75H9.76c1.16,0,2,.24,2,1.72,0,.84-.26,1.44-1.13,1.63.87.06,1,.52,1,1.65l0,.78a5.16,5.16,0,0,0,.11.88Zm-1-5.76H8.91v2h.48c.81,0,1.11-.23,1.11-1.07,0-.68-.35-.93-1-.93Z" transform="translate(0 0)"/><path id="Trazado_251" data-name="Trazado 251" class="cls-1" d="M17.6,55.54c-2.09,0-2.18-1.43-2.18-3.36s.06-3.56,2.22-3.56,2.23,1.44,2.23,3.55C19.87,54.09,19.81,55.54,17.6,55.54Zm0-6c-1,0-1,1.1-1,2.52,0,1.67,0,2.6,1,2.6s1-1,1-2.64c0-1.44,0-2.47-1-2.47Z" transform="translate(0 0)"/><path id="Trazado_252" data-name="Trazado 252" class="cls-1" d="M28.85,55.41V49.57l-1.38,5.84H26.18l-1.37-5.84v5.84h-1.1V48.75h2l1.15,5.34L28,48.75h2v6.66Z" transform="translate(0 0)"/><path id="Trazado_253" data-name="Trazado 253" class="cls-1" d="M36.22,55.54c-1.69,0-2.16-.9-2.16-2.39v-4.4h1.22V53c0,.71,0,1.62,1,1.62s1-.85,1-1.57V48.75h1.2v4.49C38.41,54.76,37.84,55.54,36.22,55.54Z" transform="translate(0 0)"/><path id="Trazado_254" data-name="Trazado 254" class="cls-1" d="M42.43,55.41V48.75h3.48v.92H43.66v1.82h2.09v.9H43.66v2.1H46v.92Z" transform="translate(0 0)"/><path id="Trazado_255" data-name="Trazado 255" class="cls-1" d="M52.21,55.41H50.77L49.1,48.75h1.3l1.14,5.56,1.22-5.56H54Z" transform="translate(0 0)"/><path id="Trazado_256" data-name="Trazado 256" class="cls-1" d="M57.47,55.41V48.75H61v.92H58.69v1.82h2.1v.9h-2.1v2.1H61v.92Z" transform="translate(0 0)"/><path id="Trazado_257" data-name="Trazado 257" class="cls-1" d="M69.66,55.41V48.75h3.48v.92H70.88v1.82H73v.9h-2.1v2.1h2.34v.92Z" transform="translate(0 0)"/><path id="Trazado_258" data-name="Trazado 258" class="cls-1" d="M76.9,55.41V48.75h1.23v5.74h2.08v.92Z" transform="translate(0 0)"/><path id="Trazado_259" data-name="Trazado 259" class="cls-1" d="M90.63,55.41H88.72V48.75h1.89c2.23,0,2.44,1.12,2.44,3.16S93,55.41,90.63,55.41Zm-.14-5.76H90v4.86h.56c1.2,0,1.26-1,1.26-2.35,0-1.58,0-2.51-1.28-2.51Z" transform="translate(0 0)"/><path id="Trazado_260" data-name="Trazado 260" class="cls-1" d="M96.88,55.41V48.75h3.49v.92H98.11v1.82h2.09v.9H98.11v2.1h2.33v.92Z" transform="translate(0 0)"/><path id="Trazado_261" data-name="Trazado 261" class="cls-1" d="M105.81,55.54c-1.52,0-2-.57-2-2.06V53.4H105v.09c0,.58.07,1.15.81,1.15a.75.75,0,0,0,.83-.67.48.48,0,0,0,0-.17c0-.66-.59-.91-1.24-1.32-.85-.53-1.56-.92-1.56-2.07s.87-1.79,2.06-1.79,1.9.44,1.9,1.71v.25h-1.23v-.16c0-.49-.11-.9-.72-.9a.72.72,0,0,0-.77.66v.13c0,.7.76,1,1.39,1.39.85.54,1.42.86,1.42,2C107.9,55.07,107,55.54,105.81,55.54Z" transform="translate(0 0)"/><path id="Trazado_262" data-name="Trazado 262" class="cls-1" d="M114.94,55.41l-.4-1.53h-2l-.39,1.53h-1.23l1.87-6.66h1.6l1.82,6.66Zm-1.4-5.67L112.78,53h1.51Z" transform="translate(0 0)"/><path id="Trazado_263" data-name="Trazado 263" class="cls-1" d="M122.44,55.41a7.17,7.17,0,0,1-.08-1c0-.26,0-.56,0-.85,0-.76-.19-1-1-1h-.49v2.85h-1.24V48.75h2.09c1.16,0,2,.24,2,1.72,0,.84-.26,1.44-1.13,1.63.86.06,1,.52,1,1.65l0,.78a5.16,5.16,0,0,0,.11.88Zm-1-5.76h-.59v2h.48c.81,0,1.1-.23,1.1-1.07,0-.68-.34-.93-1-.93Z" transform="translate(0 0)"/><path id="Trazado_264" data-name="Trazado 264" class="cls-1" d="M130.41,55.41a8.93,8.93,0,0,1-.08-1c0-.26,0-.56,0-.85-.05-.76-.19-1-1-1h-.48v2.85h-1.24V48.75h2.1c1.15,0,2,.24,2,1.72,0,.84-.26,1.44-1.14,1.63.87.06,1,.52,1,1.65l0,.78a5.16,5.16,0,0,0,.11.88Zm-1-5.76h-.59v2h.48c.81,0,1.11-.23,1.11-1.07,0-.68-.34-.93-1-.93Z" transform="translate(0 0)"/><path id="Trazado_265" data-name="Trazado 265" class="cls-1" d="M137.52,55.54c-2.09,0-2.19-1.43-2.19-3.36s.07-3.56,2.23-3.56,2.23,1.44,2.23,3.55C139.79,54.09,139.72,55.54,137.52,55.54Zm0-6c-1,0-1,1.1-1,2.52,0,1.67,0,2.6,1,2.6s1-1,1-2.64c0-1.44,0-2.47-1-2.47Z" transform="translate(0 0)"/><path id="Trazado_266" data-name="Trazado 266" class="cls-1" d="M143.62,55.41V48.75h1.23v5.74h2.08v.92Z" transform="translate(0 0)"/><path id="Trazado_267" data-name="Trazado 267" class="cls-1" d="M150.5,55.41V48.75h1.24v5.74h2.07v.92Z" transform="translate(0 0)"/><path id="Trazado_268" data-name="Trazado 268" class="cls-1" d="M159.22,55.54c-2.09,0-2.19-1.43-2.19-3.36s.07-3.56,2.23-3.56,2.22,1.44,2.22,3.55C161.49,54.09,161.42,55.54,159.22,55.54Zm0-6c-1,0-1,1.1-1,2.52,0,1.67,0,2.6,1,2.6s1-1,1-2.64c0-1.44,0-2.47-1-2.47Z" transform="translate(0 0)"/><path id="Trazado_269" data-name="Trazado 269" class="cls-1" d="M170.26,55.41V48.75h3.48v.92h-2.25v1.82h2.09v.9h-2.09v2.1h2.33v.92Z" transform="translate(0 0)"/><path id="Trazado_270" data-name="Trazado 270" class="cls-1" d="M182.65,55.41V49.57l-1.38,5.84H180l-1.37-5.84v5.84h-1.1V48.75h2l1.15,5.34,1.14-5.34h2v6.66Z" transform="translate(0 0)"/><path id="Trazado_271" data-name="Trazado 271" class="cls-1" d="M189.73,52.62h-.57v2.79h-1.24V48.75h2c1.39,0,2.06.45,2.06,1.9C192,52.42,191.05,52.62,189.73,52.62Zm-.13-3h-.44v2.07h.4c.79,0,1.17-.2,1.17-1.06S190.34,49.65,189.6,49.65Z" transform="translate(0 0)"/><path id="Trazado_272" data-name="Trazado 272" class="cls-1" d="M198.43,55.41a7.18,7.18,0,0,1-.09-1c0-.26,0-.56,0-.85-.06-.76-.2-1-1-1h-.49v2.85H195.6V48.75h2.09c1.16,0,2,.24,2,1.72,0,.84-.26,1.44-1.14,1.63.87.06,1,.52,1,1.65,0,.26,0,.52,0,.78a5.18,5.18,0,0,0,.12.88Zm-1-5.76h-.59v2h.48c.81,0,1.1-.23,1.1-1.07C198.41,49.9,198.08,49.65,197.42,49.65Z" transform="translate(0 0)"/><path id="Trazado_273" data-name="Trazado 273" class="cls-1" d="M203.58,55.41V48.75h3.48v.92H204.8v1.82h2.09v.9H204.8v2.1h2.34v.92Z" transform="translate(0 0)"/><path id="Trazado_274" data-name="Trazado 274" class="cls-1" d="M212.51,55.54c-1.52,0-2.06-.57-2.06-2.06V53.4h1.26v.09c0,.58.07,1.15.81,1.15a.77.77,0,0,0,.83-.67,1,1,0,0,0,0-.17c0-.66-.59-.91-1.25-1.32-.84-.53-1.55-.92-1.55-2.07s.86-1.79,2.06-1.79,1.9.44,1.9,1.71v.25h-1.23v-.16c0-.49-.11-.9-.72-.9a.73.73,0,0,0-.77.67v.12c0,.7.76,1,1.4,1.39.85.54,1.41.86,1.41,2C214.59,55.07,213.73,55.54,212.51,55.54Z" transform="translate(0 0)"/><path id="Trazado_275" data-name="Trazado 275" class="cls-1" d="M221.63,55.41l-.39-1.53h-2l-.39,1.53h-1.22l1.86-6.66h1.6l1.83,6.66Zm-1.4-5.67L219.47,53H221Z" transform="translate(0 0)"/><path id="Trazado_276" data-name="Trazado 276" class="cls-1" d="M229.13,55.41a8.93,8.93,0,0,1-.08-1c0-.26,0-.56,0-.85-.06-.76-.2-1-1-1h-.49v2.85H226.3V48.75h2.1c1.16,0,2,.24,2,1.72,0,.84-.26,1.44-1.13,1.63.86.06,1,.52,1,1.65,0,.26,0,.52,0,.78a4.32,4.32,0,0,0,.11.88Zm-1-5.76h-.59v2H228c.81,0,1.1-.23,1.1-1.07,0-.68-.34-.93-1-.93Z" transform="translate(0 0)"/><path id="Trazado_277" data-name="Trazado 277" class="cls-1" d="M234.29,55.41V48.75h1.23v6.66Z" transform="translate(0 0)"/><path id="Trazado_278" data-name="Trazado 278" class="cls-1" d="M243,55.41l-.4-1.53h-2l-.4,1.53h-1.21l1.86-6.66h1.59l1.83,6.66Zm-1.4-5.67L240.79,53h1.51Z" transform="translate(0 0)"/><path id="Trazado_279" data-name="Trazado 279" class="cls-1" d="M247.62,55.41V48.75h1.24v5.74h2.07v.92Z" transform="translate(0 0)"/></g></g></g></g></svg>