<svg xmlns="http://www.w3.org/2000/svg" width="398" height="82.944" viewBox="0 0 398 82.944">
  <g id="Grupo_93" data-name="Grupo 93" transform="translate(-242.846 -469.601)">
    <path id="Trazado_181" data-name="Trazado 181" d="M410.892,523.524l-9.64,0-.006-16.163,9.544,0v2.47l-6.5,0v4.388l5.779,0v2.447l-5.779,0,0,4.389,6.594,0Z" transform="translate(-53.147 -12.67)" fill="#fff"/>
    <rect id="Rectángulo_110" data-name="Rectángulo 110" width="2.877" height="16.953" transform="translate(360.764 493.898)" fill="#fff"/>
    <path id="Trazado_182" data-name="Trazado 182" d="M444.268,512.977h-2.421l0,10h-2.878l0-10h-1.774v-2.158h1.774V510.1a4.366,4.366,0,0,1,1.126-3.191,4.164,4.164,0,0,1,3.117-1.152,5.169,5.169,0,0,1,1.583.216V508.4a3.339,3.339,0,0,0-1.2-.239q-1.751,0-1.75,1.968v.7h2.422Z" transform="translate(-65.208 -12.132)" fill="#fff"/>
    <path id="Trazado_183" data-name="Trazado 183" d="M461.1,525.523l-2.9,0v-1.99a3.706,3.706,0,0,1-3.74,2.112,3.838,3.838,0,0,1-2.878-1.055,4.115,4.115,0,0,1-1.033-3l0-8.226h2.878l0,7.554a2.464,2.464,0,0,0,.563,1.75,2.022,2.022,0,0,0,1.548.6,2.416,2.416,0,0,0,1.953-.84,3.875,3.875,0,0,0,.707-2.543l0-6.522h2.9Z" transform="translate(-69.688 -14.684)" fill="#fff"/>
    <path id="Trazado_184" data-name="Trazado 184" d="M477.231,523.753a4.95,4.95,0,0,1-2.159.408q-3.933,0-3.934-3.978l0-6.138h-1.822v-2.158h1.822v-2.926h2.877v2.926h3.021v2.158h-3.022l0,6.188a1.4,1.4,0,0,0,1.535,1.558,3,3,0,0,0,1.678-.5Z" transform="translate(-75.985 -13.205)" fill="#fff"/>
    <path id="Trazado_185" data-name="Trazado 185" d="M495.169,525.509h-2.9v-1.99a3.7,3.7,0,0,1-3.74,2.112,3.841,3.841,0,0,1-2.878-1.055,4.115,4.115,0,0,1-1.033-3l0-8.226h2.878l0,7.554a2.464,2.464,0,0,0,.563,1.75,2.015,2.015,0,0,0,1.548.6,2.415,2.415,0,0,0,1.953-.84,3.873,3.873,0,0,0,.707-2.543l0-6.522h2.9Z" transform="translate(-81.119 -14.679)" fill="#fff"/>
    <path id="Trazado_186" data-name="Trazado 186" d="M508.056,525.455l-2.9,0,.019-12.159h2.877v2.158a3.075,3.075,0,0,1,3.069-2.256,3.8,3.8,0,0,1,.815.071l0,2.781a3.057,3.057,0,0,0-1.223-.239,2.317,2.317,0,0,0-1.918.96,3.794,3.794,0,0,0-.744,2.4Z" transform="translate(-88.011 -14.629)" fill="#fff"/>
    <path id="Trazado_187" data-name="Trazado 187" d="M528.679,519.283a6.649,6.649,0,0,1-1.544,4.533,6.2,6.2,0,0,1-8.633.051,6.371,6.371,0,0,1-1.548-4.411,6.658,6.658,0,0,1,1.606-4.593,5.39,5.39,0,0,1,4.243-1.812,5.448,5.448,0,0,1,4.342,1.76,6.565,6.565,0,0,1,1.536,4.472m-8.7.076a4.985,4.985,0,0,0,.744,2.805,2.576,2.576,0,0,0,4.244.021,5.033,5.033,0,0,0,.718-2.8,5.34,5.34,0,0,0-.7-2.867A2.385,2.385,0,0,0,522.8,515.4a2.351,2.351,0,0,0-2.1,1.128,5.1,5.1,0,0,0-.73,2.83" transform="translate(-91.97 -14.579)" fill="#fff"/>
    <path id="Trazado_188" data-name="Trazado 188" d="M410.04,556.444a7,7,0,0,1-3.67.793,5.855,5.855,0,0,1-6.261-6.184,6.317,6.317,0,0,1,1.582-4.557,5.248,5.248,0,0,1,3.956-1.657,4.993,4.993,0,0,1,3.766,1.437,5.809,5.809,0,0,1,1.392,4.2,11.7,11.7,0,0,1-.166,1.727l-7.627,0a3.261,3.261,0,0,0,1.308,2.015,4.225,4.225,0,0,0,2.482.693,5.353,5.353,0,0,0,3.237-.96Zm-4.32-9.351a2.445,2.445,0,0,0-1.787.758,3.807,3.807,0,0,0-.97,2.194l5.107,0v-.359a3.06,3.06,0,0,0-.635-1.882,2.1,2.1,0,0,0-1.715-.707" transform="translate(-52.766 -25.245)" fill="#fff"/>
    <path id="Trazado_189" data-name="Trazado 189" d="M427.98,553.595a3.2,3.2,0,0,1-1.222,2.663,5.144,5.144,0,0,1-3.261.961,7.719,7.719,0,0,1-3.646-.742v-2.638a6.106,6.106,0,0,0,3.479,1.078,2.169,2.169,0,0,0,1.234-.3.943.943,0,0,0,.444-.827,1.1,1.1,0,0,0-.144-.563,1.49,1.49,0,0,0-.551-.493c-.272-.158-.484-.275-.635-.347s-.453-.2-.9-.395a.484.484,0,0,1-.108-.048.494.494,0,0,0-.108-.049.861.861,0,0,1-.12-.047q-2.662-1.2-2.663-3.452a3.124,3.124,0,0,1,1.27-2.638,5.143,5.143,0,0,1,3.189-.961,7.779,7.779,0,0,1,3.069.526v2.542a5.751,5.751,0,0,0-3-.718,1.861,1.861,0,0,0-1.163.325,1,1,0,0,0-.42.827,1.032,1.032,0,0,0,.061.36.869.869,0,0,0,.215.324c.1.1.2.2.3.276a2.156,2.156,0,0,0,.407.251l.457.229c.128.063.3.144.528.239s.4.175.528.239a7.179,7.179,0,0,1,2.015,1.39,2.744,2.744,0,0,1,.744,1.99" transform="translate(-59.364 -25.23)" fill="#fff"/>
    <path id="Trazado_190" data-name="Trazado 190" d="M455.337,554.733h-2.878V552.84a4.045,4.045,0,0,1-3.692,2.064,4.542,4.542,0,0,1-3.8-1.821,7.015,7.015,0,0,1-1.4-4.413,6.71,6.71,0,0,1,1.473-4.568,4.785,4.785,0,0,1,3.776-1.691,4.052,4.052,0,0,1,3.646,2.035l0-6.667h2.878Zm-8.827-6.016a4.117,4.117,0,0,0,.841,2.685,2.587,2.587,0,0,0,2.087,1.03,2.741,2.741,0,0,0,2.158-1,4.289,4.289,0,0,0,.861-2.89,3.79,3.79,0,0,0-.912-2.769,2.854,2.854,0,0,0-2.086-.922,2.628,2.628,0,0,0-2.1,1.021,4.306,4.306,0,0,0-.851,2.842" transform="translate(-67.345 -22.875)" fill="#fff"/>
    <path id="Trazado_191" data-name="Trazado 191" d="M474.928,556.417a7.018,7.018,0,0,1-3.67.792A5.856,5.856,0,0,1,465,551.025a6.322,6.322,0,0,1,1.582-4.557,5.247,5.247,0,0,1,3.956-1.657,5,5,0,0,1,3.766,1.437,5.813,5.813,0,0,1,1.392,4.2,11.709,11.709,0,0,1-.167,1.726l-7.627,0a3.265,3.265,0,0,0,1.308,2.013,4.229,4.229,0,0,0,2.482.7,5.366,5.366,0,0,0,3.237-.96Zm-4.32-9.351a2.444,2.444,0,0,0-1.787.755,3.814,3.814,0,0,0-.97,2.195l5.107,0v-.36a3.05,3.05,0,0,0-.635-1.881,2.1,2.1,0,0,0-1.714-.707" transform="translate(-74.537 -25.235)" fill="#fff"/>
    <path id="Trazado_192" data-name="Trazado 192" d="M500.124,555.372a4.941,4.941,0,0,1-2.159.409q-3.933,0-3.934-3.978l0-6.139h-1.822V543.5h1.823v-2.926H496.9V543.5l3.022,0v2.158l-3.022,0,0,6.186a1.4,1.4,0,0,0,1.535,1.557,3,3,0,0,0,1.678-.5Z" transform="translate(-83.666 -23.814)" fill="#fff"/>
    <path id="Trazado_193" data-name="Trazado 193" d="M518.442,550.918a6.653,6.653,0,0,1-1.545,4.532,6.2,6.2,0,0,1-8.634.052,6.37,6.37,0,0,1-1.549-4.411,6.666,6.666,0,0,1,1.606-4.593,5.4,5.4,0,0,1,4.244-1.812,5.451,5.451,0,0,1,4.341,1.761,6.561,6.561,0,0,1,1.536,4.472m-8.705.074a5,5,0,0,0,.744,2.806,2.578,2.578,0,0,0,4.245.022,5.042,5.042,0,0,0,.718-2.806,5.335,5.335,0,0,0-.7-2.865,2.386,2.386,0,0,0-2.182-1.114,2.356,2.356,0,0,0-2.1,1.128,5.1,5.1,0,0,0-.731,2.83" transform="translate(-88.535 -25.193)" fill="#fff"/>
    <path id="Trazado_194" data-name="Trazado 194" d="M538.883,554.7h-2.877l0-1.894a4.046,4.046,0,0,1-3.691,2.065,4.545,4.545,0,0,1-3.8-1.821,7.009,7.009,0,0,1-1.4-4.411,6.7,6.7,0,0,1,1.473-4.569,4.788,4.788,0,0,1,3.776-1.692A4.056,4.056,0,0,1,536,544.41l0-6.666,2.878,0Zm-8.827-6.016a4.117,4.117,0,0,0,.841,2.687,2.586,2.586,0,0,0,2.086,1.03,2.745,2.745,0,0,0,2.158-1,4.3,4.3,0,0,0,.861-2.89,3.8,3.8,0,0,0-.912-2.77,2.852,2.852,0,0,0-2.087-.922,2.63,2.63,0,0,0-2.1,1.019,4.311,4.311,0,0,0-.851,2.842" transform="translate(-95.377 -22.863)" fill="#fff"/>
    <path id="Trazado_195" data-name="Trazado 195" d="M560.27,550.9a6.647,6.647,0,0,1-1.545,4.532,6.2,6.2,0,0,1-8.633.052,6.362,6.362,0,0,1-1.549-4.412,6.667,6.667,0,0,1,1.605-4.592,5.4,5.4,0,0,1,4.244-1.812,5.451,5.451,0,0,1,4.342,1.76,6.578,6.578,0,0,1,1.536,4.473m-8.7.076a4.989,4.989,0,0,0,.744,2.805,2.577,2.577,0,0,0,4.245.021,5.051,5.051,0,0,0,.718-2.806,5.344,5.344,0,0,0-.7-2.865,2.381,2.381,0,0,0-2.182-1.113,2.354,2.354,0,0,0-2.1,1.127,5.1,5.1,0,0,0-.73,2.831" transform="translate(-102.569 -25.186)" fill="#fff"/>
    <path id="Trazado_196" data-name="Trazado 196" d="M577.713,553.529a3.193,3.193,0,0,1-1.222,2.663,5.143,5.143,0,0,1-3.261.96,7.707,7.707,0,0,1-3.645-.742v-2.637a6.121,6.121,0,0,0,3.477,1.078,2.2,2.2,0,0,0,1.234-.3.948.948,0,0,0,.444-.828,1.123,1.123,0,0,0-.143-.563,1.5,1.5,0,0,0-.553-.492c-.271-.159-.483-.276-.635-.347s-.453-.2-.9-.4a.446.446,0,0,1-.108-.048.482.482,0,0,0-.108-.047.884.884,0,0,1-.121-.048q-2.662-1.2-2.663-3.453a3.125,3.125,0,0,1,1.269-2.638,5.154,5.154,0,0,1,3.19-.96,7.755,7.755,0,0,1,3.069.527V547.8a5.727,5.727,0,0,0-3-.718,1.856,1.856,0,0,0-1.162.324,1,1,0,0,0-.42.827,1.044,1.044,0,0,0,.06.359.866.866,0,0,0,.217.324,4.051,4.051,0,0,0,.3.276,2.187,2.187,0,0,0,.409.251l.456.227c.128.065.3.145.528.241s.4.175.528.238a7.187,7.187,0,0,1,2.015,1.391,2.744,2.744,0,0,1,.744,1.989" transform="translate(-109.604 -25.208)" fill="#fff"/>
    <g id="Grupo_89" data-name="Grupo 89" transform="translate(514.975 499.044)">
      <path id="Trazado_197" data-name="Trazado 197" d="M662.33,520.332v5.678h-1.643l-.049-1.286a3.546,3.546,0,0,1-3.173,1.447,5.1,5.1,0,0,1-2.6-.648,4.432,4.432,0,0,1-1.748-1.9,6.553,6.553,0,0,1-.626-2.97,6.41,6.41,0,0,1,.643-2.96,4.514,4.514,0,0,1,1.823-1.919,5.5,5.5,0,0,1,2.758-.668,5.608,5.608,0,0,1,2.839.636,4.3,4.3,0,0,1,1.733,2l-2.067.9a2.2,2.2,0,0,0-.885-1.262,2.735,2.735,0,0,0-1.554-.431,2.653,2.653,0,0,0-2.18.959,4.23,4.23,0,0,0-.781,2.732,4.334,4.334,0,0,0,.765,2.782,2.717,2.717,0,0,0,2.244.944,2.977,2.977,0,0,0,1.855-.545,1.87,1.87,0,0,0,.716-1.586v-.245h-3.14v-1.659Z" transform="translate(-652.42 -514.313)" fill="#fff"/>
      <path id="Trazado_198" data-name="Trazado 198" d="M677.248,520.151a4.942,4.942,0,0,1,0,6.214,4.755,4.755,0,0,1-6.133,0,4.944,4.944,0,0,1,0-6.214,4.749,4.749,0,0,1,6.133,0m-4.506,1.178a4,4,0,0,0,0,3.855,1.935,1.935,0,0,0,2.88,0,4,4,0,0,0,0-3.855,1.935,1.935,0,0,0-2.88,0" transform="translate(-658.302 -515.628)" fill="#fff"/>
      <path id="Trazado_199" data-name="Trazado 199" d="M692.779,518.434a4.764,4.764,0,0,1,.927,3.123,4.7,4.7,0,0,1-.928,3.1,3.14,3.14,0,0,1-2.554,1.114,2.9,2.9,0,0,1-1.668-.478A2.972,2.972,0,0,1,687.491,524l-.082,1.611h-1.968v-11.7h2.229v4.9a2.811,2.811,0,0,1,1.025-1.1,2.875,2.875,0,0,1,1.53-.4,3.133,3.133,0,0,1,2.554,1.123m-1.806,4.977a3.723,3.723,0,0,0,0-3.742,1.688,1.688,0,0,0-1.415-.649,1.669,1.669,0,0,0-1.318.569,2.57,2.57,0,0,0-.569,1.593v.715a2.557,2.557,0,0,0,.569,1.6,1.845,1.845,0,0,0,2.733-.088" transform="translate(-663.477 -513.911)" fill="#fff"/>
      <path id="Trazado_200" data-name="Trazado 200" d="M700.451,515.114q0-1.2,1.383-1.2t1.383,1.2q0,1.189-1.383,1.189t-1.383-1.189m2.488,10.494h-2.228v-8.133h2.229Z" transform="translate(-668.513 -513.911)" fill="#fff"/>
      <path id="Trazado_201" data-name="Trazado 201" d="M715.065,524.1h-5.76a1.9,1.9,0,0,0,2.034,1.725,2.32,2.32,0,0,0,1.155-.259,1.4,1.4,0,0,0,.635-.749l1.821.666a2.891,2.891,0,0,1-1.31,1.489,4.687,4.687,0,0,1-2.3.511,3.859,3.859,0,0,1-4.23-4.228,4.308,4.308,0,0,1,1.074-3.116,4.009,4.009,0,0,1,3.026-1.114,3.776,3.776,0,0,1,2.9,1.089,4.391,4.391,0,0,1,1.017,3.107,5.863,5.863,0,0,1-.065.878m-5.166-2.959a2.36,2.36,0,0,0-.61,1.4h3.79a2.363,2.363,0,0,0-.618-1.391,1.741,1.741,0,0,0-1.268-.479,1.759,1.759,0,0,0-1.294.472" transform="translate(-670.747 -515.628)" fill="#fff"/>
      <path id="Trazado_202" data-name="Trazado 202" d="M727.478,519.207l-.277,1.952a2.056,2.056,0,0,0-2.4.334,2.189,2.189,0,0,0-.577,1.618v4.214h-2.228v-8.134h1.936l.146,1.593a2.493,2.493,0,0,1,2.522-1.756,1.753,1.753,0,0,1,.878.179" transform="translate(-675.741 -515.628)" fill="#fff"/>
      <path id="Trazado_203" data-name="Trazado 203" d="M739.3,519.792a2.887,2.887,0,0,1,.8,2.2v5.335h-2.229v-4.686q0-1.852-1.449-1.854a1.794,1.794,0,0,0-1.326.554,2.32,2.32,0,0,0-.545,1.69v4.3h-2.228v-8.133h2l.065,1.447a2.82,2.82,0,0,1,1.122-1.2,3.319,3.319,0,0,1,1.66-.407,2.954,2.954,0,0,1,2.123.765" transform="translate(-679.208 -515.628)" fill="#fff"/>
      <path id="Trazado_204" data-name="Trazado 204" d="M754.077,520.151a4.942,4.942,0,0,1,0,6.214,4.754,4.754,0,0,1-6.132,0,4.943,4.943,0,0,1,0-6.214,4.749,4.749,0,0,1,6.133,0m-4.506,1.178a4,4,0,0,0,0,3.855,1.935,1.935,0,0,0,2.88,0,4,4,0,0,0,0-3.855,1.935,1.935,0,0,0-2.88,0" transform="translate(-684.08 -515.628)" fill="#fff"/>
      <path id="Trazado_205" data-name="Trazado 205" d="M660.635,540.141v11.7h-1.985l-.1-1.514a2.872,2.872,0,0,1-1.066,1.221,2.938,2.938,0,0,1-1.619.454,3.137,3.137,0,0,1-2.554-1.114,4.7,4.7,0,0,1-.928-3.1,4.76,4.76,0,0,1,.928-3.123,3.132,3.132,0,0,1,2.554-1.123,2.867,2.867,0,0,1,1.529.4,2.7,2.7,0,0,1,1.009,1.1v-4.9Zm-2.733,9.516a2.839,2.839,0,0,0,.5-1.8v-.164a2.855,2.855,0,0,0-.5-1.8,1.822,1.822,0,0,0-2.782.007,3.723,3.723,0,0,0,0,3.742,1.826,1.826,0,0,0,2.782.016" transform="translate(-652.386 -522.712)" fill="#fff"/>
      <path id="Trazado_206" data-name="Trazado 206" d="M675.669,550.332H669.91a1.9,1.9,0,0,0,2.034,1.725,2.315,2.315,0,0,0,1.155-.259,1.4,1.4,0,0,0,.635-.749l1.821.668a2.89,2.89,0,0,1-1.309,1.488,4.7,4.7,0,0,1-2.3.51,3.858,3.858,0,0,1-4.229-4.227,4.3,4.3,0,0,1,1.074-3.116,4,4,0,0,1,3.025-1.115,3.78,3.78,0,0,1,2.9,1.09,4.393,4.393,0,0,1,1.016,3.106,5.769,5.769,0,0,1-.065.878m-5.165-2.96a2.36,2.36,0,0,0-.61,1.4h3.79a2.361,2.361,0,0,0-.618-1.391,1.738,1.738,0,0,0-1.268-.479,1.762,1.762,0,0,0-1.294.472" transform="translate(-657.529 -524.428)" fill="#fff"/>
      <path id="Trazado_207" data-name="Trazado 207" d="M697.68,551.613a5.134,5.134,0,0,1-2.88.788,5.461,5.461,0,0,1-2.749-.665,4.44,4.44,0,0,1-1.8-1.914,7.265,7.265,0,0,1,0-5.9,4.46,4.46,0,0,1,1.789-1.911,6.007,6.007,0,0,1,5.564.032,3.616,3.616,0,0,1,1.6,2.083l-2.033.862a2.5,2.5,0,0,0-.814-1.382,2.394,2.394,0,0,0-1.5-.424,2.594,2.594,0,0,0-2.14.96,4.262,4.262,0,0,0-.773,2.732,4.37,4.37,0,0,0,.748,2.735,2.524,2.524,0,0,0,2.115.958,2.327,2.327,0,0,0,2.473-1.9l2.067.617a4.12,4.12,0,0,1-1.676,2.335" transform="translate(-664.881 -523.114)" fill="#fff"/>
      <path id="Trazado_208" data-name="Trazado 208" d="M713.41,546.381a4.944,4.944,0,0,1,0,6.214,4.755,4.755,0,0,1-6.133,0,4.942,4.942,0,0,1,0-6.214,4.748,4.748,0,0,1,6.133,0m-4.507,1.178a4,4,0,0,0,0,3.855,1.935,1.935,0,0,0,2.88,0,4,4,0,0,0,0-3.855,1.935,1.935,0,0,0-2.88,0" transform="translate(-670.435 -524.429)" fill="#fff"/>
      <path id="Trazado_209" data-name="Trazado 209" d="M723.782,549.251a1.407,1.407,0,0,0,.171.813.74.74,0,0,0,.627.229,2.47,2.47,0,0,0,.48-.041,3.532,3.532,0,0,0,.48-.139l-.2,1.546a2.086,2.086,0,0,1-.684.252,4.047,4.047,0,0,1-.83.089,2.283,2.283,0,0,1-1.732-.577,2.633,2.633,0,0,1-.545-1.847v-9.434h2.229Z" transform="translate(-675.593 -522.712)" fill="#fff"/>
      <path id="Trazado_210" data-name="Trazado 210" d="M736.008,546.381a4.943,4.943,0,0,1,0,6.214,4.754,4.754,0,0,1-6.132,0,4.943,4.943,0,0,1,0-6.214,4.749,4.749,0,0,1,6.134,0m-4.507,1.178a3.991,3.991,0,0,0,0,3.855,1.934,1.934,0,0,0,2.879,0,3.992,3.992,0,0,0,0-3.855,1.934,1.934,0,0,0-2.879,0" transform="translate(-678.017 -524.429)" fill="#fff"/>
      <path id="Trazado_211" data-name="Trazado 211" d="M756.459,546.022a2.855,2.855,0,0,1,.821,2.2v5.336h-2.229v-4.9a1.767,1.767,0,0,0-.375-1.244,1.34,1.34,0,0,0-1.025-.4,1.643,1.643,0,0,0-1.285.569,2.327,2.327,0,0,0-.5,1.6v4.376h-2.229v-4.9a1.77,1.77,0,0,0-.374-1.244,1.362,1.362,0,0,0-1.042-.4,1.672,1.672,0,0,0-1.261.563,2.343,2.343,0,0,0-.529,1.666v4.312H744.2V545.42h2l.064,1.448a2.837,2.837,0,0,1,1.115-1.2,3.131,3.131,0,0,1,1.586-.407,3.1,3.1,0,0,1,1.619.423,2.47,2.47,0,0,1,1.033,1.221,2.77,2.77,0,0,1,1.14-1.221,3.249,3.249,0,0,1,1.627-.423,2.922,2.922,0,0,1,2.074.765" transform="translate(-683.191 -524.428)" fill="#fff"/>
      <path id="Trazado_212" data-name="Trazado 212" d="M774.675,544.664a4.763,4.763,0,0,1,.927,3.123,4.7,4.7,0,0,1-.927,3.1A3.143,3.143,0,0,1,772.12,552a2.891,2.891,0,0,1-1.667-.478,2.971,2.971,0,0,1-1.066-1.294l-.082,1.611h-1.968v-11.7h2.229v4.9a2.818,2.818,0,0,1,1.025-1.1,2.876,2.876,0,0,1,1.53-.4,3.133,3.133,0,0,1,2.554,1.124m-1.806,4.977a3.728,3.728,0,0,0,0-3.742,1.687,1.687,0,0,0-1.415-.649,1.67,1.67,0,0,0-1.318.569,2.579,2.579,0,0,0-.569,1.593v.714a2.562,2.562,0,0,0,.569,1.6,1.845,1.845,0,0,0,2.733-.088" transform="translate(-690.955 -522.712)" fill="#fff"/>
      <path id="Trazado_213" data-name="Trazado 213" d="M782.347,541.344q0-1.2,1.383-1.2t1.383,1.2q0,1.188-1.383,1.189t-1.383-1.189m2.488,10.493h-2.229V543.7h2.229Z" transform="translate(-695.991 -522.712)" fill="#fff"/>
      <path id="Trazado_214" data-name="Trazado 214" d="M797.375,552.139l-.163,1.35a2.341,2.341,0,0,1-1.058.227q-1.562,0-1.87-1.219a2.21,2.21,0,0,1-1.107.91,4.623,4.623,0,0,1-1.773.308,2.874,2.874,0,0,1-1.854-.536,1.867,1.867,0,0,1-.667-1.546q0-1.983,3.172-2.571l1.952-.372V548.3a1.434,1.434,0,0,0-.365-1.033,1.342,1.342,0,0,0-1.017-.381,2.123,2.123,0,0,0-1.221.324,1.726,1.726,0,0,0-.651,1.058l-1.773-.749a2.7,2.7,0,0,1,1.172-1.659,4.251,4.251,0,0,1,2.375-.6,4.341,4.341,0,0,1,2.716.755,2.659,2.659,0,0,1,.975,2.238v3.334a.645.645,0,0,0,.146.472.622.622,0,0,0,.456.147,1.952,1.952,0,0,0,.553-.066m-3.961-.284a1.069,1.069,0,0,0,.593-.954v-.844l-1.741.39a2.029,2.029,0,0,0-.821.35.744.744,0,0,0-.268.611.728.728,0,0,0,.244.593,1.035,1.035,0,0,0,.683.2,2.529,2.529,0,0,0,1.31-.349" transform="translate(-698.184 -524.429)" fill="#fff"/>
    </g>
    <g id="Grupo_90" data-name="Grupo 90" transform="translate(242.846 469.601)">
      <path id="Trazado_215" data-name="Trazado 215" d="M640.846,469.6l-397.993.006-.007,82.938,397.993-.005Zm-395.689,2.31h78.315l-.011,78.33H245.15Zm80.628,0H492l-.007,78.33-166.213,0Zm312.75,78.324H494.306l.011-78.33H638.542Z" transform="translate(-242.846 -469.601)" fill="#fff"/>
    </g>
    <g id="Grupo_92" data-name="Grupo 92" transform="translate(256.389 483.313)">
      <g id="Grupo_91" data-name="Grupo 91">
        <path id="Trazado_216" data-name="Trazado 216" d="M314.486,507.351a.062.062,0,0,1-.013-.025l-.034-.166-.157.066c-.672.241-1.324.474-1.984.722-.7.25-1.391.5-2.093.747l-.091.043-.009.082c-.029.524-.436.839-.989,1.163V508.97l-.223-2.574a1.963,1.963,0,0,1,.215.016,1.524,1.524,0,0,0,.963-.157,10.883,10.883,0,0,0,1.789-2.026c.064-.083.114-.149.167-.224s.233-.274.411-.49l.128.023a2.335,2.335,0,0,0,.237.034c.705,0,.805-.456.805-.722,0-.6-.888-1.163-1.362-1.379a.367.367,0,0,0,.017-.1c0-.732-1.478-1.528-2.591-2.059l-.083-.042a1.194,1.194,0,0,0-.266-.614,51.412,51.412,0,0,0-11.277-7.615,5.6,5.6,0,0,0-2.49-.54c-1.005,0-3.891.432-4.36.83a2.257,2.257,0,0,0-.74,1.6,3.157,3.157,0,0,0,.872,1.959,1.809,1.809,0,0,1,.507.93.324.324,0,0,1-.275.316,1.649,1.649,0,0,0-1.661-.888,3.616,3.616,0,0,0-.39.041c-.125.017-.29.042-.348.042a1.23,1.23,0,0,1-.282-.365,1.759,1.759,0,0,1,.041-.225,1.346,1.346,0,0,0,.041-.274c0-.482-.324-.722-.756-.979a.4.4,0,0,0-.037-.175.643.643,0,0,0-.581-.324,3.218,3.218,0,0,0-.81.241c0,.016-.016.016-.024.016s-.043-.024-.067-.032a1.8,1.8,0,0,0,.134-.8c0-2.117-3.073-2.184-3.421-2.184-4.328,0-9.613,3.687-14.234,7.166a4.85,4.85,0,0,0-.885.938,3.506,3.506,0,0,1-.918.938c-.191.125-.381.217-.571.324a4.6,4.6,0,0,0-1.267.888,1.332,1.332,0,0,0-.246.407,1.74,1.74,0,0,1-.124.232c-.116.117-.266.234-.4.35-.4.323-.813.664-.813,1.112a.661.661,0,0,0,.672.681,1.6,1.6,0,0,0,.856-.257.179.179,0,0,1,.074-.033h.008c.905,1.1,2.724,3.255,2.741,3.272l.017.025a1.343,1.343,0,0,0,1.012.166c.074,0,.142-.008.2-.008l-.221,2.524v1.03c-.05-.025-.1-.059-.141-.075a2.738,2.738,0,0,1-.637-.456.816.816,0,0,1-.112-.291c-.041-.2-.083-.415-.29-.514l-4.9-1.759.348.423c3.1,3.67,3.28,3.67,3.355,3.67h1.076l-.238,2.7v5.687a50.115,50.115,0,0,0,.789,5.8,19.125,19.125,0,0,0,3.761,8.137c.07.091.15.175.225.258l-.017.042a.423.423,0,0,1,.1.041,9.3,9.3,0,0,0,6.8,3.363,13.09,13.09,0,0,0,6.668-2.383,27.178,27.178,0,0,1-2.674,5.447l-.116.166.2.059a3.1,3.1,0,0,0,.473.082h.93a3.209,3.209,0,0,1,.738.067l-.34,1.088-.008.042a.826.826,0,0,1-.009.108,1.41,1.41,0,0,0-.016.141.384.384,0,0,0,.016.084v.016h.009c.116.4.956.506.964.506a6.873,6.873,0,0,0,.868,0l-.138.873.017.032c.3.93,1.573.93,2.267.93h.2a2.451,2.451,0,0,0,1.578-.382.668.668,0,0,0,.2-.49,4.457,4.457,0,0,0-.1-.531c-.033-.126-.066-.274-.087-.373a2.664,2.664,0,0,0,1.586-.349.608.608,0,0,0,.187-.35h.025c.009-.025-.008-.049-.008-.074s.008-.033.008-.049a3.934,3.934,0,0,0-.211-.748c-.059-.183-.138-.415-.17-.557.166-.007.307-.025.415-.032.35-.017.789-.017,1.114-.017.241,0,.456,0,.614-.009l.274-.007-.159-.225a22.2,22.2,0,0,1-2.17-4.351l-.138-.332c-.07-.191-.144-.383-.191-.541a1.064,1.064,0,0,1,.183.108A12.893,12.893,0,0,0,299,537.019c4.019,0,6.694-2.823,8.226-5.19a20.407,20.407,0,0,0,3.107-9.367c0-.066.046-.4.087-.788.092-.855.233-2.01.233-2.317v-5.7l-.227-2.706h1.033l.054.016.05-.049a42.79,42.79,0,0,0,2.956-3.4.468.468,0,0,0-.033-.165m-2.213-4.094a.939.939,0,0,0-.132.141h-.009c-.075.084-.187.233-.308.39a.122.122,0,0,0-.025.033c-.058.076-.108.142-.175.216a10.613,10.613,0,0,1-1.711,1.96,1.367,1.367,0,0,1-.8.125,2.942,2.942,0,0,0-.381-.009h-.051l1.711-1.378c.407-.316.814-.64,1.113-.889.237-.191.373-.308.457-.365l.041-.034H312c.083-.09.075-.107.066-.149l-.041-.191.573-.233c-.082.1-.2.241-.324.381m-7.333,7.431c.157-.157.324-.307.466-.449.7-.7,1.71-1.893,1.72-1.91l-.225-.183c-.009.009-1.013,1.188-1.7,1.885q-.131.137-.274.273c-.025-.581-.066-1.138-.087-1.344l3.5-2.608-.174-.231-6.772,5.032c0-.068-.009-.126-.012-.192.837-.639,1.689-1.3,2.5-1.934,1.383-1.08,2.795-2.192,4.24-3.238a1.406,1.406,0,0,0,.506-.864.7.7,0,0,1,.216-.441,7.029,7.029,0,0,1,1.873-.847,2.634,2.634,0,0,1,.253-.091l.079-.033c.178-.059.353-.126.52-.191l-.005-.017V503.3l.009.025.245-.1-3.231,2.2-.074.831.074-.058.241,2.8v1.2l-3.975,2.674c.029-.4.088-1.112.1-1.636,0-.166,0-.348-.009-.54m-2.611,3.172c0-.033.012-.074.017-.107.029-.191.045-.4.062-.6h2.027l-1.062.706Zm.6.3-.752.505c.034-.149.071-.322.1-.505Zm1.694-4.069c.009.158.009.315.017.482-.092.083-.183.167-.282.249h-1.944a.214.214,0,0,1,0-.05l.909-.681Zm-.922-.291.86-.631c.012.159.029.383.046.632Zm-1.262,2.051c0-.282-.009-.523-.017-.722h1.594c-.286.241-.577.49-.855.722Zm.365.292c-.125.1-.249.2-.369.29,0-.1,0-.2,0-.29Zm-.381.706v-.018c.256-.215.54-.439.843-.688h1.349c-.016.265-.033.515-.05.706Zm1.2-1c.274-.24.56-.481.839-.722h.194v.1c0,.183-.011.4-.021.623Zm-2.1,1.668c.084-.057.258-.19.486-.365h.107c-.012.191-.029.382-.054.557-.054.389-.178.963-.225,1.171h-.357c.025-.549.042-1.039.042-1.363m-.008-.365h0Zm.407-.307h-.423c-.021-.375-.05-.872-.084-1.338l.519-.381h.2c.017.374.025.955.008,1.544a2.769,2.769,0,0,0-.224.175m3.429,1.312c-.009.207-.021.456-.033.722h-1.976l1.079-.722Zm-.482-.3.507-.341c-.008.091-.008.208-.017.341Zm.433,1.32v.01c-.32.257-.64.5-.96.713h-1.561c.013-.231.029-.456.037-.664l.084-.059Zm-.458.723c.146-.108.291-.208.437-.323,0,.1-.013.207-.017.323Zm.4.291c-.009.232-.026.472-.042.722H303a8.842,8.842,0,0,0,1.421-.722Zm-1.387,0a9.577,9.577,0,0,1-1.13.522c.009-.174.025-.365.038-.522Zm1.321,1.013c-.017.241-.034.472-.055.722h-2.494c.025-.25.045-.49.066-.722Zm-.08,1.013c-.02.242-.041.474-.066.714h-2.5c.025-.241.05-.472.071-.714Zm-.1,1.023c-.026.24-.05.481-.074.73h-2.5c.026-.249.05-.49.075-.73Zm-7.21,13.923c-.224-.149-.439-.314-.651-.482.059-.074.117-.148.179-.232h2.657c-.219.29-.4.532-.539.714Zm1.413.308c-.167.2-.258.324-.308.365a5.942,5.942,0,0,1-.664-.365Zm-6.894-1.843.109-.756-.831-.216-.548.373-.239-.307.274-.009,1.1-.49,1.245.931.482.9.516-.173c-.507.505-1.023.987-1.537,1.445l-.133-.183.1-.963Zm-.988,1.677-.017-.076a2.062,2.062,0,0,1-.054-.439,1.924,1.924,0,0,1,.054-.424l.043-.191h-.457v-.49h-.556v.49h-.623v-.49h-.557v.49h-.626v-.49h-.557v.49h-.311l-.03.125a2.1,2.1,0,0,0-.066.463l-.532.542h-.876l.536.912.759.482h3.616l.595-.34a17.8,17.8,0,0,1-2.459,1.769,22.874,22.874,0,0,1-3.778-2.9c.067-.1.166-.257.237-.365l.76-.141.191-.573.373-.5h.728l.469-.431,2.4-.291.4.49.664-.449.441.116-.088.631.536.556-.1.955.225.292c-.233.2-.457.4-.68.581l.207-.8Zm-.224.1-.037.1h-.17v-.1Zm-.265-.5h-.491a1.1,1.1,0,0,1-.016-.181,1,1,0,0,1,.016-.175h.491a1,1,0,0,0-.009.175,1.13,1.13,0,0,0,.009.181m-1.122.6v-.1h.623v.1h-.282v.2h-.074v-.2Zm-.033-.6h-.5c0-.05-.009-.108-.009-.181a.983.983,0,0,1,.017-.175h.49a1.077,1.077,0,0,0-.009.175,1.213,1.213,0,0,0,.009.181m-1.15.6v-.1h.627v.1h-.29v.2h-.054v-.2Zm-.013-.6h-.5a1.072,1.072,0,0,1-.013-.182.977.977,0,0,1,.013-.175h.5a1.159,1.159,0,0,0-.017.175,1.373,1.373,0,0,0,.017.182m-.544.5v.1h-.27v.024l-.141-.191.066-.066a.034.034,0,0,0,0,.017l.029.116Zm3.587,7.358a1.59,1.59,0,0,1-.238-.124,1.694,1.694,0,0,1,.249-.1,2.3,2.3,0,0,1,.606-.126c.021.058.059.183.108.35Zm.817.3a.608.608,0,0,1,.029.082c-.046-.024-.1-.058-.141-.082Zm-1.012-.051c.041.018.078.027.12.042v.008h.013c.091.042.191.075.274.117a.035.035,0,0,1,.026.008h-1.446c-.041-.5-.086-1.1-.133-1.736h.457a7.009,7.009,0,0,0,.167.872l.033.1a1,1,0,0,0,.241.424l0,.009h0a.854.854,0,0,0,.242.156m-1.167-1.859c-.037-.573-.079-1.171-.113-1.745h.308c.075.59.167,1.221.241,1.745Zm-1.125-2.766c.016.009.042.026.058.033l.074.041.066-.041c.017-.007.042-.025.059-.033h.4c.016.241.033.482.045.739h-1.282c.017-.257.029-.5.041-.739Zm-.524-.291a.066.066,0,0,1,.008-.025.04.04,0,0,0,.034.025Zm1.245,1.312c.013.233.025.482.042.714h-1.411c.016-.232.033-.481.05-.714Zm.058,1.022c.017.24.033.481.05.723h-1.545q.024-.363.051-.723Zm.074,1.021c.017.241.033.482.05.713h-1.694c.017-.231.033-.464.051-.713Zm.074,1c.021.266.042.507.059.731h-1.869c.025-.224.046-.465.066-.731Zm-.008-4.475c.067-.042.133-.083.2-.133.033.274.092.74.161,1.279h-.286c-.025-.406-.05-.8-.075-1.146m.1,5.5q.043.449.087.722h-2.1c.029-.165.057-.415.091-.722Zm-11.115-8.312c-.144-.182-.324-.423-.54-.714h2.65c.066.084.124.166.183.241-.209.158-.427.323-.649.472Zm1.2.308a5.574,5.574,0,0,1-.664.365c-.042-.049-.142-.166-.3-.365Zm-6.19-19.314,1.084.723h-1.972c-.013-.266-.025-.516-.029-.723Zm-.934-.3c0-.134-.005-.25-.009-.332l.5.332Zm2.449,1.32.087.058c.013.207.029.433.038.664h-1.552c-.316-.215-.64-.456-.96-.714v-.009Zm.146,1.014c.013.157.026.348.037.515a8.854,8.854,0,0,1-1.129-.515Zm-2.08-.292h-.415c0-.116-.012-.215-.017-.324.142.116.292.216.433.324m.419.292a9.249,9.249,0,0,0,1.425.722h-2.2c-.013-.25-.029-.49-.046-.722Zm1.732,1.013c.02.232.041.472.066.722h-2.49c-.025-.249-.042-.481-.058-.722Zm.091,1.013c.021.242.042.474.066.714h-2.5c-.019-.241-.045-.472-.061-.714Zm.1,1.023c.025.24.051.48.08.73h-2.5c-.024-.249-.049-.49-.074-.73Zm1.077-4.36h-.4c-.05-.208-.174-.781-.228-1.171-.025-.174-.037-.366-.054-.556h.681c0,.017-.009.05-.009.066-.009.24-.009.88.013,1.661m-.7-2.035c-.033-.639-.02-1.3,0-1.719h.233l.544.407c-.02.447-.045.946-.066,1.312Zm.789,4.069h-.8c-.091-.034-.19-.067-.286-.1-.037-.5-.066-.955-.09-1.371l1.137.764c.012.233.025.473.038.706M270.2,502.95l.082.108c.872,1.088,1.52,1.478,2.375,1.478a4.369,4.369,0,0,0,1.594-.456,4.558,4.558,0,0,1,1.359-.424,6.136,6.136,0,0,1-.62.49,5.346,5.346,0,0,0-.764.648.932.932,0,0,0-.157.556,4.538,4.538,0,0,0,1.5,3.2,2.117,2.117,0,0,0,1.477.489v.017a.511.511,0,0,1,.122-.017c.011-.008.029,0,.041,0a1.853,1.853,0,0,1-.029.191c-.008.109-.025.217-.033.316-.016.407-.029.664-.042.856H277.1s0,.091-.007.217c-2.467-1.777-4.849-3.53-6.984-5.366a.684.684,0,0,1-.086-.347.734.734,0,0,0-.262-.606l-.025-.016c-.025,0-2.167-.848-3.538-1.429.217-.058.433-.125.623-.183.153-.05.316-.1.4-.116a1.53,1.53,0,0,0,.706.225,4.5,4.5,0,0,0,1.935-.523.224.224,0,0,0-.033.124c0,.108.075.225.375.573m1.577-.524c-.029-.206-.083-.547-.133-.829-.009-.076-.017-.133-.025-.191.066.058.142.116.216.182a2.619,2.619,0,0,0,1.387.607,3.532,3.532,0,0,0,.922-.225,4.722,4.722,0,0,1,1.071-.249c.78,0,1.811,1.279,2.109,2.152a3.244,3.244,0,0,0-.448-.225A3.308,3.308,0,0,0,276,503.4h-.016a3.313,3.313,0,0,0-1.84.407,4.3,4.3,0,0,1-1.482.448c-.756,0-1.337-.373-2.152-1.377l-.086-.108a2.977,2.977,0,0,0-.217-.267l1.6.109Zm10.846-4.832c-.191.241-.242.74-.665.839a.539.539,0,0,1-.041-.249,1.483,1.483,0,0,1,1.428-1.27c.074,0,.066.025.12.05-.269.241-.623.348-.842.63m.693.64v.249c0,.34-.407.813-.415,1.263a.516.516,0,0,1-.312-.415c0-.382.207-1.014.727-1.1m-1.441-1.3a.287.287,0,0,1-.049-.191c0-.74,1.114-.947,1.433-1l.12.017a4.573,4.573,0,0,1-1.5,1.179m-.07-3.106h-.121c0-.05-.062-.1-.062-.166,0-.373,1.075-.474,1.117-.474.157,0,.315-.016.315.183,0,.133-1.1.407-1.249.457m.27.357c.1,0,.689.043.689.233,0,.051-.09.308-.2.316a2.845,2.845,0,0,0-1.382.356c-.051-.075-.133-.124-.133-.2,0-.489.78-.706,1.029-.706m-.009,1.171a2.838,2.838,0,0,1,.461.108c-.453.264-1.271.738-1.341.738a.28.28,0,0,1-.266-.257c0-.35.979-.589,1.146-.589m-1.125,1.752a5.392,5.392,0,0,0-.341,1.23c0,.273.029.264.29.688a1.268,1.268,0,0,1-.352.075c-.465,0-.433-.507-.433-.706a1.817,1.817,0,0,1,.835-1.288m-1.425,1.536c0,.3.05.174.2.557-.108.016-.25.049-.316.049-.34,0-.44-.266-.44-.506a1.781,1.781,0,0,1,1.076-1.395l.12.024c-.324.49-.64.839-.64,1.27m-.282,1.462a1.189,1.189,0,0,0,.286-.075,2.99,2.99,0,0,1,.32-.092,1,1,0,0,1,.158-.033.982.982,0,0,0,.613-.258.3.3,0,0,0,.187.075.535.535,0,0,0,.357-.175c.009-.007.013-.024.021-.024a1.115,1.115,0,0,0,.381.109.656.656,0,0,0,.474-.217c.008-.017.024-.017.033-.025v.274c.008.532,1.419,1.437,1.677,1.437h.017a.508.508,0,0,0,.4-.15c.133.258.26.465.436.5a3.1,3.1,0,0,0-.125.721c0,.49,0,1.27.531,1.645a9.166,9.166,0,0,0-.522,1.154l-.017.058a7.784,7.784,0,0,0-2.009-.348,11.043,11.043,0,0,0-3.007.538,8.73,8.73,0,0,1-2.251.424,3.178,3.178,0,0,0,.508-1.353c0-.93-1.4-2.873-2.492-2.873a4.284,4.284,0,0,0-1.162.273,3.317,3.317,0,0,1-.831.2,2.272,2.272,0,0,1-1.051-.424h0a2.367,2.367,0,0,0,1.964-.647c.037-.027.088-.075.113-.092.025.009.058.017.1.033a2.2,2.2,0,0,0,.382.076,2.816,2.816,0,0,0,1.595-.748l.157-.116a1.037,1.037,0,0,1,.308-.066,1.1,1.1,0,0,0,.415-.091,4.108,4.108,0,0,0,.47-.308,4.875,4.875,0,0,1,.718-.432,2.53,2.53,0,0,1,.133.365c.075.3.174.664.706.664m13.092-1.5a1.622,1.622,0,0,1,.593,1.187c0,.225-.117.8-.481.906a1.145,1.145,0,0,1-.1-.307c0-.083.175-.756.175-.83s-.141-.607-.186-.956m-.167-1.279c0-.066.146-.132.221-.132.6,0,1.009.9,1.009,1.179,0,.091-.029.132-.033.215,0,0-.009.041-.087.041a.25.25,0,0,1-.191-.082c-.34-.457-.918-1.212-.918-1.221m.071,3.879a.46.46,0,0,0,.286.074.052.052,0,0,1,.033-.007.837.837,0,0,0,.478-.151.443.443,0,0,0,.391.183c.415,0,.627-.266.918-.64.024-.033.053-.065.09-.106a.477.477,0,0,0,.46-.051,1.074,1.074,0,0,0,.366-.8c.194.025.415.066.49.066a.791.791,0,0,0,.623-.216.553.553,0,0,0,.348.158.289.289,0,0,0,.154-.051,1.783,1.783,0,0,0,1.266.664.9.9,0,0,0,.68-.307,1.123,1.123,0,0,0,.242-.74.351.351,0,0,0,.216-.074c.544.457,2.55,1.853,3.347,1.853h.045a.5.5,0,0,0,.361-.117,3.844,3.844,0,0,0,1.736.863h-.233l-1.661-.332a1.554,1.554,0,0,0-1.3.382,3.825,3.825,0,0,0-1.42,2.382,2.563,2.563,0,0,0,.672,1.453c-.033,0-.058-.008-.075-.008a12.588,12.588,0,0,1-2.334-.506,10.518,10.518,0,0,0-2.789-.532,6.475,6.475,0,0,0-1.029.108.551.551,0,0,0-.118.017.89.89,0,0,0-.141.025.7.7,0,0,0-.1-.233l-.1-.174-.128.158c-.026.024-.05.05-.079.074a.618.618,0,0,0-.213.341c-.045.017-.09.025-.144.042a.937.937,0,0,1-.129.042l-.134.048c-.008-.066-.012-.116-.016-.165a1.337,1.337,0,0,0-.017-.142v-.332l-.233.191c-.32.249-.419.365-.419.482a1.039,1.039,0,0,0,.029.207s0,0-.008.008-.021.008-.033.018c-.042.016-.092.033-.141.049v-.016a.461.461,0,0,0-.167-.407l-.12-.092-.113.159a2.623,2.623,0,0,0-.195.308,4.989,4.989,0,0,1-.361-.417,1.059,1.059,0,0,1,.046-.149,3.311,3.311,0,0,0,.154-.723,2.311,2.311,0,0,0-.233-.979,1.453,1.453,0,0,1-.178-.649,2.45,2.45,0,0,1,.208-.788c.02-.059.049-.116.07-.183a.671.671,0,0,0,.173.033.523.523,0,0,0,.474-.306m2.358-7.432c.308,0,1.317.158,1.317.8a.432.432,0,0,1-.146.25,1.9,1.9,0,0,0-.8-.432c-.175-.05-.416-.017-.557-.116-.125-.066-.083-.291-.141-.39a.864.864,0,0,1,.323-.108m-.265-.465c0-.074.062-.125.066-.207h.311a1.272,1.272,0,0,1,1.022.456v.208h-.191c-.3.007-.76-.316-1.171-.333,0-.041-.037-.066-.037-.125m2.267,3.928a1.527,1.527,0,0,1,.838,1.4.556.556,0,0,1-.29.564h-.149l-.027-.067-.061.067h-.025a.561.561,0,0,1-.038-.158c0-.067.087-.606.087-.682a3.465,3.465,0,0,0-.335-1.128m.431-.888c-.324,0-.2-.191-.755-.5-.408-.223-.868-.324-1.33-.522a1.408,1.408,0,0,1,.532-.116c.514,0,1.589.291,1.839,1-.177.066-.2.142-.286.142m-.656,1.809c0,.159-.083.507-.242.507-.074,0-.116-.042-.178-.075-.053-.374-.452-1.037-.452-1.221,0-.066.058-.1.108-.165.569.256.764.531.764.954m-1.984-2.656c.472,0,1.731.53,1.731,1.237,0,.15-.021.258-.15.258a7.56,7.56,0,0,1-1.722-1.487Zm.821,2.083a.8.8,0,0,1-.229.689c-.407-.307-.26-.788-.4-1.195-.07-.225-.411-.573-.536-.872h.133c.631-.009,1.029,1.213,1.029,1.378m-.556,1.768c0,.191.016.4-.282.44-.084-.407-.425-.847-.425-1.053,0-.066.033-.1.08-.167a.815.815,0,0,1,.627.78m-.528-1.6a1.99,1.99,0,0,1-.179.639,7.327,7.327,0,0,1-.449-1.561.9.9,0,0,1,.627.922m-.494,1.4c.215,0,.407.283.407.449v.648a.4.4,0,0,1-.174.041c-.259,0-.374-.789-.441-1.062a.426.426,0,0,1,.208-.076m3.837-1.395h.125a1.668,1.668,0,0,1,.8,1.395c0,.241-.084.624-.423.624-.183,0-.175.015-.395-.149.3-.342.3-.433.3-.706a2.89,2.89,0,0,0-.407-1.163m9.848,4.833a.88.88,0,0,1,.092-.009c.038,0,.091-.008.162-.016a3.214,3.214,0,0,1-2.528,1.751A5.651,5.651,0,0,1,303,503.8l-.277-.1,0-.009a2.771,2.771,0,0,0-.651-.233h-.021a2.238,2.238,0,0,0-1.014.207,3.086,3.086,0,0,0-.531.332,3.69,3.69,0,0,1,1.254-1.892,1.193,1.193,0,0,1,1.047-.324l1.478.282c.026.009.066.009.129.024l.2.034h.021c.033,0,.1-.016.153-.016a1.559,1.559,0,0,0,.561-.151,3.292,3.292,0,0,0,.88-.913c.008.266.025.582.025.7-.008.074-.017.132-.025.191-.008.033-.013.066-.025.1a3.615,3.615,0,0,1-.084.374l-.046.183Zm-.872-.308c.009-.033.016-.066.026-.1h0c0-.008.013-.058.029-.132.058.025.116.05.166.066.183.058.373.125.565.166Zm1.354.283h.007l.075.058.158-.241a.2.2,0,0,0,.041-.016,3.786,3.786,0,0,0,1.744.58,1.455,1.455,0,0,0,.573-.249c.15.049.556.249.847.391.009.009.021.009.033.017l-.108.042c-.183.074-.365.141-.548.2a7.512,7.512,0,0,0-1.942.9.941.941,0,0,0-.332.59,1.1,1.1,0,0,1-.4.706c-1.445,1.038-2.865,2.159-4.244,3.238-.768.606-1.562,1.22-2.346,1.827l0-.042c-.008-.108-.008-.182-.008-.182h-.008l-.1-1.437a2.029,2.029,0,0,0,1.316-.581,4.928,4.928,0,0,0,1.328-3.122c0-.415-.407-.789-.855-1.121a5.665,5.665,0,0,0,2.019.5c1.021,0,1.954-.647,2.839-1.992Zm-11.72,26.353.075.557-.615-.033-2,1.1.626.416.125.639-.257.091-.4-.746-1.433-1.073-1.2.547-3.33.109-1.241-.83-2.819-.581-1.3-.9-1.5-2.192h18.017a12.661,12.661,0,0,1-.727,1.412,16.935,16.935,0,0,1-1.122,1.561Zm.693.358c-.1.125-.207.249-.311.373l-.05-.4Zm-17.1-.183h-.435c-.3-.524-.607-1.113-.905-1.735h1.577c.042.074.082.15.133.232.15.233.308.482.481.722a3.817,3.817,0,0,1-.851.781m1.035-.532c.129.174.257.35.4.532h-.922a4.306,4.306,0,0,0,.524-.532m-2.526-1.5c-.248-.548-.494-1.136-.722-1.742h1.5a16.078,16.078,0,0,0,.781,1.742Zm-1.867-4.8c.025.134.05.258.075.382-.266-.124-.51-.248-.744-.382Zm-1.191-.29c-.174-.11-.338-.2-.445-.274a5.452,5.452,0,0,1-.573-.449h2.042c.038.249.084.482.122.724Zm1.067-2.748h1.134c.074.415.195,1.02.353,1.735H276.4c-.08-.573-.15-1.154-.212-1.734m-.767-13.436a5.977,5.977,0,0,0,1.416.149c.2,0,.332-.008.349-.008a9.971,9.971,0,0,0,2.346-.441,10.958,10.958,0,0,1,2.928-.531,7.678,7.678,0,0,1,2.027.365v.008a5.173,5.173,0,0,1,1.776,1.062c.074.292.382,1.77.851,1.77.262,0,.191-.356.191-.365a4.351,4.351,0,0,0-.146-.8.526.526,0,0,1,.257.166.168.168,0,0,0-.083.166,2.219,2.219,0,0,0,.411.8c-.186.083-.389.158-.6.241-.328-.134-1-.407-1.382-.532a7.56,7.56,0,0,0-1.77-.241l-.079-.017a7.336,7.336,0,0,0-.785-.042,7.539,7.539,0,0,0-2.349.291c-.092.025-.212.058-.383.108-.3.109-.706.241-1.254.391a13.5,13.5,0,0,1-1.611.34l0-.017-.191.041a1.819,1.819,0,0,1-1.59-.4,4.271,4.271,0,0,1-1.4-2.965.691.691,0,0,1,.016-.116,2.356,2.356,0,0,0,1.043.573m-.926-.863a5.649,5.649,0,0,1,.674-.566,7.385,7.385,0,0,0,.829-.688,3.3,3.3,0,0,1,.772.216,2.433,2.433,0,0,1,.636.356l0-.009a.354.354,0,0,0,.008.043,2.987,2.987,0,0,1-.565,1.362,6.25,6.25,0,0,1-1.362-.124,2.122,2.122,0,0,1-1-.589m10.17-5.921c.265.241.245.723.245.988a1.868,1.868,0,0,1-.233,1.154c-.009,0-.017,0-.013.009a3.652,3.652,0,0,1-.229-1.088,5.894,5.894,0,0,1,.23-1.063m-.247-.09H284.3c0-.117-.033-.283-.033-.35a4.17,4.17,0,0,1,.561-1.785.953.953,0,0,1,.088.439,3.71,3.71,0,0,1-.491,1.7m.573,2.465a2.252,2.252,0,0,1,.294,1.337c0,.074-.033.507-.071.781a.059.059,0,0,0-.041.023.844.844,0,0,1-.249-.314,6.567,6.567,0,0,1-.116-.981,1.358,1.358,0,0,1,.183-.846m.722-1.552v.49c-.506-.423-.506-1.039-.694-1.545l.046-.474a2.489,2.489,0,0,1,.648,1.529m-.548-3.272a2.361,2.361,0,0,1,.142-.565,2.032,2.032,0,0,1,.327,1.3,1.608,1.608,0,0,1-.112.764,2.813,2.813,0,0,1-.357-1.5m3.637,7.622c-.166-.082-.274-.946-.274-1.212a3.222,3.222,0,0,1,.208-.947A4.718,4.718,0,0,1,289,503.3a1.464,1.464,0,0,1-.2.9m.241-.017c.133.042.221.615.221.8a2.371,2.371,0,0,1-.358,1.361,2.962,2.962,0,0,1,.138-2.159m.54,3.671-.025-.009a.143.143,0,0,1,.037-.042.014.014,0,0,0,.013.009c.04.025.075.041.108.066a10.336,10.336,0,0,0,1.029.54l-.013.008.071.034h-3.022c.165-.065.314-.14.46-.215.756-.216,1.341-.39,1.341-.39m-.141-2.45a.772.772,0,0,1,.116-.381,2.716,2.716,0,0,1,.436,1.6,2.152,2.152,0,0,1-.046.482,3.332,3.332,0,0,1-.506-1.7m4.426,2.516a.152.152,0,0,1-.025-.041.8.8,0,0,1,.183-.05,4.259,4.259,0,0,1,.432-.026v-.009c.083,0,.165-.008.274,0h.017a5.36,5.36,0,0,1,1.886.209c.166.058.557.208.938.365a6.182,6.182,0,0,1-2.811.631,7.5,7.5,0,0,1-1.059-.05,2.74,2.74,0,0,1-.282-.034,9.876,9.876,0,0,1-1.088-.215c-.058-.025-.129-.048-.187-.066-.212-.058-.419-.15-.627-.224.385-.124.975-.315,1.37-.423v.008l.324-.058a1.134,1.134,0,0,0,.524.383l.083.017.058-.05c.066-.033.066-.124.066-.15a.462.462,0,0,0-.074-.217m-2.338.831h0c.129.051.262.083.395.133a.493.493,0,0,1,.108.033c.266.076.54.15.805.209.033.009.066.009.1.017a7.949,7.949,0,0,0,1.814.149c.016,0,.025.008.034,0a6.475,6.475,0,0,0,2.627-.54h1.823c.672.092,1.387.175,1.706.191l.046.615H290.611l.328-.531-.938.132-.258-.407Zm9.533,1.91h-2.732a.951.951,0,0,0-.667-.282h-.117a.843.843,0,0,0-.573.282H291.03a1.972,1.972,0,0,0-.441-.8h10.423l.037.548h-.005s.01.109.021.25m-23.738,1.112c.018-.283.026-.548.039-.78l0-.033h2.438a.654.654,0,0,0-.075.415.847.847,0,0,0,.158.357.325.325,0,0,0-.029.041Zm2.376.3a1.967,1.967,0,0,0-.142.806h-2.284c.008-.231.025-.514.034-.806Zm1.287-3.321a6.549,6.549,0,0,0,2.221.532v.008l1.412.017a9.942,9.942,0,0,0,2.421-.556h.664l.183.781c-.008.008-.025.025-.037.025h-10.41c.01-.082.027-.173.034-.29.012-.074.025-.174.033-.274.332-.058.8-.133,1.262-.241Zm-1.179-.291a2.443,2.443,0,0,0,.332-.107,2.406,2.406,0,0,0,.221.107Zm3.338.532a7.029,7.029,0,0,1-2.6-.755,7.063,7.063,0,0,1,2.582-.382c.12,0,.362.008.565.025a7.626,7.626,0,0,1-.548,1.113m.831.008H283.6l0-.008v-.2c0-.007,0-.017.007-.017.1.05.3.092.374.225m.432-.191h.3c.029.058.062.117.092.191a1.432,1.432,0,0,1-.183.009h-.13c-.024-.05-.05-.117-.082-.2m.664-.133a.54.54,0,0,1,.241-.116c.058,0,.158.173.266.306-.121.025-.233.049-.346.066a2.068,2.068,0,0,0-.162-.257m.74.133c.05-.216.12-.415.158-.613.34.107.548.131.547.357,0,.023-.025.04-.041.066-.225.066-.449.132-.664.191m3.214,1.345a.4.4,0,0,1-.391.4.366.366,0,0,1-.233-.1,1.918,1.918,0,0,1,.32-.68.405.405,0,0,1,.3.381m-.2-.971.041-.066.05.057a.306.306,0,0,1-.091.009m1.3.664a1.716,1.716,0,0,1,.7,1.385,1.753,1.753,0,0,1-1.283,1.7,2.536,2.536,0,0,0,.553-1.726,2.424,2.424,0,0,0-.519-1.653c.012.009.025.009.033.016a1.469,1.469,0,0,1,.312.151.792.792,0,0,1,.208.125m-.058-.407.3-.051-.108.165a.28.28,0,0,1-.055-.033h0c-.047-.026-.088-.058-.134-.082m1.021,1.519H296.8a.331.331,0,0,0-.017.124,1.119,1.119,0,0,0-.59.324.94.94,0,0,0-.207.365h-4.945a2.141,2.141,0,0,0,.079-.541c0-.09-.017-.183-.025-.273m6.495.481a1.386,1.386,0,0,1,.431.25.66.66,0,0,0,.075.066,1.406,1.406,0,0,1,.279.407,1.513,1.513,0,0,1,.074,1.005,1.018,1.018,0,0,1-.154.215c-.011-.033-.037-.066-.049-.1a2.4,2.4,0,0,0-.162-.307c-.046-.075-.079-.133-.125-.2a2.936,2.936,0,0,0-.428-.448,1.606,1.606,0,0,0-1.038-.382c-.082,0-.174,0-.249.008a.667.667,0,0,1,.167-.356,1.06,1.06,0,0,1,1.179-.159m-.511-.391a.514.514,0,0,1,.5-.373.674.674,0,0,1,.619.241.592.592,0,0,1,.141.391,1.006,1.006,0,0,1-.066.2,1.615,1.615,0,0,0-.581-.349,2.155,2.155,0,0,0-.383-.083c-.045-.009-.082-.009-.128-.017s-.062-.009-.1-.009m.012,3.4a.6.6,0,0,0-.009-.124,2.193,2.193,0,0,0-.091-.415,3.043,3.043,0,0,0-.2-.5c-.021-.05-.041-.074-.067-.125a1.824,1.824,0,0,0-.173-.274c-.035-.049-.067-.082-.1-.124a1.757,1.757,0,0,0-.179-.2,1.362,1.362,0,0,0-.116-.091,1.6,1.6,0,0,0-.221-.15.361.361,0,0,0-.074-.048.97.97,0,0,1,.27-.108,1.1,1.1,0,0,1,.361-.058,1.33,1.33,0,0,1,.851.316,2.473,2.473,0,0,1,.37.389c.02.025.045.051.066.074a2.435,2.435,0,0,1,.2.366.935.935,0,0,1,.028.1,1.6,1.6,0,0,1-.278,1.445,1.044,1.044,0,0,1-.769.391.278.278,0,0,0,.021-.067.953.953,0,0,0,.042-.133c.024-.082.042-.165.058-.249.009-.041.009-.084.017-.133a2.262,2.262,0,0,0-.008-.282m-4.817,1.6a.163.163,0,0,0-.033-.066.149.149,0,0,0-.017-.051.328.328,0,0,1,.033-.091.225.225,0,0,1,.033-.058l.009-.017a.484.484,0,0,1,.074-.09c.017-.009.025-.025.041-.034a.076.076,0,0,0,.021-.025.579.579,0,0,1,.116-.058c.014-.008.021-.017.033-.017s.017-.017.025-.017a.8.8,0,0,1,.2-.032.621.621,0,0,1,.621.623.566.566,0,0,1-.09.307.174.174,0,0,0-.026.042.574.574,0,0,1-.249.2l-.066.041a.732.732,0,0,1-.19.033.622.622,0,0,1-.483-.232.767.767,0,0,0,.017-.15.741.741,0,0,0-.075-.307m-.091-.6c-.016.017-.034.033-.05.05s-.021.016-.029.024a2.4,2.4,0,0,1-.178-.9c0-.964.573-1.744,1.27-1.744a1.318,1.318,0,0,1,1.155,1.047,1.161,1.161,0,0,0-.765-.431,1.48,1.48,0,0,0-1.424,1.469,1.843,1.843,0,0,0,.021.482m-2.7-.672a11.219,11.219,0,0,1-.021,1.744l-.3-.24c.017-.158.051-.549.074-.989l.009.017.013-.482c0-.116,0-.249,0-.365a2.839,2.839,0,0,0-.353-1.221.041.041,0,0,1,.033.017l.021.017a2.607,2.607,0,0,1,.469,1.154l.282.016a3.67,3.67,0,0,1,.549-1.137,3.943,3.943,0,0,1,.963-.714,4.6,4.6,0,0,1-.631,1.387,2.084,2.084,0,0,1-1.013.639l-.108.041Zm-1.118,1.346c0-.233-.249-.4-.614-.456v-.174h-.009a.272.272,0,0,0-.041-.117h1.243c-.021.35-.051.648-.067.815h-.5v-.067Zm-.855-.092a.542.542,0,0,0,.133-.082c.282.025.437.133.437.174,0,.025-.105.125-.312.166h0a1.03,1.03,0,0,1-.163.016c-.029,0-.049.009-.082.009v-.25c0-.017-.009-.024-.009-.033m-.447-4.259h-4.705a1,1,0,0,0-.207-.365,1.129,1.129,0,0,0-.59-.324.5.5,0,0,0-.02-.124h5.467a2.11,2.11,0,0,0-.029.273,1.947,1.947,0,0,0,.084.54m1.469-2.225h0a2.388,2.388,0,0,0-.522,1.661,2.521,2.521,0,0,0,.548,1.726,1.765,1.765,0,0,1-.025-3.387m-.415-.333.2.092a.089.089,0,0,0-.045.017.3.3,0,0,0-.062.033c-.021.009-.038.009-.058.017Zm.763,1.579a.6.6,0,0,0,.1-.058.683.683,0,0,0,.481.282.391.391,0,0,1-.282.664.387.387,0,0,1-.361-.249.648.648,0,0,0,.12-.365.794.794,0,0,0-.058-.274m1.13,2.375a3.2,3.2,0,0,0-.417.739,2.962,2.962,0,0,0-.274-.631,1.685,1.685,0,0,0,.453-.108Zm-1.179-.374a.665.665,0,0,0,.369-.29.84.84,0,0,0,.179.174,1.465,1.465,0,0,1-.332.308,1.177,1.177,0,0,1-.216-.191m.058,1.187h-.233a4.064,4.064,0,0,0-.274-.324,3.257,3.257,0,0,0-.635-.49h.593a1.072,1.072,0,0,0,.233.074,3.256,3.256,0,0,1,.316.739m.477-1.827-.062.009v-.009a.681.681,0,0,0-.033-.191.689.689,0,0,0,.469-.3c.013.009.013.017.025.017a2.575,2.575,0,0,1-.219.739.381.381,0,0,1-.179-.266m-.437-.224a.373.373,0,0,1,.088.224.4.4,0,0,1-.378.4,2.364,2.364,0,0,1-.3-.814.829.829,0,0,0,.254-.091.725.725,0,0,0,.336.282m-.614-.482a2.131,2.131,0,0,1-.016-.241,3.206,3.206,0,0,1,.028-.449.63.63,0,0,0,.237.066.427.427,0,0,1,.082.241.4.4,0,0,1-.332.382m-.516,1.428h-.689a.731.731,0,0,0-.116-.033l-.183-.05v.083H286.5a2.035,2.035,0,0,0-1.369-.805h2.039a2.028,2.028,0,0,0,.635.805m-.7,1.1h-.1a2.646,2.646,0,0,0-.294-.813h.117a2.28,2.28,0,0,0,.282.813m-2.425-1.91a1.915,1.915,0,0,0-.714.232,2.285,2.285,0,0,0-.648-.1,1.777,1.777,0,0,0-.532.075,1.122,1.122,0,0,0-.327-.208Zm-1.9.523a1.445,1.445,0,0,1,.54-.091,1.879,1.879,0,0,1,.307.017.769.769,0,0,0-.116.125c-.066.064-.124.132-.186.2a1.968,1.968,0,0,0-.13.183,1.927,1.927,0,0,0-.153.257c-.029.066-.058.124-.087.183a3.358,3.358,0,0,0-.114.349c-.011.05-.029.1-.037.158a2.306,2.306,0,0,0-.058.54,2.617,2.617,0,0,0,.049.514,1.086,1.086,0,0,0,.055.2,2.457,2.457,0,0,0,.078.282c.033.083.074.157.117.241.033.057.058.116.1.182a2.014,2.014,0,0,0,.166.233c.037.043.074.092.116.132a.637.637,0,0,0,.083.1h-.133a2.563,2.563,0,0,1-1.611-.987l-.009-.018a1.51,1.51,0,0,1-.219-.656c0-.057,0-.124,0-.181a1.6,1.6,0,0,1,.007-.183,1.759,1.759,0,0,1,.091-.381,2.846,2.846,0,0,1,.258-.59.617.617,0,0,1,.092-.141,1.461,1.461,0,0,1,.242-.3.729.729,0,0,1,.128-.124,1.831,1.831,0,0,1,.34-.208c.029-.007.055-.025.079-.033m.532,3.039c-.017-.042-.033-.075-.051-.117a2.1,2.1,0,0,1-.133-.373c-.008-.034-.025-.075-.033-.117a2.49,2.49,0,0,1-.054-.514,2.518,2.518,0,0,1,.062-.532c.009-.05.025-.1.033-.149a3.473,3.473,0,0,1,.142-.366c.021-.04.037-.082.057-.116a2.033,2.033,0,0,1,.275-.4.594.594,0,0,1,.091-.084,1.616,1.616,0,0,1,.262-.223,1.651,1.651,0,0,1,.943-.309,2.039,2.039,0,0,1,1.855,2.176,2.909,2.909,0,0,1-.05.514.081.081,0,0,1-.046.017,2.746,2.746,0,0,0,.046-.415,1.615,1.615,0,1,0-3.118,0,1.943,1.943,0,0,0,1.313,2v.066a1.686,1.686,0,0,1-1.005-.347,2.029,2.029,0,0,1-.32-.308.261.261,0,0,1-.035-.041,2.962,2.962,0,0,1-.235-.365m2.724-1.312a.989.989,0,0,0-.764-.266c-.494,0-.851.2-.851.482h0v.216a.257.257,0,0,0,.025.116.654.654,0,0,0-.066.076l-.025.024a.371.371,0,0,0-.082.216v.217a.352.352,0,0,0,.059.166c.007.025.033.042.049.066s.017.033.033.042a.521.521,0,0,0-.008.107v.249a2.057,2.057,0,0,1-.514-1.4c0-.964.573-1.744,1.267-1.744.656,0,1.19.69,1.258,1.561a1.153,1.153,0,0,0-.374-.124m.306.456s-.012.017-.019.026-.018.017-.029.025-.042.025-.059.041a.486.486,0,0,1-.134.042c-.012,0-.025.009-.041.009a.246.246,0,0,0,.058-.166v-.117c.149.051.223.109.223.142m-1.074-.058a.908.908,0,0,1-.229-.025h-.017c-.2-.049-.307-.124-.307-.157,0-.058.191-.182.556-.182.34,0,.528.108.544.173l0,.009c0,.042-.19.183-.552.183m.393.474a.711.711,0,0,1-.547.165c-.37,0-.557-.133-.557-.175,0-.008.017-.025.03-.041a.2.2,0,0,1,.053-.042l.009-.009a.9.9,0,0,0,.278.109,1.523,1.523,0,0,0,.336.033,1.569,1.569,0,0,0,.349-.033.108.108,0,0,1,.049-.008m-.771.722a1.022,1.022,0,0,1-.162-.083h.008a1.364,1.364,0,0,0,.378.049.537.537,0,0,0,.108-.016c.009,0,.017.008.026.008.007.017.025.025.041.042.009,0,.009.008.017.008s0,.017.012.017a.11.11,0,0,0-.07.033,1.032,1.032,0,0,1-.312-.05c-.021,0-.033-.008-.045-.008m.44.332a1.26,1.26,0,0,1,.37-.076h.129v.109a.282.282,0,0,0,.053.174.225.225,0,0,0,.029.041c.008.009.008.017.017.025a1.293,1.293,0,0,1-.183.017c-.365,0-.552-.125-.552-.174,0-.025.046-.075.137-.116m.569-.657a.038.038,0,0,0,0-.017.225.225,0,0,0,.05-.108c.033,0,.058-.017.091-.017a.778.778,0,0,0,.146-.032.433.433,0,0,0,.112-.043c.041-.017.083-.033.116-.049a.008.008,0,0,1,.008-.009c.041.025.066.033.083.058a.015.015,0,0,1,.013.009c.013.017.021.025.021.041,0,.042-.187.183-.556.183-.033,0-.054-.017-.088-.017m.32.507a1.038,1.038,0,0,0,.2-.051.419.419,0,0,0,.107-.032.766.766,0,0,0,.138-.092.132.132,0,0,0,.058-.033,1.134,1.134,0,0,1,.294.041.323.323,0,0,0,.083.033h.009c.008.009.017.009.025.018a.293.293,0,0,1,.053.041c.017.017.029.024.033.04h0c-.009.051-.195.184-.548.184-.075,0-.14-.017-.2-.017a.472.472,0,0,1-.05-.017.578.578,0,0,1-.261-.1c.021-.009.041-.009.058-.017m.95-.449c-.012,0-.021.009-.037.009s-.058-.009-.084-.017-.078-.017-.125-.025c-.029-.008-.058-.008-.086-.017v-.175a.282.282,0,0,0-.021-.108h.016l.091-.009c.334.009.515.141.524.191l-.009.017-.025.025a.274.274,0,0,1-.087.05.861.861,0,0,1-.158.057m.146-.563a1.749,1.749,0,0,0-.324-.059,2.643,2.643,0,0,0,.066-.514c0-.083-.016-.158-.024-.241h.249c.066.084.132.174.207.266a1.95,1.95,0,0,0,.74.549Zm.4-.731a2.566,2.566,0,0,1-.585-1.163,3.143,3.143,0,0,1,1.051.672,6.932,6.932,0,0,1,.813,1.03l.067.116a2.153,2.153,0,0,1-1.346-.656m1.184-.084h.055c0,.025.007.051.007.084a.462.462,0,0,0-.062-.084m2.745-1.1a2.638,2.638,0,0,0-.3.813h-.4a4.175,4.175,0,0,0,.4-.813Zm-.191-.291c.092-.282.15-.507.154-.523l.07-.282h1.536a2.053,2.053,0,0,0-1.37.805Zm-.142,1.843a1.11,1.11,0,0,0-.373-.074.944.944,0,0,0-.8.44h-.342c0-.075,0-.15-.007-.225a2.478,2.478,0,0,0,.938-.589h.589a2.284,2.284,0,0,0-.017.241,1.681,1.681,0,0,0,.017.207m-1.507.656h.229c0,.025-.016.058-.016.092a.765.765,0,0,0,.29.6c-.017.043-.017.084-.029.126h-.494c.013-.241.025-.524.021-.815m.5.092a.64.64,0,0,1,1.258,0c0,.009,0,.016,0,.025a.947.947,0,0,0-.266-.042,1.133,1.133,0,0,0-.448.092c-.042.017-.07.05-.108.067a1.007,1.007,0,0,0-.233.157c-.017.017-.041.025-.059.05a.506.506,0,0,1-.141-.349m.345.58a.869.869,0,0,1,.2-.173c.024-.017.045-.026.07-.042a.9.9,0,0,1,.369-.083,1,1,0,0,1,.312.057v.009h.007a.439.439,0,0,1,.1.05,1.11,1.11,0,0,1,.178.141.35.35,0,0,1,.071.091c.009.017.02.025.029.04a.517.517,0,0,1,.055.217.786.786,0,0,1-1.521,0,.522.522,0,0,1,.122-.308m2.164-.853a.834.834,0,0,0-.284.049.318.318,0,0,0-.041.017.064.064,0,0,0-.043.009,1.729,1.729,0,0,1,0-.275c.07-.7.569-1.254,1.113-1.2a1.13,1.13,0,0,1,.86,1.221.992.992,0,0,1-.013.108c0,.017-.013.042-.017.058a2.331,2.331,0,0,1-.108.324c-.025.059-.05.108-.075.158a1.131,1.131,0,0,1-.112.175c-.039.049-.076.108-.114.15a1.112,1.112,0,0,1-.26.232.934.934,0,0,0-.908-1.021m.759,1.411a1.283,1.283,0,0,0,.336-.175l.051-.025a1.856,1.856,0,0,0,.324-.323s0,0,.008-.008a2.184,2.184,0,0,0,.415-.981l.009-.007v-.034a2.327,2.327,0,0,0,.037-.423,1.618,1.618,0,1,0-3.127,0,2.888,2.888,0,0,0,.051.382.407.407,0,0,0-.063-.1,2.578,2.578,0,0,1-.029-.4,2.033,2.033,0,0,1,1.857-2.176,1.648,1.648,0,0,1,.943.308,2.016,2.016,0,0,1,.274.223.616.616,0,0,0,.074.075,2.4,2.4,0,0,1,.282.407c.017.033.033.075.047.108a1.711,1.711,0,0,1,.145.382c.013.041.024.091.037.133a2.592,2.592,0,0,1,.062.539,2.558,2.558,0,0,1-.059.506c-.008.05-.025.091-.033.133a2.726,2.726,0,0,1-.124.357c-.017.042-.033.084-.054.125a2.171,2.171,0,0,1-.253.382.63.63,0,0,1-.087.091c-.072.075-.145.15-.221.216a1.786,1.786,0,0,1-.95.366c.021-.025.029-.057.05-.083m.1-4.534h2.217a1.151,1.151,0,0,0-.332.208,1.742,1.742,0,0,0-.532-.075,2.2,2.2,0,0,0-.639.1,2.005,2.005,0,0,0-.714-.232m1.274,4.2a.308.308,0,0,0,.044-.058,1.69,1.69,0,0,0,.233-.316c.007-.017.017-.033.025-.05a2.913,2.913,0,0,0,.175-.365c.017-.041.025-.092.038-.133a2.349,2.349,0,0,0,.086-.332,2.494,2.494,0,0,0,.05-.506,2.945,2.945,0,0,0-.053-.539c-.013-.058-.035-.118-.046-.175-.034-.107-.066-.224-.109-.324a1.808,1.808,0,0,0-.1-.2,2.3,2.3,0,0,0-.137-.242c-.041-.066-.091-.133-.142-.2s-.107-.116-.165-.173a.947.947,0,0,0-.125-.141,1.725,1.725,0,0,1,.3-.017,1.415,1.415,0,0,1,.541.091.5.5,0,0,1,.091.042,1.534,1.534,0,0,1,.324.191c.05.041.1.092.149.133a2.519,2.519,0,0,1,.221.282,1.644,1.644,0,0,1,.112.166,3.607,3.607,0,0,1,.249.581,2.242,2.242,0,0,1,.092.39v.108a1.288,1.288,0,0,1,.009.248,1.672,1.672,0,0,1-.051.259c-.008.024-.008.057-.017.082-.017.041-.047.092-.066.133a.882.882,0,0,1-.1.191,2.5,2.5,0,0,1-1.608,1h-.133a1.582,1.582,0,0,0,.105-.124m-3.3-4.2-.241.108a5.516,5.516,0,0,0-1.1.7H290.3a2.053,2.053,0,0,0,.648-.805Zm-2.168-2.864.142-.109.124.183a1.531,1.531,0,0,0-.265-.074m-.274-.15-.249-.308h.617Zm-.15.423a1.623,1.623,0,0,1,.706,1.2.4.4,0,0,1-.2.068.39.39,0,0,1-.349-.233.706.706,0,0,0,.116-.366.678.678,0,0,0-.373-.606.957.957,0,0,1,.1-.066m-.507-.4-.755-.332h.955Zm-1.025.781a2.078,2.078,0,0,0-.444.8h-5.707a.819.819,0,0,0-.568-.283h-.112a.96.96,0,0,0-.673.283h-2.633c.008-.157.021-.391.042-.8Zm-6.249,1.187c-.033,0-.066.009-.1.009s-.083.009-.128.016a1.947,1.947,0,0,0-.377.084,1.581,1.581,0,0,0-.581.34.466.466,0,0,1-.067-.191.541.541,0,0,1,.142-.39.636.636,0,0,1,.532-.25c.024,0,.05.009.083.009a.51.51,0,0,1,.5.373m-1.3,1.114a1.33,1.33,0,0,1,.287-.416.276.276,0,0,0,.062-.057,1.452,1.452,0,0,1,.433-.25,1.529,1.529,0,0,1,.311-.084c.051,0,.1-.007.146-.007.029,0,.058-.009.091-.009a.928.928,0,0,1,.636.259.683.683,0,0,1,.17.356c-.082-.008-.17-.008-.249-.008a1.567,1.567,0,0,0-1.039.382,2.761,2.761,0,0,0-.436.456c-.037.05-.07.108-.1.157a2.268,2.268,0,0,0-.183.366c-.007.025-.033.049-.041.075a.81.81,0,0,1-.158-.216,1.462,1.462,0,0,1,.074-1m.366,1.319a1.059,1.059,0,0,1,.029-.107,2,2,0,0,1,.212-.374.573.573,0,0,1,.046-.058,2.573,2.573,0,0,1,.377-.4,1.339,1.339,0,0,1,.856-.316,1.085,1.085,0,0,1,.357.058,1.064,1.064,0,0,1,.274.108c-.021.008-.033.025-.05.033a1.22,1.22,0,0,0-.258.166c-.034.033-.07.058-.1.091a2.3,2.3,0,0,0-.191.2,1.2,1.2,0,0,0-.1.124c-.049.075-.1.159-.146.241-.033.058-.065.108-.09.157a3.555,3.555,0,0,0-.2.5,2.678,2.678,0,0,0-.09.415c0,.041,0,.074-.009.116a2.128,2.128,0,0,0,0,.29c0,.05.013.083.013.125a2.551,2.551,0,0,0,.058.249c.012.05.025.1.041.149a.2.2,0,0,1,.025.058,1.064,1.064,0,0,1-.772-.39,1.6,1.6,0,0,1-.274-1.437m.34,1.894a1.656,1.656,0,0,0,.88.233,2.361,2.361,0,0,0,.605.582H277.32c-.013-.274-.025-.548-.033-.814Zm2,1.113v-.009a2.713,2.713,0,0,0,.656.207,1.343,1.343,0,0,0,.178.008,1.577,1.577,0,0,0,.332-.049,1.916,1.916,0,0,0,1.055.332c.1,0,.2-.016.3-.025a1.259,1.259,0,0,0,.54.108,1.305,1.305,0,0,0,.506-.1.8.8,0,0,0,.706.332h-9.583c-.017-.257-.033-.523-.042-.805Zm4.124.282c-.012,0-.017-.009-.029-.009.079-.007.157-.025.229-.032a.594.594,0,0,0,.17.05.587.587,0,0,1-.121.016,1.1,1.1,0,0,1-.249-.025m1.092.059v-.059a.62.62,0,0,0,.428-.282h.631l.739.581.033-.258c0-.016.018-.141.025-.323h.515a.988.988,0,0,0,1.021.764,1.09,1.09,0,0,0,.906-.464.893.893,0,0,0,.615.239.868.868,0,0,0,.364-.074c.092.009.179.025.262.025a1.9,1.9,0,0,0,1.055-.332,1.536,1.536,0,0,0,.327.049,1.576,1.576,0,0,0,.183-.007,2.605,2.605,0,0,0,.647-.207v.008h5.439c-.021.283-.041.548-.062.805H287.16c.432-.025.743-.207.743-.464m8.276-.639a2.238,2.238,0,0,0,.605-.581,1.688,1.688,0,0,0,.888-.233h3.48c-.009.266-.025.54-.042.815Zm1.81-1.1a1.9,1.9,0,0,0,.357-.815H301.2c-.008.249-.017.524-.034.815Zm.39-1.105a1.751,1.751,0,0,0-.025-.3.886.886,0,0,0,.365-.4c.009-.025.022-.075.033-.116h2.463c0,.016,0,.041,0,.057.005.125.005.4-.007.755Zm.411-1.1a1.888,1.888,0,0,0-.145-.805h2.508c.017.291.033.574.046.805Zm-.3-1.1c-.008-.017-.024-.033-.032-.051a.862.862,0,0,0,.157-.348.718.718,0,0,0-.075-.415h2.542c.007.24.029.516.05.814Zm-10.1-9.682a5.5,5.5,0,0,1-.407-1.628,1.5,1.5,0,0,1,.1-.506,2.677,2.677,0,0,1,.419,1.61.837.837,0,0,1-.117.524m-.171,5.837c-.1.051-.212.108-.328.158a1.772,1.772,0,0,1-.4-.682,1.858,1.858,0,0,1,.727.524m-.4-7.946c-.42-.191-.747-1.412-.747-1.811a.935.935,0,0,1,.05-.232,2.874,2.874,0,0,1,.743,1.726c0,.266-.029.266-.046.316m-.1,6.625v.175H287.6c-.311,0-1.2-1.4-1.2-1.52v-.183a5.641,5.641,0,0,1,1.308,1.528m-2.013-3.694a3.854,3.854,0,0,1,1.005,1.645,4.271,4.271,0,0,1-1.005-1.645m.34,2.316v.532a2.723,2.723,0,0,1-.548-1.461l.049-.5a3.758,3.758,0,0,1,.5,1.428m.357.731a3.611,3.611,0,0,1,.813,1.694v.358c-.647-.1-.7-1.13-.872-1.694Zm.469-7.788s-.012.033-.09.033c-.378,0-.847-1.4-.909-1.785v-.165c.29.05,1,1.445,1,1.777Zm-.739,4.053v.282a3.106,3.106,0,0,1-.926-1.794c0-.066.025-.074.051-.158a4.592,4.592,0,0,1,.875,1.67m-8.869,11.018c0-.017,0-.05,0-.074H279.6a.483.483,0,0,0,.037.116.913.913,0,0,0,.365.4,1.376,1.376,0,0,0-.025.3h-2.724c0-.341,0-.606,0-.739m2.752,1.029a1.865,1.865,0,0,0,.358.815h-3.089c-.009-.291-.016-.565-.021-.815Zm-2.267,7c.125.54.278,1.13.449,1.744H277.2c-.165-.058-.323-.124-.484-.2q-.157-.735-.274-1.545Zm-.573,2.035a3.857,3.857,0,0,0,1.187.266c.149.5.312.987.49,1.476h-1.5c-.059-.164-.125-.323-.183-.5-.126-.365-.233-.789-.341-1.245Zm.34-4.708c-.041-.266-.074-.624-.108-1.013h23.6c-.037.39-.074.738-.116,1.013a36.229,36.229,0,0,1-1.94,7.165h-9.235l.561-.747-.178-.788c.34.066.532.091.631.108a1.865,1.865,0,0,0,.466.772,1.305,1.305,0,0,0,.813.233,2.811,2.811,0,0,0,.635-.076l.047-.017.572-.506-1-.931a25.014,25.014,0,0,0-.531-4.085c-.294-1.445-.855-2.126-1.745-2.126a3.953,3.953,0,0,0-1.519.432,7.874,7.874,0,0,0-1.993,1.1l-.041.032-.191,1.512.609.04-.652,2.351.13-.009a3.115,3.115,0,0,0,1.573.714l-.312,1.188.561.8h-8.7a35.454,35.454,0,0,1-1.934-7.165m10.919,4.292h.391l-.174,2.873h-.133l-.611-.856Zm-1.71.125c.332-.033.864-.092,1.412-.116l-.158.6a4.389,4.389,0,0,1-1.254-.481m1.935-.423c-.759,0-1.657.091-2.055.133l.555-2.026a15.6,15.6,0,0,1,2.554-1.4c.656-.2,1.034.847,1.047.847l.274-.092c-.025-.058-.481-1.3-1.407-1.038a16.356,16.356,0,0,0-2.629,1.42l-.428-.025.138-1.087a8.25,8.25,0,0,1,1.872-1.038,4.156,4.156,0,0,1,1.406-.391c.458,0,1.114.2,1.453,1.884a23.444,23.444,0,0,1,.532,4.094v.066l.855.8-.274.249a3.793,3.793,0,0,1-.54.058.985.985,0,0,1-.635-.175,3.327,3.327,0,0,1-.619-1.568l-.009-.026-.013-.024c-.028-.05-.3-.5-1.361-.615a3.7,3.7,0,0,0-.718-.049m1.968,1.427c-.116-.016-.3-.04-.589-.1l-.2-.9a1.347,1.347,0,0,1,.635.357c.021.1.072.349.154.639m-1.287-1.1a.981.981,0,0,1,.178.041l.453,1.993-.615.814h-.141l-.025-2.857c.05,0,.108.009.15.009m8.354,5.662a4.427,4.427,0,0,0,.518.532h-.916c.14-.182.273-.357.4-.532m.183-.249c.17-.241.336-.49.481-.722.046-.082.092-.158.134-.232h1.585c-.307.622-.606,1.212-.9,1.735h-.449a3.644,3.644,0,0,1-.847-.781m.781-1.246a15.08,15.08,0,0,0,.785-1.742h1.5c-.229.606-.474,1.194-.726,1.742Zm.9-2.034c.179-.49.345-.979.49-1.477a3.84,3.84,0,0,0,1.187-.266h.344c-.108.456-.216.88-.34,1.245-.058.174-.125.333-.182.5Zm1.657-2.034H300.2c.175-.615.324-1.2.449-1.744h1.3c-.076.54-.171,1.055-.274,1.552-.158.066-.312.133-.465.191m-.489-2.034c.16-.715.281-1.32.356-1.735h1.129c-.062.58-.132,1.162-.212,1.735Zm1.36,1.3h.681c-.232.134-.49.266-.756.391.025-.125.05-.257.074-.391m.046-.29c.046-.242.087-.474.121-.723H304.3a6.032,6.032,0,0,1-.578.449c-.107.074-.266.165-.432.274Zm.114-3.057h-1.11a2.972,2.972,0,0,0,.047-.3c.05-.3.092-.715.133-1.187.157-.033.482-.116.88-.241h.2c-.043.549-.091,1.138-.149,1.727m1.254-13.958a2,2,0,0,1-1.137.7,5.106,5.106,0,0,1-1.155.058c-.046-.066-.087-.125-.133-.183a2.864,2.864,0,0,1-.6-1.154,3.453,3.453,0,0,1,.7-.474,1.9,1.9,0,0,1,.856-.158c.108.09.249.2.42.316a4.259,4.259,0,0,1,1.049.9m-10.463.225c-.029.009-.058.024-.091.033a.237.237,0,0,1-.017-.075.873.873,0,0,1,.092-.09c0,.04.013.09.017.132m-.847.324c-.016.008-.038.008-.059.016.009-.016.025-.05.051-.09,0,.024.008.049.008.074m-.489.407c-.076.058-.13.066-.191.108l-1.1-.689c.071-.167.166-.349.357-.391Zm-.528.29c-.27.225-.569.4-.889.615-.07-.374-.09-.839-.154-1.221Zm.843-.3.254.257-.062-.35a1.37,1.37,0,0,1,.15-.049l.011.017.08-.042a.119.119,0,0,1,.045-.017c.1-.034.187-.066.257-.1.1-.05.253-.108.4-.167l.1-.033c.142-.057.278-.091.407-.142a.055.055,0,0,0,.025-.008,2.529,2.529,0,0,0,.249-.067,3.758,3.758,0,0,1,.531-.14,1.47,1.47,0,0,1,.191-.025,5.214,5.214,0,0,1,.98-.116,10.42,10.42,0,0,1,2.706.531,13.909,13.909,0,0,0,2.342.507v.008c.021,0,.375.041.818.041a5,5,0,0,0,.914-.074,2.279,2.279,0,0,0,1.175-.648,4.642,4.642,0,0,1-1.241,2.849,1.612,1.612,0,0,1-1.259.49l-.166-.009a20.528,20.528,0,0,1-2.923-.423c-.565-.258-1.312-.506-1.346-.514v.008a5.686,5.686,0,0,0-1.9-.208h-.017c-.2,0-.365.008-.5.017h0c-.038,0-.074.008-.1.008-.286.025-.593.058-.842.1,0,0-.008-.016-.017-.016a13.542,13.542,0,0,0-2.18.639,8.917,8.917,0,0,1-1.216-.639c-.017,0-.039-.017-.058-.026a8.447,8.447,0,0,1,2.2-1.66m-1.985-1.237s-.016.033-.082.033c-.383,0-.632-1.2-.74-1.661l.05-.316a4.75,4.75,0,0,1,.772,1.661Zm-.332-2.276a4.427,4.427,0,0,1-1-1.686v-.173a4.474,4.474,0,0,1,1,1.611Zm-.643-2.225h-.12a6.564,6.564,0,0,1-1.122-1.546v-.165a4.372,4.372,0,0,1,1.242,1.545Zm-.785-1.928h-.108c-.415,0-1.246-1.169-1.337-1.552.27.092,1.453,1.112,1.445,1.387Zm-1.253-1.843c-.08,0-1.549-.763-1.549-1.1s1.366.473,1.809,1.088Zm-2.267-.9a1.437,1.437,0,0,1-.274-.54c0-.282.561-.607.768-.607.3,0,.6,0,.6.332,0,.507-1.266.126-1.1.815m.078.29c.216-.149-.016-.515.37-.573v.159a3.518,3.518,0,0,1-.964,1.726s-.116-.016-.116-.083a7.779,7.779,0,0,1,.54-1.337c.05-.017.125.058.17.108m-14.81,6.386H270c.2-.1.391-.2.6-.308.24-.132.481-.249.739-.374,0,.051.016.092.021.133.033.2.078.449.111.648Zm7.082,15.261c.037.465.074.881.124,1.187,0,.026.021.141.05.3h-1.114c-.057-.589-.107-1.178-.149-1.727h.209c.407.132.73.208.88.241m-1.08,2.8c.029.25.058.49.092.731H273.8c-.082-.083-.157-.167-.232-.258-.021-.157-.034-.307-.054-.473Zm-2.325,1.021a5.509,5.509,0,0,0,.83.682.279.279,0,0,1,.062.042h-.835c-.037-.242-.074-.483-.108-.724Zm1.37,1.013a14.517,14.517,0,0,0,1.37.73h-2.5c-.046-.231-.092-.481-.134-.73Zm1.461,1.022c.058.258.12.5.183.73h-2.548c-.063-.233-.117-.472-.171-.73Zm.27,1.02c.029.108.055.225.092.324.045.132.1.257.145.4h-2.575c-.017-.049-.033-.09-.049-.141-.062-.174-.116-.373-.175-.581Zm.349,1.015c.1.248.183.489.278.73h-2.583c-.1-.241-.183-.482-.274-.73Zm.4,1.02c.108.241.208.491.316.722h-2.591c-.108-.241-.207-.481-.311-.722ZM278,527.37c.116.24.236.489.357.73h-2.6c-.121-.241-.241-.481-.357-.73Zm.506,1c.133.257.261.5.389.731H276.28c-.125-.241-.258-.474-.39-.731Zm.564,1.039c.008,0,.008.007.017.016a4.516,4.516,0,0,1-2.482.258c-.051-.092-.1-.183-.159-.274Zm-1.628.622a4.446,4.446,0,0,0,1.795-.348c.086.15.174.307.256.439h-2.628c-.021-.041-.054-.091-.074-.132a5.647,5.647,0,0,0,.651.041m2.243.383c.165.265.323.506.464.721h-2.644c-.146-.215-.294-.456-.457-.721Zm.664,1.013c.116.165.224.316.315.441.071.1.133.182.2.282h-2.657a.549.549,0,0,0-.058-.083c-.122-.167-.274-.391-.449-.64Zm.548.274c-.059-.074-.13-.183-.2-.274h2.018c-.282.266-.714.656-1.23,1.079-.174-.24-.365-.506-.589-.805m-.4-.566c-.282-.414-.627-.945-1-1.577.1-.05.183-.1.27-.148h1.577c.465.573.98,1.154,1.519,1.726Zm-.207-3.686a12.31,12.31,0,0,1-.722-1.411h.893l1.648,2.4,1.387.971,2.823.581,1.267.847,1.856-.067-1.391.166-.461.416h-.752l-.494.665-.149.447-.715.15-.037.042s-.141.224-.245.373a29.623,29.623,0,0,1-4.907-5.58m13.817,3.14,1.5-.831.738.034c-.539.638-1.124,1.261-1.735,1.875l-.179-.871Zm2.94-1.179h1.566a2.964,2.964,0,0,0,.278.157c-.373.623-.714,1.155-1,1.569h-2.362c.54-.571,1.051-1.153,1.515-1.726m.648,2.017c-.066.091-.141.2-.2.274-.216.3-.415.565-.585.805-.511-.423-.943-.813-1.226-1.079Zm-.167.723c.068-.1.134-.183.209-.282l.306-.441H300.7c-.17.249-.328.473-.444.64a.729.729,0,0,0-.066.083Zm.715-1.015c.15-.215.3-.456.469-.721h2.637c-.162.265-.316.506-.457.721Zm.655-1.012c.084-.133.167-.282.25-.424a4.57,4.57,0,0,0,2.445.308c-.021.043-.041.075-.062.116Zm.408-.689a.048.048,0,0,0,.012-.017l2.633-.007c-.055.091-.108.182-.162.274a4.512,4.512,0,0,1-2.483-.249m.191-.332c.134-.233.266-.474.4-.731h2.611c-.133.257-.261.49-.39.731Zm.54-1c.124-.242.241-.491.357-.731H303c-.117.249-.237.489-.353.731Zm.5-1.023c.1-.231.208-.481.312-.722h2.588c-.1.241-.209.482-.313.722Zm.441-1.011c.1-.242.186-.483.278-.731h2.566c-.087.248-.17.489-.266.731Zm.385-1.023c.051-.141.1-.266.15-.4.033-.1.058-.217.091-.325h2.558c-.059.208-.117.408-.179.582-.016.05-.033.092-.05.141Zm.324-1.013c.066-.233.124-.472.182-.73h2.538c-.054.258-.112.5-.171.73Zm.274-1.021a14.056,14.056,0,0,0,1.371-.731H304.6c-.045.25-.088.5-.137.731Zm1.853-1.021a.19.19,0,0,1,.062-.042,5.586,5.586,0,0,0,.827-.681h.049c-.032.24-.066.481-.108.723Zm.781-1.013H302.29c.033-.241.066-.482.092-.731h2.507c-.021.165-.038.324-.058.473-.076.091-.154.175-.233.258m-2.176-4.16c-.1.033-.195.066-.282.1h-.789l.051-.73,1.112-.747c-.026.423-.058.88-.092,1.378m10.532-13.908a.843.843,0,0,1-.083.125l-.017-.009a1.137,1.137,0,0,0,.1-.116m-21.9-9.865a1.507,1.507,0,0,1,.689-1.245,24.427,24.427,0,0,1,4.053-.657,3.8,3.8,0,0,1,1.62.3c.484.234,11.464,6.536,11.462,7.955,0,.059-.091.282-.091.35,0,.017,2.583,1.08,2.583,1.561,0,.158-.315.175-.357.175-.341,0-1.894-1.22-2.6-1.429a3.815,3.815,0,0,0-.436,0,1.459,1.459,0,0,0,.274.308c.805.465,1.756,1.387,2.566,1.461a3.921,3.921,0,0,1,2.014.706.723.723,0,0,0-.258.051l-.66.273c-.88-.3-3.375-1.686-3.571-1.777.009,0-.016.017-.016.09,0,.548,1.379,1.014,1.548,1.105a.454.454,0,0,1-.245.117,5.773,5.773,0,0,1-1.4-.491c-.162-.074-.378.009-.548-.025a5.219,5.219,0,0,1-1.134-.424c0-.173-.016-.381-.029-.548a1.039,1.039,0,0,0,.041-.116c.316.15.49.308.747.308h.473s.021,0,.021-.051c0-.232-.66-.306-.718-.34-.27-.175-.528-.441-.785-.623a.8.8,0,0,0-.195.007c.042.084.108.233.191.373l-.058.092-.112.15a.093.093,0,0,1-.029.041c-.1.133-.187.258-.273.365-.084-.009-.212-.033-.276-.033-.29,0-.12.232-.48.232-.631,0-1.881-.971-2.093-.971-.112,0-.357.15-.465.15-.5,0-1.428-.465-1.5-1.122-.108.2-.2.183-.274.183-.632,0-1.005-1.138-1.728-1.1.034-1.1-1.444-1.288-1.444-2.243a.255.255,0,0,1,.215-.257c.316,0,.731.523,1,.523.179,0,.219-.059.219-.158,0-.223-.314-.349-.314-.465a.253.253,0,0,1,.075-.174,14.328,14.328,0,0,0,1.864.88c.88.3,1.615,1.7,2.3,1.7.207,0,.149-.2.149-.216,0-.075-.033-.191-.05-.307,1.138,1.229,2,2.1,3.073,2.1.215,0,.423.025.423-.191,0-.506-.88-.348-.955-.506.452-.739-1.761-.689-1.761-1.421a.281.281,0,0,1,.3-.282c.464,0,2.611,2.019,3.691,2.019.132,0,.24.058.24-.141,0-.9-1.611-1.113-1.942-1.271a3.28,3.28,0,0,1-1.334-.8,1.514,1.514,0,0,1-.1-.117c-.29-.623-.1-1.56-1.092-1.56-.138,0-.207.066-.207.165,0,.359.876.648.876.863a.948.948,0,0,1-.046.191c-.523-.348-1.338-1.187-1.9-1.187-.091,0-.332.066-.332.175,0,.207.793,1,.865,1.187-.5-.116-1.122-.075-1.445-.565-.478-.722-1.321-1.768-2-1.768a.672.672,0,0,0-.326.116c.312.207.69.415,1.051.689v.132c-.813-.165-1.707-.455-2.545-.572-.138-.016-.3-.183-.428-.324v-.116h.225c.282-.008.839.34,1.1.34a.831.831,0,0,0,.3-.074c-.07-.266-.54-.573-.611-.9h.167c.074,0,.635.208.706.208.157,0,.145-.076.145-.125,0-.274-.693-.589-.751-.631-.009-.034.066-.116.137-.116.653,0,2.52,1.635,3.148,1.635.1,0,.336-.025.336-.132,0-.681-1.577-1.055-1.8-1.179-.817-.431-1.561-1.112-2.412-1.112-.723,0-.133,1.071-.851,1.071-.2,0-1.341-.275-1.341-.889,0-.233.431-.166.431-.515,0-.142-.548-.232-.569-.232-.374,0-.485.7-.926.7-.153,0-.261-.009-.522-.258.248-.165.734-.067.734-.474,0-.223-.1-.324-.287-.324-.4,0-1.254.823-1.51.823-.08,0-.574-.141-.649-.141-.173,0-.456.165-.456.332,0,.074.017.1.092.1h.752a.778.778,0,0,1,.287.117c0,.431.457.639.457.847s-.735-.009-.735.4,1.05.191,1.05.647c0,.183-.639.308-.639.456s.381.39.381.581c0,.406-.855-.058-.855.274,0,.082.237.373.237.448,0,.316-.468.423-.569.423-.133,0-.415-.032-.481-.158a.679.679,0,0,0,.531-.664c0-1.213-1.324-1.944-1.324-2.99m.726,5.829a1.5,1.5,0,0,1,.266.69c0,.182-.217.688-.478.688-.07,0-.128-.092-.191-.166.146-.407.254-.806.4-1.212m-1.636-3.081c-.074.1-.29.266-.3.391v.024a.763.763,0,0,1,.386-.2c.847,0,1.122.831,1.121,1.387a2.109,2.109,0,0,1-.387,1.187,2.394,2.394,0,0,1-.178-.441c-.132.167-.021.449-.055.623l-.094.084a3.183,3.183,0,0,1-.25-.357c-.057.149-.054.464-.245.647a3.123,3.123,0,0,0-.17-.464c-.108.149-.078.464-.3.64-.046-.2-.1-.4-.133-.59a1.324,1.324,0,0,1-.361.763c-.05-.233-.108-.456-.141-.639a1.387,1.387,0,0,1-.141.373c-.17-.208-.37-.472-.615-.747.178-.166.14-.217.14-.291s-.082-.274-.082-.349a2.157,2.157,0,0,1,.207-.407s.017-.017-.05-.017-.208.116-.306.174c-.167-.182-.37-.381-.59-.58.141-.092.279-.142.39-.208a1.893,1.893,0,0,0-.353-.092c-.078,0-.2.059-.32.074.051-.082.4-.457.523-.457.291,0,.257.881.474.922.382.1.639.373.8.373.406,0,.34-.273.34-.473a3.022,3.022,0,0,1,.261-.689,4.635,4.635,0,0,0-.41-.639,5.354,5.354,0,0,1,.846-.025M287.7,493.9c.183,0,.69.249.69.539v.541c0,.357.934,1.179,1.171,1.469a1.111,1.111,0,0,0-.332.864c-.05.008-.058.034-.108.066a.813.813,0,0,0-.752-.273c0-.482-.324-1.627-1.15-1.627-.074,0-.472.057-.54.057a5.33,5.33,0,0,1-.8-.464c.149-.133.112-.216.112-.358,0-.058-.062-.249-.079-.349l.017-.058c.125-.074,1.76-.406,1.777-.406m-22.057,8.394c-.066,0-.922.415-.987.415s-.034-.033-.116-.033v-.232c0-.373,1.12-.789,1.137-.789,1.37.149,2.607-1.08,3.439-1.528.1-.05.133-.15.191-.249-.034.017-.087-.009-.167-.009-1.07,0-2.286,1.4-2.906,1.4a1.661,1.661,0,0,1-.353-.109c.594-.847,1.516-1.087,2.18-1.618.78-.649,1.05-1.445,1.9-2.035a69.11,69.11,0,0,1,7.378-4.775c.848-.423,1.728-.847,2.583-1.2a8.665,8.665,0,0,1,3.114-.756c.664,0,3.106.283,3.106,1.637a1.173,1.173,0,0,1-.191.756.753.753,0,0,0-.466.258c-.256.058-.489.108-.489.524a1.1,1.1,0,0,0,.058.248c-.472.266-.756.373-.756.773a5.571,5.571,0,0,0,.286.647c0,.307-.353.381-.452.381-.212,0-.3,0-.3-.216s.374-.348.374-.572c0-.134-.615-.316-.615-.415,0-.515,1.047-.308,1.047-.731,0-.49-.889-.15-1.1-.249.107-.3.847-.482.847-.846,0-.249-.4-.167-.473-.233a.48.48,0,0,1,.241-.083c.07,0,.627.083.7.083.273,0,.531.026.531-.324,0-.216-.037-.307-.253-.307-.278,0-.453.382-.644.382-.32,0-1.134-.88-1.565-.88-.262,0-.262.308-.262.4,0,.257.652.365.731.424a.739.739,0,0,1-.523.258c-.474,0-.457-.732-1.039-.732-.174,0-.456.158-.456.257,0,.359.411.175.411.491,0,.581-1.233.871-1.345.871-.676,0-.08-1.087-.968-1.087-.768,0-1.308.54-2.155,1-.652.373-1.577.373-1.972,1.22.19.142.161.157.324.157.474,0,2.74-1.61,3.131-1.61h.141c0,.057,0,.057.067.066-.125.148-.793.382-.793.656a.136.136,0,0,0,.157.15c.075,0,.569-.15.889-.2a8.615,8.615,0,0,1-.639.9.879.879,0,0,0,.3.066c.34,0,.682-.316.959-.316h.373c-.254.582-.884.424-1.312.524-.519.124-1.091.332-1.656.431,0,0-.042-.017-.042-.1,0-.215.938-.565,1.079-.689a.447.447,0,0,0-.381-.116c-.607,0-1.554,1.087-1.944,1.71-.257.424-.955.424-1.354.565h-.116c.058-.282.9-1.039.9-1.171,0-.2-.353-.2-.369-.2-.6,0-1.287.9-1.894,1.138a.108.108,0,0,1-.053-.108c0-.4.884-.49.884-.938,0-.191-.133-.149-.2-.149a.747.747,0,0,0-.767.588,1.666,1.666,0,0,0-.112.407c.012,1.6-3.672,1.354-3.672,2.724,0,.157.2.082.239.082,1.286,0,3.263-1.925,3.732-1.925.212,0,.311.114.311.272,0,.615-1.6.474-1.809,1.411-.142.084-.948-.007-.948.508,0,.082.026.092.072.15h.684c.8-.01,2.092-1.5,2.773-2.01-.017.141-.049.233-.049.307a.164.164,0,0,0,.145.182c.536,0,1.121-.906,1.715-1.336a11.438,11.438,0,0,1,2.508-1.121c.049.033.055.025.055.1,0,.092-.32.316-.32.482,0,.207.116.174.225.174.34,0,.677-.523.946-.523.233,0,.266.174.266.306,0,.757-1.138,1.023-1.437,1.8-.066.2.013.522-.174.522-.076,0-.207-.067-.282-.067-.482,0-.573.565-1.113.864-.158.091-.373-.041-.524.049-.3.166-1.187.856-1.549.856-.079,0-.444-.158-.518-.158a6.241,6.241,0,0,1-1.985.823c-.378,0-.315-.241-.614-.241a24.91,24.91,0,0,1-3.633,1.535c-.2,0-.191.018-.5-.181a3.063,3.063,0,0,0,1.466-1.054v-.1s.042-.009-.034-.009a26.492,26.492,0,0,1-2.948,1.487c-.078,0-.224-.092-.3-.092m3.662,3.871a1.22,1.22,0,0,1-.8-.108c-.125-.149-1.569-1.869-2.483-2.974,1.312.565,3.4,1.388,3.6,1.471.087.058.1.216.12.373a.745.745,0,0,0,.194.541c2.185,1.885,4.626,3.678,7.146,5.5,0,.066,0,.133-.008.207l-6.825-5.056-.171.232,3.488,2.59c-.026.308-.108,1.5-.1,2.284,0,.515.051,1.221.084,1.627l-3.936-2.649V508.97l.241-2.823-.149-.009a3.064,3.064,0,0,0-.391.026m5.8,3.927.889.656c0,.025,0,.041-.008.074h-2.235c.009-.241.018-.49.033-.73Zm-1.3-.291c.011-.249.028-.482.041-.648l.876.648Zm2.175,1.329c-.008.2-.016.44-.017.722H273.77c-.013-.223-.021-.439-.021-.623v-.1Zm-.017,1.013c0,.223.009.464.021.706h-2.142c-.013-.191-.033-.441-.05-.706Zm.033,1.013c.016.2.037.407.062.6,0,.033.012.074.017.107h-1.035l-1.058-.706Zm.133,1,.1.5-.744-.5Zm-3.581,18.973a18.731,18.731,0,0,1-3.7-8.021,49.541,49.541,0,0,1-.771-5.738v-5.679l.258-3.006h-1.362c-.258-.191-1.728-1.885-2.807-3.138l3.866,1.378c.053.033.078.166.111.291a.868.868,0,0,0,.179.44,2.8,2.8,0,0,0,.7.506.589.589,0,0,0,.108.059l-.009.016,7.88,5.305c.008.1.008.192.013.291l-8.1-5.439-.162.241,3.986,2.691c.009.257.025.821.058,1.619a32.243,32.243,0,0,1-2.633-2.482l-.211.207a35.7,35.7,0,0,0,2.865,2.666c.07,1.352.2,3.171.4,4.965a16.161,16.161,0,0,1-2.433-5.222h-.008l-.279.074a15.928,15.928,0,0,0,2.787,5.68,23.113,23.113,0,0,0,.846,4.169,26.812,26.812,0,0,0,2.1,4.616,7.038,7.038,0,0,1-1.587-.556c-4.281-2.052-5.085-14.315-5.1-14.44l-.29.017c.009.132.831,12.546,5.263,14.7a7.2,7.2,0,0,0,1.9.6c.61,1.047,1.158,1.852,1.49,2.309.772,1.062,1.146,1.519,1.32,1.719a2.975,2.975,0,0,1-.447.157,8.546,8.546,0,0,1-4.776-.134c-.647-.3-1.021-.48-1.209-.572-.082-.1-.174-.183-.253-.282m6.883,3.6a8.825,8.825,0,0,1-6.1-2.732c.158.075.341.157.565.258a6.693,6.693,0,0,0,2.567.424,10.31,10.31,0,0,0,2.39-.274c1.6-.391,3.8-2.492,4.294-2.973a40.057,40.057,0,0,0,3.007,2.823c-2.55,1.635-4.813,2.474-6.719,2.474m6.137,3.413h0a3.505,3.505,0,0,0-.656-.051h-.93a1.412,1.412,0,0,1-.191-.025,29.024,29.024,0,0,0,2.666-5.555c.473.4.93.747,1.346,1.054-.258,1.819-.669,4.534-.756,4.783l-.047.091-.062.167a2.107,2.107,0,0,0-.49-.233,5.781,5.781,0,0,0-.88-.231m1.171.68a.432.432,0,0,1-.054.034.024.024,0,0,0-.021.007,2.291,2.291,0,0,1-.391.158,5.468,5.468,0,0,0-.581.283l.245-.78a2.568,2.568,0,0,1,.407.132,2.051,2.051,0,0,1,.394.166m.523,1.312a3.947,3.947,0,0,1-.988.009c-.183-.017-.623-.15-.685-.274a.317.317,0,0,1,.129-.248,2.516,2.516,0,0,1,.664-.316c.1-.042.2-.082.311-.134a.641.641,0,0,0,.125-.058.782.782,0,0,0,.457-.565l.043-.108c.124-.322.609-3.679.752-4.691l.2.142c-.117,2.017-.317,5.057-.445,6.061a1.655,1.655,0,0,1-.229.092,1.722,1.722,0,0,1-.3.082Zm.444.191c-.066.076-.136.133-.2.2-.037.033-.066.058-.1.083l.029-.207c.088-.018.187-.042.27-.068Zm-.394.9V543.2a.622.622,0,0,1,.167-.257l.065-.066a1.32,1.32,0,0,1,.137-.134,2.607,2.607,0,0,0,.279-.257h2.275a.336.336,0,0,0,.025.074,1.347,1.347,0,0,0,.327.325.806.806,0,0,1,.138.132l.021.025a.959.959,0,0,1,.128.174Zm3.221-.788a.264.264,0,0,0,.075.016.959.959,0,0,0,.154.017c0,.049.021.116.046.24a.228.228,0,0,0-.041-.033,1.6,1.6,0,0,1-.233-.241m.312,1.253a2.476,2.476,0,0,1-1.469.307h-.134c-.577,0-1.445-.008-1.819-.481h3.516a.352.352,0,0,1-.1.173m1.715-1.968a.3.3,0,0,1-.108.207,2.571,2.571,0,0,1-1.453.274h-.075l-.356-.057a.828.828,0,0,0-.125-.034c-.016-.157-.042-.381-.066-.631h2.013c.017.017.029.017.046.034a.276.276,0,0,1,.124.207m1.786-1.7c-.1.009-.221.009-.34.009-.47.009-.811.009-1.071.016a.806.806,0,0,1-.1.009,4.288,4.288,0,0,0-.457.033,3.971,3.971,0,0,0-.912.175,1.314,1.314,0,0,0-.287.132.246.246,0,0,0-.025-.066l-.038-.107a9.5,9.5,0,0,1-.208-1.181h2.845c.183.325.378.656.594.98m-.748-1.27h-2.732c-.074-.532-.157-1.146-.232-1.744h2.142c.245.581.514,1.163.821,1.744m-1.3-2.906c.116.292.237.581.357.872h-2.059c-.041-.365-.092-.731-.134-1.056.291-.207.6-.439.922-.688h.581c.062.191.141.4.2.54Zm6.71.888a12.7,12.7,0,0,1-6.428-2,2.953,2.953,0,0,0-.439-.24c-.021-.009-.033-.009-.041-.018a.149.149,0,0,1,.058.118h-.29v.023c0,.017.011.05.017.068h-.142a41.623,41.623,0,0,0,3.53-3.255c.482.481,2.682,2.59,4.285,2.981a10.33,10.33,0,0,0,2.4.274,6.681,6.681,0,0,0,2.566-.424c.274-.125.494-.233.677-.316a8.554,8.554,0,0,1-6.188,2.79m12.4-26.072h-1.191l-.026.041-.074.042.009.1v.05l.24,2.8v5.671c0,.282-.142,1.486-.233,2.283-.05.465-.083.73-.083.805a19.949,19.949,0,0,1-4.3,10.894c0,.009-.365.191-1.354.647a8.545,8.545,0,0,1-4.775.134,2.8,2.8,0,0,1-.444-.157c.169-.2.54-.656,1.32-1.719.328-.45.876-1.254,1.483-2.292a7.725,7.725,0,0,0,1.905-.614c4.431-2.152,5.254-14.565,5.258-14.7l-.29-.017c0,.125-.811,12.389-5.092,14.44a6.93,6.93,0,0,1-1.585.556,26.624,26.624,0,0,0,2.1-4.616,23.427,23.427,0,0,0,.856-4.177,16.052,16.052,0,0,0,2.782-5.671l-.141-.05-.146-.025a16.235,16.235,0,0,1-2.433,5.214c.212-1.794.333-3.6.4-4.957a35.238,35.238,0,0,0,2.865-2.666l-.217-.207a31.755,31.755,0,0,1-2.633,2.475c.038-.789.051-1.354.058-1.619l3.986-2.682-.165-.241-8.056,5.423c0-.1.008-.208.017-.308l7.839-5.272-.009-.016a1.85,1.85,0,0,0,1.118-1.28c.669-.249,1.337-.48,2.01-.73.585-.215,1.166-.424,1.756-.647-.431.564-2.425,2.748-2.754,3.089" transform="translate(-263.228 -490.237)" fill="#fff"/>
        <path id="Trazado_217" data-name="Trazado 217" d="M286.056,515.588l-.124.017-.009.016a.741.741,0,0,1-.216.3,1.439,1.439,0,0,1-.44.124.709.709,0,0,1-.116.009c-.021,0-.042.008-.058.008a.058.058,0,0,1-.037-.008.079.079,0,0,1-.013-.05v-1.212a.246.246,0,0,1,.034-.142.569.569,0,0,1,.173-.066l.034-.009v-.108l-.773.116v.108h.092a.193.193,0,0,1,.1.016c.008.009.025.042.025.142v1.121a.3.3,0,0,1-.029.165.808.808,0,0,1-.171.067l-.017.008v.1l1.4-.215Z" transform="translate(-270.369 -498.367)" fill="#fff"/>
        <path id="Trazado_218" data-name="Trazado 218" d="M287.253,514.234a.085.085,0,0,0,.062-.016.228.228,0,0,0,.1-.075.2.2,0,0,0,.049-.124c0-.067-.033-.092-.058-.1a.12.12,0,0,0-.108-.017.235.235,0,0,0-.108.092.191.191,0,0,0-.041.124.13.13,0,0,0,.049.1.069.069,0,0,0,.055.016" transform="translate(-271.254 -498.176)" fill="#fff"/>
        <path id="Trazado_219" data-name="Trazado 219" d="M287.558,515.735h-.033a.3.3,0,0,1-.129.016s-.025-.016-.025-.141V514.7l-.012-.025h-.037c0,.017-.009.017-.042.041-.058.042-.158.117-.3.217l-.062.041v.108l.042-.042a.394.394,0,0,0,.074-.025c.009-.017.017-.017.027-.017s.033-.016.041,0a.79.79,0,0,1,.008.108v.581c0,.108-.016.142-.033.158s-.05.058-.15.108l-.025.009v.092l.66-.249Z" transform="translate(-271.17 -498.438)" fill="#fff"/>
        <path id="Trazado_220" data-name="Trazado 220" d="M287.858,513.842a.208.208,0,0,1,.016.083v1.3c0,.084.117.091.158.091h.046a.679.679,0,0,0,.228-.034.914.914,0,0,0,.457-.339.95.95,0,0,0,.17-.523.466.466,0,0,0-.136-.365.323.323,0,0,0-.342-.066.762.762,0,0,0-.273.191.615.615,0,0,0-.037.057v-.647l-.009-.017-.011-.025-.029.009a.593.593,0,0,0-.129.082c-.071.05-.153.1-.241.15h-.02v.116l.1-.049c.049-.018.054-.009.054-.009m.274.638a.2.2,0,0,1,.074-.132.551.551,0,0,1,.159-.108.514.514,0,0,1,.09-.017.134.134,0,0,1,.126.074.584.584,0,0,1,.084.3.646.646,0,0,1-.092.324.427.427,0,0,1-.369.223c-.058,0-.067-.033-.07-.042Z" transform="translate(-271.441 -498.057)" fill="#fff"/>
        <path id="Trazado_221" data-name="Trazado 221" d="M290.207,515.055c.025,0,.057-.009.091-.009a.634.634,0,0,0,.354-.207.75.75,0,0,0,.191-.316l.008-.033-.1-.017-.013.017a.638.638,0,0,1-.153.208.339.339,0,0,1-.2.09.237.237,0,0,1-.249-.082.472.472,0,0,1-.121-.349l.777-.116v-.024a.377.377,0,0,0-.465-.416.558.558,0,0,0-.4.24.77.77,0,0,0-.149.465.634.634,0,0,0,.128.4.354.354,0,0,0,.3.15m-.134-.955a.263.263,0,0,1,.191-.15c.017,0,.035-.008.046-.008a.152.152,0,0,1,.125.083.269.269,0,0,1,.041.133l-.445.058a.7.7,0,0,1,.041-.117" transform="translate(-272.137 -498.141)" fill="#fff"/>
        <path id="Trazado_222" data-name="Trazado 222" d="M292.162,514.8h-.05a.252.252,0,0,1-.124-.016.175.175,0,0,1-.043-.133V514.1a.17.17,0,0,1,.053-.124c.051-.058.08-.075.088-.075s.017,0,.054.05a.194.194,0,0,0,.112.042.142.142,0,0,0,.1-.042.161.161,0,0,0-.008-.216.163.163,0,0,0-.125-.042.265.265,0,0,0-.174.066,1.29,1.29,0,0,0-.1.1v-.116a.063.063,0,0,0,0-.025.037.037,0,0,0-.038-.026l-.017.009c-.041.009-.083.033-.125.042a.775.775,0,0,1-.1.041l-.157.049v.1l.032-.007a.071.071,0,0,0,.043-.009c.008,0,.017-.008.029-.008s.037.017.053.049a.51.51,0,0,1,.017.15v.555c0,.083-.011.1-.025.117a.828.828,0,0,1-.133.025H291.5v.1l.665-.008Z" transform="translate(-272.713 -498.107)" fill="#fff"/>
        <path id="Trazado_223" data-name="Trazado 223" d="M293,513.867h0l.1.008v.646a.6.6,0,0,0,.029.191.208.208,0,0,0,.208.142h.017a.218.218,0,0,0,.124-.025.334.334,0,0,0,.133-.117l.042-.041-.075-.067-.016.025a.564.564,0,0,1-.063.042c-.013.009-.021.009-.045.009h-.009a.084.084,0,0,1-.082-.05,1.05,1.05,0,0,1-.008-.133v-.615l.232.017v-.149l-.229-.007v-.25c0-.007,0-.033-.012-.033a.053.053,0,0,0-.033-.017H293.3l-.012.017c-.084.108-.138.175-.163.2a.236.236,0,0,1-.1.084c-.021.025-.03.032-.037.032a.043.043,0,0,0-.009.026.118.118,0,0,0,0,.041c0,.008.012.008.021.025" transform="translate(-273.208 -498.023)" fill="#fff"/>
        <path id="Trazado_224" data-name="Trazado 224" d="M294.286,514.572a.28.28,0,0,0-.17.265.244.244,0,0,0,.078.191.22.22,0,0,0,.175.1.291.291,0,0,0,.2-.024.751.751,0,0,0,.108-.066.126.126,0,0,0,.029.09.263.263,0,0,0,.128.083h.034a.259.259,0,0,0,.108-.033c.025-.017.055-.034.084-.058h.008V515l-.05.024a.1.1,0,0,1-.046.018h-.029c-.017,0-.025-.01-.034-.026a.18.18,0,0,1-.011-.082v-.424a.462.462,0,0,0-.038-.233.363.363,0,0,0-.3-.2.336.336,0,0,0-.3.042.2.2,0,0,0-.1.157.19.19,0,0,0,.037.1.122.122,0,0,0,.087.05.153.153,0,0,0,.063,0c.041-.017.062-.05.062-.116a.206.206,0,0,1,0-.033.225.225,0,0,1-.005-.042c0-.033.005-.033.033-.041a.14.14,0,0,1,.084-.017.217.217,0,0,1,.133.075.425.425,0,0,1,.016.15v.074a1.944,1.944,0,0,0-.377.1m.377.316c0,.016,0,.033-.045.058a.156.156,0,0,1-.121.017.083.083,0,0,1-.07-.042.163.163,0,0,1-.058-.132c0-.066.037-.116.133-.157a.713.713,0,0,1,.161-.05Z" transform="translate(-273.592 -498.23)" fill="#fff"/>
        <path id="Trazado_225" data-name="Trazado 225" d="M295.865,515.255h0c.041.034.078.091.132.108a.735.735,0,0,0,.187,0,.089.089,0,0,1,.054-.025v.074l.025.033.167-.025.161-.008v-.092h-.017a.025.025,0,0,1-.021-.008h-.017c-.05-.025-.062-.033-.066-.042s-.017-.025-.017-.066l0-.8V514.3l.005-.225-.005-.008-.021-.024h-.066c-.017,0-.046.007-.07.007h-.046l-.154-.007v.09l.029.009a.1.1,0,0,0,.043.009h.012c.029.016.041.025.046.033a.147.147,0,0,1,.008.058v.241c-.008-.017-.017-.017-.025-.033a.694.694,0,0,0-.142-.067.289.289,0,0,0-.324.074.476.476,0,0,0-.136.35.58.58,0,0,0,.108.332c.033.058.1.075.141.116m.042-.705a.115.115,0,0,1,.1-.059.184.184,0,0,1,.066.009.261.261,0,0,1,.116.074.292.292,0,0,1,.058.175v.424s0,.016-.037.041a.08.08,0,0,1-.047.017.339.339,0,0,0-.041-.009.273.273,0,0,1-.122-.058.4.4,0,0,1-.086-.108.585.585,0,0,1-.066-.282.324.324,0,0,1,.062-.224" transform="translate(-274.095 -498.225)" fill="#fff"/>
        <path id="Trazado_226" data-name="Trazado 226" d="M314.66,515.341a.547.547,0,0,0,.228,0,.392.392,0,0,0,.08-.05v.108l.025.033.2-.017.2-.016v-.1l-.021-.008h-.051c-.062-.025-.079-.042-.087-.059a.2.2,0,0,1-.016-.1l.008-1.005v-.3l-.008-.15-.033.007a.168.168,0,0,1-.05.009h-.349v.1h.084a.027.027,0,0,0,.016.009.144.144,0,0,1,.062.025.306.306,0,0,1,.013.1v.316a.364.364,0,0,1-.043-.043.561.561,0,0,0-.181-.09.427.427,0,0,0-.412.09.635.635,0,0,0-.158.441.8.8,0,0,0,.129.424.677.677,0,0,0,.357.274m-.133-1.031a.146.146,0,0,1,.141-.074.188.188,0,0,1,.067.009.333.333,0,0,1,.154.1.308.308,0,0,1,.079.232v.514c0,.034-.013.042-.043.067a.108.108,0,0,1-.132.008.346.346,0,0,1-.258-.2.823.823,0,0,1-.091-.364.446.446,0,0,1,.083-.292" transform="translate(-280.322 -498.103)" fill="#fff"/>
        <path id="Trazado_227" data-name="Trazado 227" d="M317.854,515.712c.037,0,.067.009.075.033a.22.22,0,0,1,.012.1v.631a.2.2,0,0,1-.025.118.281.281,0,0,1-.1.007h-.025v.1l.589.075v-.092l-.025-.008a.289.289,0,0,1-.107-.033.19.19,0,0,1-.029-.116v-.665c.037-.033.07-.058.091-.074a.256.256,0,0,1,.13-.033.171.171,0,0,1,.124.082.365.365,0,0,1,.037.174v.516c0,.108-.021.132-.029.132-.008.017-.042.033-.1.033h-.029v.084l.581.074v-.1h-.025a.142.142,0,0,1-.1-.033.165.165,0,0,1-.033-.116v-.582a.438.438,0,0,0-.141-.364.246.246,0,0,0-.166-.066.331.331,0,0,0-.216.032.758.758,0,0,0-.132.091v-.141c-.009-.025-.022-.041-.043-.041l-.12.025c-.125.034-.2.049-.237.058h-.025v.1h.074Z" transform="translate(-281.532 -498.723)" fill="#fff"/>
        <path id="Trazado_228" data-name="Trazado 228" d="M316.612,516.254a.9.9,0,0,0,.194.042.538.538,0,0,0,.167-.042.506.506,0,0,0,.2-.233l.008-.015-.087-.066-.021.016a.3.3,0,0,1-.149.124.271.271,0,0,1-.191-.016.75.75,0,0,1-.266-.224,1.033,1.033,0,0,1-.125-.407l.773.307v-.05a.645.645,0,0,0-.13-.4.715.715,0,0,0-.32-.266.408.408,0,0,0-.407.041.452.452,0,0,0-.158.39.878.878,0,0,0,.132.457.769.769,0,0,0,.375.34m-.208-1.072a.121.121,0,0,1,.175-.033.3.3,0,0,1,.189.175.951.951,0,0,1,.033.132l-.439-.165c.007-.059.016-.092.041-.109" transform="translate(-280.97 -498.543)" fill="#fff"/>
        <path id="Trazado_229" data-name="Trazado 229" d="M310.924,514.854h.03a.769.769,0,0,0,.523-.182.848.848,0,0,0,.265-.649.954.954,0,0,0-.249-.655.839.839,0,0,0-.569-.225.757.757,0,0,0-.817.822.878.878,0,0,0,.231.631.848.848,0,0,0,.586.258m-.344-1.412a.41.41,0,0,1,.332-.158h.013a.467.467,0,0,1,.341.175.886.886,0,0,1,.141.557.855.855,0,0,1-.142.547.455.455,0,0,1-.328.15h-.013a.429.429,0,0,1-.344-.183.879.879,0,0,1-.146-.548.825.825,0,0,1,.146-.539" transform="translate(-278.957 -497.922)" fill="#fff"/>
        <path id="Trazado_230" data-name="Trazado 230" d="M313.4,515.139h-.021a.246.246,0,0,1-.145-.043.193.193,0,0,1-.047-.14v-.548a.114.114,0,0,1,.063-.108c.037-.05.058-.05.074-.05,0,0,.016,0,.058.034a.17.17,0,0,0,.1.066.1.1,0,0,0,.1-.033.11.11,0,0,0,.041-.1.16.16,0,0,0-.05-.116.138.138,0,0,0-.116-.051.172.172,0,0,0-.173.043.348.348,0,0,0-.1.082v-.116l0-.033c-.009-.025-.017-.033-.034-.033h-.016c-.041.009-.08.025-.125.033a.35.35,0,0,1-.1.033l-.167.035v.09l.033-.008h.067a.1.1,0,0,1,.062.051.539.539,0,0,1,.021.175v.54a.143.143,0,0,1-.025.1c-.013.017-.029.025-.092.025h-.041l-.025-.008v.1l.656.083Z" transform="translate(-279.842 -498.208)" fill="#fff"/>
        <path id="Trazado_231" data-name="Trazado 231" d="M307.5,513.875c.009,0,.025.008.053.057l.32.615a.017.017,0,0,1,.013.008v.017a.794.794,0,0,1-.064.191c-.056.133-.09.149-.1.149s-.034.009-.066.009a.16.16,0,0,0-.092,0,.166.166,0,0,0-.092.058.127.127,0,0,0,.038.2h.054a.3.3,0,0,0,.076-.008.377.377,0,0,0,.2-.173,1.977,1.977,0,0,0,.166-.357l.32-.955a.216.216,0,0,1,.034-.066.149.149,0,0,1,.049-.041l.017-.008v-.1l-.341.116v.083l.071-.009a.027.027,0,0,0,.016-.009.017.017,0,0,1,.013.009.228.228,0,0,1,0,.034l-.009.033-.17.524-.207-.4c-.009-.017-.017-.025-.021-.033v-.026s0-.009.033-.033c.011-.007.038-.007.07-.025l.016-.009v-.091l-.484.149v.092l.029-.017c.029-.008.05-.008.058.017" transform="translate(-278.054 -498.032)" fill="#fff"/>
        <path id="Trazado_232" data-name="Trazado 232" d="M333.9,519.553l1.537-1.154c.34-.266.68-.531.938-.722.191-.149.316-.231.383-.3l.033-.008v-.008c.083-.084.074-.1.062-.15L336.8,517l-3.052,1.894Z" transform="translate(-286.888 -499.218)" fill="#fff"/>
        <path id="Trazado_233" data-name="Trazado 233" d="M266.228,517.332l2.973,2.209.141-.656-3.113-1.918Z" transform="translate(-264.234 -499.206)" fill="#fff"/>
        <path id="Trazado_234" data-name="Trazado 234" d="M271.378,511.867l-2.869-1.685v.364l3.192,2.309Z" transform="translate(-265 -496.929)" fill="#fff"/>
        <path id="Trazado_235" data-name="Trazado 235" d="M302.836,546.873h.2l-.029-.091a1.771,1.771,0,0,1-.062-.474,1.75,1.75,0,0,1,.062-.464l.029-.092h-1.3l0-.017h.639l-.021-.091a1.458,1.458,0,0,1-.074-.474,1.58,1.58,0,0,1,.074-.474l.021-.082h-.237l.3-.075-.813-.282-.079.358h-.64l-.009.05a1.786,1.786,0,0,0,0,1.021l.009.051h.419v.017h-.942l0-.017h.5l-.024-.091a1.573,1.573,0,0,1-.071-.474,1.71,1.71,0,0,1,.071-.474l.025-.082h-.1l.292-.075-.8-.282-.092.357h-.771l-.013.05a1.867,1.867,0,0,0,0,1.021l.013.051h.556l-.008.017h-1.4l-.013.058a1.643,1.643,0,0,0-.062.73h-1.42l.291.738h.373l.466.649h4.658l.922-.93h-.856Zm-4.057-.639a.95.95,0,0,1,.042-.284h.881a1.06,1.06,0,0,0-.034.284,1.253,1.253,0,0,0,.034.3h-.881a1.189,1.189,0,0,1-.042-.3M299,547l-.124-.125h.154Zm.722,0h-.319l.033-.125h.316Zm-.074-1.6a1.153,1.153,0,0,1,0-.581h.88a1.167,1.167,0,0,0-.033.29,1.216,1.216,0,0,0,.033.291Zm.731,1.6h-.249l.029-.125h.241Zm.7,0h-.292l.03-.125h.287Zm.107-.523a.561.561,0,0,0,.009.058h-.888c-.009-.058-.027-.157-.035-.258v-.041l.008-.116a.778.778,0,0,1,.039-.167h.876a1.033,1.033,0,0,0-.034.284.777.777,0,0,0,.025.241m-.058-1.08a1.162,1.162,0,0,1-.033-.29,1.1,1.1,0,0,1,.033-.291h.876a1.5,1.5,0,0,0-.029.291,1.57,1.57,0,0,0,.029.29Zm.619,1.6h-.27l.059-.24c0,.015.009.04.016.058l.009.056h.216Zm.411,0,.026-.125h.29l.091.125Zm.515-.465h-.884a.893.893,0,0,1-.037-.3,1.11,1.11,0,0,1,.038-.283h.884a1.121,1.121,0,0,0-.033.283,1.339,1.339,0,0,0,.033.3" transform="translate(-274.582 -508.362)" fill="#fff"/>
        <path id="Trazado_236" data-name="Trazado 236" d="M298.843,496.56a.126.126,0,0,0,.058.008.39.39,0,0,0,.181-.067.208.208,0,0,0,.2.192.2.2,0,0,0,.2-.2.218.218,0,0,0-.054-.125.3.3,0,0,1,.124.05l.049-.058-.07-.084a.176.176,0,0,0-.158-.066,1.171,1.171,0,0,0-.357.075.489.489,0,0,1-.212.033c-.074,0-.141-.007-.141-.007h-.075l.033.058a.378.378,0,0,0,.225.191" transform="translate(-275.091 -492.241)" fill="#fff"/>
      </g>
    </g>
  </g>
</svg>
