<svg id="questions" xmlns="http://www.w3.org/2000/svg" width="149.125" height="149.125" viewBox="0 0 149.125 149.125">
  <g id="Capa_2" data-name="Capa 2">
    <g id="Logos">
      <g id="Grupo_162" data-name="Grupo 162" transform="translate(50.301 37.573)">
        <path id="Trazado_377" data-name="Trazado 377" d="M46.95,80.364h-.506v-.489c-.228-1.632-.457-3.165-.636-4.454-.9-5.955-1.273-8.4.555-11.258a24.049,24.049,0,0,1,6.983-6.526,23.2,23.2,0,0,0,7.277-7.114,7.913,7.913,0,0,0-.245-9.039c-2.4-2.986-6.771-3.818-11.764-2.186a38.326,38.326,0,0,0-6.33,2.627c-4.144,2.1-4.454,1.632-9.512-6.2l-1.664-2.774-.277-.424.392-.326c10.426-8.745,23.217-11.421,34.263-7.228,8.027,3.084,13.444,9.316,14.472,16.658C81.115,49.968,76.465,58.55,66.9,65.794c-6.265,4.732-5.988,7.946-5.808,10.067a3.263,3.263,0,0,1-.538,2.79C59.154,79.956,55.907,80.364,46.95,80.364Zm6.4-43.073a9.789,9.789,0,0,1,7.864,3.394,9.071,9.071,0,0,1,.343,10.344,24.049,24.049,0,0,1-7.6,7.489,22.842,22.842,0,0,0-6.689,6.249c-1.632,2.5-1.256,4.666-.392,10.475.179,1.175.375,2.48.587,3.981,7.783,0,11.176-.408,12.041-1.354.359-.375.326-.914.245-1.909-.2-2.382-.506-5.972,6.249-11.078,9.267-6.983,13.77-15.19,12.661-23.1-.979-6.918-6.1-12.791-13.738-15.728-10.442-4.014-22.613-1.5-32.631,6.706.538.816,1.028,1.632,1.468,2.268,2.415,3.736,3.753,5.808,4.748,6.526s1.4.245,3.263-.7a38.243,38.243,0,0,1,6.526-2.692,17.066,17.066,0,0,1,5.058-.865Z" transform="translate(-30.83 -23.029)" fill="#ffd300" stroke="#ffd300" stroke-miterlimit="10" stroke-width="3"/>
      </g>
      <g id="Grupo_163" data-name="Grupo 163" transform="translate(62.485 100.602)">
        <path id="Trazado_378" data-name="Trazado 378" d="M47.83,80.162A9.023,9.023,0,0,1,38.3,70.895c0-6.347,4.895-9.235,9.528-9.235a9.251,9.251,0,1,1,0,18.5Zm0-17.344A8.158,8.158,0,1,0,47.83,79a8.158,8.158,0,1,0,0-16.185Z" transform="translate(-38.298 -61.66)" fill="#ffd300" stroke="#ffd300" stroke-miterlimit="10" stroke-width="3"/>
      </g>
      <path id="Trazado_379" data-name="Trazado 379" d="M74.563,149.125,0,74.563,74.563,0l74.563,74.563ZM6.918,74.563l67.645,67.645,67.645-67.645L74.563,6.918Z" fill="#ffd300"/>
    </g>
  </g>
</svg>
