<svg xmlns="http://www.w3.org/2000/svg" xmlns:xlink="http://www.w3.org/1999/xlink" width="599" height="378" viewBox="0 0 599 378">
  <defs>
    <clipPath id="clip-path">
      <rect id="Rect치ngulo_781" data-name="Rect치ngulo 781" width="599" height="378" transform="translate(1321 1795)" fill="#c2c4ff"/>
    </clipPath>
    <clipPath id="clip-path-2">
      <rect id="Rect치ngulo_780" data-name="Rect치ngulo 780" width="433" height="551" fill="#fff" stroke="#707070" stroke-width="1"/>
    </clipPath>
  </defs>
  <g id="Enmascarar_grupo_4" data-name="Enmascarar grupo 4" transform="translate(-1321 -1795)" clip-path="url(#clip-path)">
    <g id="Enmascarar_grupo_3" data-name="Enmascarar grupo 3" transform="translate(1406 1769)" clip-path="url(#clip-path-2)">
      <g id="undraw_Short_bio_re_fmx0" transform="translate(0.009 46.173)">
        <path id="Trazado_1662" data-name="Trazado 1662" d="M112.921,433.646l-18.654,0L85.4,361.693l27.532,0Z" transform="translate(163.239 228.636)" fill="#ffb8b8"/>
        <path id="Trazado_1663" data-name="Trazado 1663" d="M0,22.651H58.627V0H22.651A22.651,22.651,0,0,0,0,22.651Z" transform="translate(221.532 656.947) rotate(0.005)" fill="#2f2e41"/>
        <path id="Trazado_1664" data-name="Trazado 1664" d="M204.921,433.646l-18.654,0L177.4,361.693l27.532,0Z" transform="translate(-78.877 228.636)" fill="#ffb8b8"/>
        <path id="Trazado_1665" data-name="Trazado 1665" d="M0,22.651H58.627V0H22.651A22.651,22.651,0,0,0,0,22.652Z" transform="translate(71.416 656.947) rotate(0.005)" fill="#2f2e41"/>
        <path id="Trazado_1666" data-name="Trazado 1666" d="M544.381,758.67a7.332,7.332,0,0,0,7.2-5.93l11.979-150.516c12.9-127.463-9.177-172.367-9.4-172.806l-.242-.474-.531.031-103.535,5.959-21.978,71.893-58.1,78.057a70.7,70.7,0,0,0-13.9,42.892l1.47,113.807a7.386,7.386,0,0,0,6.833,7.23l30.329,2.11a7.318,7.318,0,0,0,7.81-6.539l7.514-123.56a.636.636,0,0,1,.174-.34l86.162-80.306a2.449,2.449,0,0,1,4.073.8l8.689,209.175a7.255,7.255,0,0,0,1.8,5.518,7.359,7.359,0,0,0,5.372,2.482l28.143.513Z" transform="translate(-264.186 -122.888)" fill="#2f2e41"/>
        <ellipse id="Elipse_44" data-name="Elipse 44" cx="52.281" cy="52.281" rx="52.281" ry="52.281" transform="translate(253.284 175.876) rotate(-151.337)" fill="#2f2e41"/>
        <path id="Trazado_1667" data-name="Trazado 1667" d="M507.594,369.34a15.3,15.3,0,0,1,21.958,8.262l34.909,1.957,3.985,21.5-49.26-3.456a15.383,15.383,0,0,1-11.593-28.267Z" transform="translate(-499.682 -161.788)" fill="#ffb8b8"/>
        <path id="Trazado_1668" data-name="Trazado 1668" d="M339.812,500.006a15.3,15.3,0,0,1,9.706-21.36l4.276-34.7,21.722-2.545-6.727,48.92a15.383,15.383,0,0,1-28.976,9.685Z" transform="translate(-43.437 -115.02)" fill="#ffb8b8"/>
        <circle id="Elipse_45" data-name="Elipse 45" cx="40.076" cy="40.076" r="40.076" transform="translate(194.698 80.854)" fill="#ffb8b8"/>
        <path id="Trazado_1669" data-name="Trazado 1669" d="M405.287,501.627c21.31,0,39.168-1.725,56.878-8.057,7.291-2.606,8.07-5.838,9.1-9.879,1.609-6.344,2.492-81.367-5.817-106.265a37.37,37.37,0,0,0-30.958-25.174c-7.911-.932-31.574-4.277-44.975-6.187a25.321,25.321,0,0,0-18.676,4.575c-3.552,2.667-5.4,5.532-5.482,8.516L361.71,486a14.137,14.137,0,0,0,13.2,14.564C383.1,501.122,393.743,501.627,405.287,501.627Z" transform="translate(-178.416 -175.42)" fill="#ffcd00"/>
        <path id="Trazado_1670" data-name="Trazado 1670" d="M414.479,527.45a7.342,7.342,0,0,0,7.335-7.626l-1.273-58.178a41.429,41.429,0,0,0-6.229-20.291l-49.384-79.218a17.18,17.18,0,0,0-14.575-8.054,16.992,16.992,0,0,0-14.514,8.16l0,0a17.136,17.136,0,0,0-.4,17.182l47.9,87.061-3.3,53.435a7.342,7.342,0,0,0,7.326,7.474l27.1.053Z" transform="translate(-81.605 -170.177)" fill="#ffcd00"/>
        <path id="Trazado_1671" data-name="Trazado 1671" d="M411.266,422.257a7.269,7.269,0,0,0,5.2,2.447l58.138,3.083a41.418,41.418,0,0,0,20.686-4.694l82.689-43.321a17.1,17.1,0,0,0,2.068-29.017l-.477.662.477-.662a17.133,17.133,0,0,0-17.1-1.688l-90.4,41.257-53.078-7.289a7.343,7.343,0,0,0-7.961,6.751L409.422,416.8c-.01.135-.017.27-.02.4a7.271,7.271,0,0,0,1.863,5.049Z" transform="translate(-371.064 -174.318)" fill="#ffcd00"/>
        <path id="Trazado_1672" data-name="Trazado 1672" d="M155.969,86.647l10.4-28.077L119.615,45.039,86.2,55.307v31.34Z" transform="translate(108.491 28.607)" fill="#2f2e41"/>
        <path id="Trazado_1673" data-name="Trazado 1673" d="M287.177,293.332A56.957,56.957,0,0,1,387.9,262.146c9.829,11.946,14.37,27.313,17.694,42.421s5.73,30.614,12.184,44.672,17.833,26.831,32.856,30.521,33.268-4.62,36.741-19.694a76.438,76.438,0,0,1-25.941,53.44c-13.016,11.288-34.267,7.3-47.081-4.221s-19.155-28.42-24.642-44.752-10.9-33.361-22.534-46.065-44.622-26.206-59.569-17.639C295.882,307.549,291.676,303.277,287.177,293.332Z" transform="translate(-71.863 -241.375)" fill="#2f2e41"/>
        <path id="Trazado_1674" data-name="Trazado 1674" d="M340.128,659.793H663.2a1.632,1.632,0,0,0,0-3.263H340.128a1.632,1.632,0,0,0,0,3.263Z" transform="translate(-333.064 20.877)" fill="#ccc"/>
      </g>
    </g>
  </g>
</svg>
