<svg id="undraw_Reading_re_29f8" xmlns="http://www.w3.org/2000/svg" width="409.034" height="378" viewBox="0 0 409.034 378">
  <path id="Trazado_706" data-name="Trazado 706" d="M847.291,601.688l-33.2-49.32s50.285,17.555,44.578,49.32Z" transform="translate(-474.641 -298.85)" fill="#e5e5e5"/>
  <path id="Trazado_707" data-name="Trazado 707" d="M319.923,572.782l-1.261-.025a292.356,292.356,0,0,1,4.475-41.778c5.451-29.547,14.514-48.952,26.939-57.675l.724,1.032C321.775,494.714,319.938,572,319.923,572.782Z" transform="translate(-291.459 -269.617)" fill="#e5e5e5"/>
  <path id="Trazado_708" data-name="Trazado 708" d="M344.923,605.195l-1.261-.025c.027-1.4.815-34.295,13.766-43.388l.724,1.031C345.724,571.54,344.929,604.859,344.923,605.195Z" transform="translate(-300.703 -302.331)" fill="#e5e5e5"/>
  <circle id="Elipse_30" data-name="Elipse 30" cx="6.303" cy="6.303" r="6.303" transform="translate(60.209 192.229)" fill="#c2c4ff"/>
  <circle id="Elipse_31" data-name="Elipse 31" cx="6.303" cy="6.303" r="6.303" transform="translate(57.088 246.43)" fill="#c2c4ff"/>
  <path id="Trazado_709" data-name="Trazado 709" d="M336.093,473.452a28,28,0,0,1-1.9,14.332,25.513,25.513,0,0,1-4.289-27.4A27.993,27.993,0,0,1,336.093,473.452Z" transform="translate(-294.811 -264.841)" fill="#e5e5e5"/>
  <path id="Trazado_710" data-name="Trazado 710" d="M365.214,504.965a27.994,27.994,0,0,1-14.445.624,25.514,25.514,0,0,1,26.231-9A27.993,27.993,0,0,1,365.214,504.965Z" transform="translate(-303.331 -277.979)" fill="#e5e5e5"/>
  <path id="Trazado_711" data-name="Trazado 711" d="M368.118,582.677a19.621,19.621,0,0,1-10.124.437,17.882,17.882,0,0,1,18.386-6.306A19.62,19.62,0,0,1,368.118,582.677Z" transform="translate(-306.002 -307.69)" fill="#e5e5e5"/>
  <path id="Trazado_712" data-name="Trazado 712" d="M683.9,631.883H276.13a.63.63,0,0,1,0-1.26H683.9a.63.63,0,1,1,0,1.26Z" transform="translate(-275.5 -327.784)" fill="#cbcbcb"/>
  <path id="Trazado_713" data-name="Trazado 713" d="M374.96,516.934l-5.156,13.42-54.217-13.5,7.61-19.807Z" transform="translate(-116.687 -183.781)" fill="#ffb7b7"/>
  <path id="Trazado_714" data-name="Trazado 714" d="M691.153,677.3l-16.626,43.272-.547-.21a18.044,18.044,0,0,1-10.372-23.313h0l10.155-26.429Z" transform="translate(-418.556 -342.573)" fill="#2f2e41"/>
  <path id="Trazado_715" data-name="Trazado 715" d="M540.026,412.112,516.4,414.324l-1.172,70.3a13.233,13.233,0,0,0,14.088,12L544.3,495.6Z" transform="translate(-364.138 -246.991)" fill="#e5e5e5"/>
  <path id="Trazado_716" data-name="Trazado 716" d="M676.691,406.5l-16.166-.208-.958,83.531h0a26.018,26.018,0,0,0,26.866-27.009Z" transform="translate(-417.508 -244.839)" fill="#e5e5e5"/>
  <path id="Trazado_717" data-name="Trazado 717" d="M534.81,579.123a51.421,51.421,0,0,1-1.663,7.159c-.816,2.294-2.075,4.415-2.821,6.733-2.378,7.388.918,15.624,6.183,21.327a34.8,34.8,0,0,0,16.967,10.075c4.749,1.195,9.687,1.366,14.581,1.532,13.552.459,27.453.871,40.294-3.485a70,70,0,0,0,11.707-5.318,8.763,8.763,0,0,0,3.038-2.392,8.36,8.36,0,0,0,1.1-4.907c-.029-5.745-1.194-11.461-.917-17.2.153-3.178.748-6.355.455-9.523A17.568,17.568,0,0,0,610.3,567.99c-3.643-.782-7.421-.356-11.13,0a283.744,283.744,0,0,1-28.966,1.3c-9.882-.063-19.7-1.571-29.534-1.729-2.908-.047-2.849.85-3.775,3.664A68.552,68.552,0,0,0,534.81,579.123Z" transform="translate(-369.43 -304.463)" fill="#2f2e41"/>
  <path id="Trazado_718" data-name="Trazado 718" d="M460.569,577.986a29.24,29.24,0,0,0-8.133-.865,20.3,20.3,0,0,0-18.846,23.93,34.1,34.1,0,0,0,3.223,8.807c2.157,4.377,4.744,8.745,8.737,11.55a34.031,34.031,0,0,0,7.711,3.67L474.291,633c3.094,1.166,6.188,2.331,9.313,3.412a182.152,182.152,0,0,0,48.641,9.67c5.05.3,10.176.385,15.1-.765a4.918,4.918,0,0,0,3.093-1.671,5.3,5.3,0,0,0,.691-2.283l1.294-9.06a7.589,7.589,0,0,0-.11-3.819c-.593-1.523-2.079-2.48-3.5-3.294-13.826-7.941-29.97-12.322-41.608-23.221-2.74-2.566-5.032-6.633-8.361-8.376-3.775-1.976-8.22-3.1-12.122-4.926C478.2,584.686,469.814,580.111,460.569,577.986Z" transform="translate(-333.83 -307.996)" fill="#2f2e41"/>
  <path id="Trazado_719" data-name="Trazado 719" d="M504.381,596.661c7.433,2.329,38.818,18.466,44.2,24.1-.721.26-25.186-13.451-25.92-13.671a147.827,147.827,0,0,1-19.72-6.949c-1.275-.589-8.282-3.361-7.964-4.969C495.332,593.357,503.062,596.247,504.381,596.661Z" transform="translate(-356.646 -314.457)" opacity="0.1"/>
  <path id="Trazado_720" data-name="Trazado 720" d="M557.364,374.068l-20.014,15.2s-21.119.661-20.405,14.161,9.166,77.419,9.166,77.419l1.834,21.993,34.786,9.912a113.815,113.815,0,0,0,57.659,1.236h0l-4.134-22.064S632.994,391.715,622.91,387.3s-16.386-3.151-16.386-3.151l-12.64-11.03Z" transform="translate(-364.767 -232.575)" fill="#e5e5e5"/>
  <path id="Trazado_721" data-name="Trazado 721" d="M627.282,303.588c0,19.728-18.241,16.744-40.743,16.744S545.8,323.315,545.8,303.588s8.911-54.7,40.743-54.7C619.468,248.891,627.282,283.86,627.282,303.588Z" transform="translate(-375.441 -186.641)" fill="#2f2e41"/>
  <circle id="Elipse_32" data-name="Elipse 32" cx="27.416" cy="27.416" r="27.416" transform="translate(174.12 104.245) rotate(-45)" fill="#ffb7b7"/>
  <path id="Trazado_722" data-name="Trazado 722" d="M559.964,297.4h10.844l4.784-13.4.956,13.4h5.183l2.791-7.814.558,7.814h38.511a29.022,29.022,0,0,0-29.022-29.022h-5.581A29.023,29.023,0,0,0,559.964,297.4Z" transform="translate(-380.68 -193.844)" fill="#2f2e41"/>
  <rect id="Rectángulo_251" data-name="Rectángulo 251" width="54.832" height="66.177" transform="translate(183.774 144.644)" fill="#c2c4ff"/>
  <path id="Trazado_723" data-name="Trazado 723" d="M296.381,515.934l5.157,13.42,54.217-13.5-7.61-19.807Z" transform="translate(-109.586 -183.411)" fill="#ffb7b7"/>
  <path id="Trazado_724" data-name="Trazado 724" d="M566.545,669.62,576.7,696.049h0a18.044,18.044,0,0,1-10.372,23.313l-.547.21L549.154,676.3Z" transform="translate(-376.683 -342.204)" fill="#2f2e41"/>
  <path id="Trazado_725" data-name="Trazado 725" d="M690.533,569.686a37.843,37.843,0,0,1,13.334-.911c3.565.393,7.237,1.385,9.84,3.852,3.168,3,4.186,7.648,4.271,12.012a37.527,37.527,0,0,1-8.157,23.967,21.745,21.745,0,0,1-4.663,4.489,30.707,30.707,0,0,1-6.067,2.924l-47.1,18.577c-12.39,4.887-24.824,9.788-37.748,13.01a2.942,2.942,0,0,1-3.928-1.37l-.03-.065a97.575,97.575,0,0,1-10.322-18.882,1.272,1.272,0,0,1,.562-2.006l33.312-19.14a33.682,33.682,0,0,0,6.78-4.672,16.831,16.831,0,0,0,3.481-4.846c.691-1.442.755-4.846,1.637-5.912.864-1.044,3.818-1.127,5.182-1.538a47.046,47.046,0,0,0,5.641-2.133c7.452-3.334,14.087-8.177,21.231-12.081A54.483,54.483,0,0,1,690.533,569.686Z" transform="translate(-395.363 -304.833)" fill="#2f2e41"/>
  <path id="Trazado_726" data-name="Trazado 726" d="M682.5,590.892c-5.723,4.3-13.134,8.25-18.806,12.662-1.936,1.506-34.208,19.649-34.664,22.059,5.292.892,39-22.691,43.825-25.044s9.1-5.671,13.335-8.966c1.08-.839,5.655-3.363,2.556-4.3C687,586.774,683.79,590.033,682.5,590.892Z" transform="translate(-406.217 -311.746)" opacity="0.1"/>
  <circle id="Elipse_33" data-name="Elipse 33" cx="19.694" cy="19.694" r="19.694" transform="translate(359.458 73.878)" fill="#f1f1f1"/>
  <circle id="Elipse_34" data-name="Elipse 34" cx="13.815" cy="13.815" r="13.815" transform="translate(328.888 89.163)" fill="#f1f1f1"/>
  <circle id="Elipse_35" data-name="Elipse 35" cx="11.077" cy="11.077" r="11.077" transform="translate(78.553 85.627)" fill="#f1f1f1"/>
  <circle id="Elipse_36" data-name="Elipse 36" cx="7.771" cy="7.771" r="7.771" transform="translate(100.097 99.689)" fill="#f1f1f1"/>
  <circle id="Elipse_37" data-name="Elipse 37" cx="8.468" cy="8.468" r="8.468" transform="translate(206.861 0)" fill="#f1f1f1"/>
  <path id="Trazado_727" data-name="Trazado 727" d="M537.087,443.194l.757-5.843s28.235,2.061,23.823,8.994-15.126,7.563-15.126,7.563Z" transform="translate(-372.221 -256.323)" fill="#2f2e41" opacity="0.17"/>
  <path id="Trazado_728" data-name="Trazado 728" d="M552.645,406.276a11.023,11.023,0,0,1,8.02,4.924h0a11.013,11.013,0,0,1-3.582,15.481,10.612,10.612,0,0,1-1.459.717l-17.355,53.085a8.817,8.817,0,1,1-15.855-7.719l18.456-52.5a11,11,0,0,1,11.774-13.993Z" transform="translate(-366.466 -244.809)" fill="#ffb7b7"/>
  <path id="Trazado_729" data-name="Trazado 729" d="M529.581,438.142s9.944,16.99,24.321,8.5l-13.933,53.318H528.23l-12.144-2.268,3.4-22.029Z" transform="translate(-364.456 -256.615)" fill="#e5e5e5"/>
  <path id="Trazado_730" data-name="Trazado 730" d="M645.324,445.013l-8.238-11.31s3.959-11.731,19.312-7.441C656.4,426.262,666.167,448.13,645.324,445.013Z" transform="translate(-409.195 -251.874)" fill="#e5e5e5"/>
  <path id="Trazado_731" data-name="Trazado 731" d="M645.324,445.013l-8.238-11.31s3.959-11.731,19.312-7.441C656.4,426.262,666.167,448.13,645.324,445.013Z" transform="translate(-409.195 -251.874)" fill="#2f2e41" opacity="0.17"/>
  <path id="Trazado_732" data-name="Trazado 732" d="M644.406,393.255a10.941,10.941,0,0,1,5.883,13.012l18.456,52.5a8.817,8.817,0,1,1-15.855,7.719L635.535,413.4a10.6,10.6,0,0,1-1.459-.717,11.013,11.013,0,0,1-3.582-15.481h0a11.024,11.024,0,0,1,8.02-4.924A10.889,10.889,0,0,1,644.406,393.255Z" transform="translate(-406.096 -239.63)" fill="#ffb7b7"/>
  <path id="Trazado_733" data-name="Trazado 733" d="M637.087,434.257s13.592,8.247,19.312-7.441l19.152,50.429L669.86,487.2l-.823.069a21.048,21.048,0,0,1-18.015-7.617h0a41.813,41.813,0,0,1-8.735-18.577Z" transform="translate(-409.196 -252.428)" fill="#e5e5e5"/>
</svg>
