<svg xmlns="http://www.w3.org/2000/svg" width="396" height="55.542" viewBox="0 0 396 55.542">
  <g id="Grupo_102" data-name="Grupo 102" transform="translate(-1059.401 -486.199)">
    <g id="Grupo_95" data-name="Grupo 95" transform="translate(1382.472 489.608)">
      <g id="Grupo_94" data-name="Grupo 94" transform="translate(0 1.034)">
        <path id="Trazado_237" data-name="Trazado 237" d="M1562.526,529.814a19.042,19.042,0,0,0,4.926,3.187,14.992,14.992,0,0,0,6.167,1.2,10.092,10.092,0,0,0,7.119-2.442,8.315,8.315,0,0,0,2.649-6.415,11.458,11.458,0,0,0-.455-3.27,6.4,6.4,0,0,0-1.531-2.649,7.607,7.607,0,0,0-2.814-1.78,11.907,11.907,0,0,0-4.222-.662,12.209,12.209,0,0,0-2.4.248q-1.243.248-2.236.5l-2.037-4.635,7.735-11.111H1559.7v-8.94h32.268L1580.24,510.2q6.953.829,10.222,4.967a16.05,16.05,0,0,1,3.27,10.264,16.79,16.79,0,0,1-1.531,7.284,15.614,15.614,0,0,1-4.263,5.463,19.083,19.083,0,0,1-6.374,3.394,28.18,28.18,0,0,1-17.632-.538,23.5,23.5,0,0,1-7.035-4.346Z" transform="translate(-1556.898 -493.042)" fill="#fff"/>
      </g>
      <path id="Trazado_238" data-name="Trazado 238" d="M1627.309,491.449a20.142,20.142,0,1,0,20.142,20.142A20.142,20.142,0,0,0,1627.309,491.449Zm0,32.349c-5.8,0-10.5-5.465-10.5-12.207s4.7-12.207,10.5-12.207,10.5,5.465,10.5,12.207S1633.108,523.8,1627.309,523.8Z" transform="translate(-1574.522 -491.449)" fill="#fff"/>
    </g>
    <g id="Grupo_101" data-name="Grupo 101" transform="translate(1059.401 486.199)">
      <g id="Grupo_100" data-name="Grupo 100">
        <g id="Grupo_98" data-name="Grupo 98" transform="translate(0.383)">
          <g id="Grupo_97" data-name="Grupo 97">
            <g id="Grupo_96" data-name="Grupo 96" transform="translate(0 13.266)">
              <path id="Trazado_239" data-name="Trazado 239" d="M1059.991,507.31h9.571c4.548,0,8.873,1.331,8.873,6.135,0,3.438-1.7,5.137-4.361,5.8v.075c2.844.406,5.317,2.22,5.317,5.841,0,4.988-4.253,6.767-9.94,6.767h-9.46Zm8.608,9.793c2.072,0,2.959-.736,2.959-2.327,0-1.514-.926-2.218-2.809-2.218h-1.814V517.1Zm.517,9.575c1.883,0,3.181-.627,3.181-2.4,0-1.739-1.07-2.4-2.959-2.4h-2.4v4.8Z" transform="translate(-1059.991 -506.867)" fill="#fff"/>
              <path id="Trazado_240" data-name="Trazado 240" d="M1107.6,507.31h6.767l9.757,24.62h-7.688l-1.185-3.477H1106.5l-1.146,3.477h-7.132Zm5.73,15.636-1.329-3.883a34.919,34.919,0,0,1-1.146-4.286h-.078a40.967,40.967,0,0,1-1.144,4.286l-1.292,3.883Z" transform="translate(-1073.394 -506.867)" fill="#fff"/>
              <path id="Trazado_241" data-name="Trazado 241" d="M1148.559,507.31h7.133l6.732,9.646a46.845,46.845,0,0,1,2.843,4.548h.075c-.039-.185-.15-2.331-.15-4.287V507.31h6.358v24.62h-6.43l-7.544-10.611a43.414,43.414,0,0,1-2.695-4.1h-.075c0,.221.108,1.883.108,3.731V531.93h-6.355Z" transform="translate(-1091.044 -506.867)" fill="#fff"/>
              <path id="Trazado_242" data-name="Trazado 242" d="M1196.649,519.377c0-6.724,4.322-12.749,13.232-12.749a13.6,13.6,0,0,1,7.766,2.031l-3.032,5.1a8.74,8.74,0,0,0-4.842-1.331c-3.623,0-5.658,2.773-5.658,6.726,0,4.141,1.922,7.135,5.73,7.135a8.293,8.293,0,0,0,5.213-1.739l2.812,4.881a13.427,13.427,0,0,1-8.136,2.7C1200.785,532.13,1196.649,526.106,1196.649,519.377Z" transform="translate(-1107.904 -506.628)" fill="#fff"/>
              <path id="Trazado_243" data-name="Trazado 243" d="M1237.672,519.415c0-6.614,4.434-12.787,13.193-12.787,8.8,0,13.124,6.061,13.124,12.566,0,6.619-4.177,12.935-12.975,12.935C1242.256,532.13,1237.672,525.96,1237.672,519.415Zm18.89,0c0-3.844-1.369-7.169-5.547-7.169-4.253,0-5.877,3.142-5.877,6.948,0,3.88,1.588,7.319,5.728,7.319C1255.117,526.514,1256.562,523.223,1256.562,519.415Z" transform="translate(-1122.287 -506.628)" fill="#fff"/>
              <path id="Trazado_244" data-name="Trazado 244" d="M1290.723,507.31h7.1v19.035h8.758v5.585h-15.857Z" transform="translate(-1140.887 -506.867)" fill="#fff"/>
              <path id="Trazado_245" data-name="Trazado 245" d="M1325.554,507.31h8.8c9.643,0,14.155,4.841,14.155,11.937s-4.622,12.682-14.38,12.682h-8.573Zm9.132,19.035c4.319,0,6.359-2.365,6.359-6.875,0-4.583-2.04-6.577-6.55-6.577h-1.884v13.452Z" transform="translate(-1153.099 -506.867)" fill="#fff"/>
              <path id="Trazado_246" data-name="Trazado 246" d="M1373.428,507.31h15.453v5.73h-8.5v3.7h7.5v5.324h-7.5v4.14h8.759v5.731h-15.715Z" transform="translate(-1169.884 -506.867)" fill="#fff"/>
              <path id="Trazado_247" data-name="Trazado 247" d="M1416.169,519.358,1408.7,507.31h8.022l3.582,6.246,3.4-6.246h7.024l-7.024,11.937,7.838,12.682H1423.6l-4.105-7.025-4.064,7.025h-7.023Z" transform="translate(-1182.148 -506.867)" fill="#fff"/>
            </g>
            <path id="Trazado_248" data-name="Trazado 248" d="M1509.027,506.431c-1.219-3.116-4.791-5.343-10.619-6.632l.017-.025-.056-.01c1.687-2.874,1.993-5.381.9-7.462-2.121-4.049-9.332-6.1-21.433-6.1-4.8,0-8.583.355-8.621.358l-.828.079v54.835l1.191-.378c1.007-.319,24.769-8,36.219-23.327C1509.136,513.3,1510.222,509.484,1509.027,506.431Zm-38.079-5.724.828-.056c.438-.029.871-.055,1.3-.08l.65-.038q.8-.044,1.586-.081l.333-.016q2.947-.132,5.661-.159h.169c.536,0,1.067-.006,1.588,0l.268,0c.486,0,.967.007,1.439.016l.305.006q.687.014,1.354.035l.31.01q.662.023,1.3.055l.289.014q.657.033,1.292.075l.235.016q.673.046,1.321.1l.149.012q2.111.185,3.96.468l-25.075,36.211V500.759Zm-.729-12.4c1.352-.1,4.224-.282,7.619-.282,11.045,0,18.082,1.819,19.813,5.122.843,1.609.435,3.713-1.212,6.261-.1-.018-.215-.032-.32-.05q-.38-.062-.771-.121-.334-.05-.675-.1c-.231-.031-.468-.061-.7-.09-.271-.034-.544-.068-.822-.1-.18-.02-.364-.038-.546-.057-.346-.036-.694-.071-1.052-.1l-.185-.015q-3.939-.339-8.689-.343c-.267,0-.549.007-.821.008q-.608,0-1.228.013c-.434.007-.866.012-1.309.023q-1.063.024-2.161.064-.477.018-.96.038c-.8.034-1.619.071-2.449.116l-.325.018c-.926.051-1.872.114-2.827.18l-.374.024Zm34.114,28.36c-8.9,11.917-26.085,19.259-32.66,21.737l16.107-23.26,9.5-13.719c5.635,1.127,9.012,3.033,10.043,5.669C1508.272,509.522,1507.265,512.743,1504.332,516.67Z" transform="translate(-1203.178 -486.199)" fill="#fff"/>
          </g>
        </g>
        <g id="Grupo_99" data-name="Grupo 99" transform="translate(0 48.623)">
          <path id="Trazado_249" data-name="Trazado 249" d="M1061.2,565.141h-.569v2.789H1059.4v-6.662h1.98c1.393,0,2.064.446,2.064,1.9C1063.445,564.937,1062.534,565.141,1061.2,565.141Zm-.127-2.97h-.442v2.064h.406c.793,0,1.168-.2,1.168-1.058C1062.209,562.365,1061.823,562.171,1061.078,562.171Z" transform="translate(-1059.401 -561.141)" fill="#fff"/>
          <path id="Trazado_250" data-name="Trazado 250" d="M1074.054,567.93a7.408,7.408,0,0,1-.085-1.041c0-.265-.009-.561-.027-.847-.055-.764-.193-.966-1-.966h-.488v2.855h-1.236v-6.662h2.09c1.162,0,1.992.238,1.992,1.724,0,.831-.26,1.437-1.132,1.622.866.064,1,.527,1.029,1.657.012.253.018.518.03.775a5.417,5.417,0,0,0,.109.884Zm-1.009-5.759h-.587v2h.478c.812,0,1.108-.231,1.108-1.069C1074.045,562.413,1073.7,562.171,1073.046,562.171Z" transform="translate(-1063.546 -561.141)" fill="#fff"/>
          <path id="Trazado_251" data-name="Trazado 251" d="M1085.326,567.992c-2.088,0-2.182-1.428-2.182-3.365,0-2.045.064-3.554,2.219-3.554,2.213,0,2.232,1.436,2.232,3.544C1087.595,566.545,1087.531,567.992,1085.326,567.992Zm.037-6.017c-.974,0-.974,1.094-.974,2.515,0,1.669.008,2.6.974,2.6s.969-.968.969-2.644C1086.332,563.006,1086.341,561.976,1085.363,561.976Z" transform="translate(-1067.725 -561.073)" fill="#fff"/>
          <path id="Trazado_252" data-name="Trazado 252" d="M1101.049,567.93V562.09l-1.375,5.841h-1.29l-1.371-5.841v5.841h-1.1v-6.662h2.021l1.151,5.335,1.132-5.335h2.023v6.662Z" transform="translate(-1072.203 -561.141)" fill="#fff"/>
          <path id="Trazado_253" data-name="Trazado 253" d="M1114.013,568.061c-1.69,0-2.155-.9-2.155-2.394v-4.4h1.217v4.275c0,.71.006,1.614.957,1.614s.976-.848.976-1.566v-4.324h1.2v4.488C1116.206,567.278,1115.637,568.061,1114.013,568.061Z" transform="translate(-1077.793 -561.141)" fill="#fff"/>
          <path id="Trazado_254" data-name="Trazado 254" d="M1124.745,567.93v-6.662h3.48v.924h-2.258v1.815h2.095v.9h-2.095v2.1h2.331v.918Z" transform="translate(-1082.311 -561.141)" fill="#fff"/>
          <path id="Trazado_255" data-name="Trazado 255" d="M1138.122,567.93h-1.444l-1.66-6.662h1.29l1.141,5.556,1.221-5.556h1.211Z" transform="translate(-1085.913 -561.141)" fill="#fff"/>
          <path id="Trazado_256" data-name="Trazado 256" d="M1147.9,567.93v-6.662h3.481v.924h-2.255v1.815h2.092v.9h-2.092v2.1h2.331v.918Z" transform="translate(-1090.431 -561.141)" fill="#fff"/>
          <path id="Trazado_257" data-name="Trazado 257" d="M1166.664,567.93v-6.662h3.485v.924h-2.261v1.815h2.1v.9h-2.1v2.1h2.337v.918Z" transform="translate(-1097.008 -561.141)" fill="#fff"/>
          <path id="Trazado_258" data-name="Trazado 258" d="M1177.826,567.93v-6.662h1.229v5.744h2.076v.918Z" transform="translate(-1100.922 -561.141)" fill="#fff"/>
          <path id="Trazado_259" data-name="Trazado 259" d="M1197.934,567.93h-1.907v-6.662h1.891c2.228,0,2.432,1.116,2.432,3.161C1200.35,566.5,1200.323,567.93,1197.934,567.93Zm-.136-5.759h-.536v4.856h.563c1.2,0,1.263-1,1.263-2.348C1199.088,563.1,1199.078,562.171,1197.8,562.171Z" transform="translate(-1107.303 -561.141)" fill="#fff"/>
          <path id="Trazado_260" data-name="Trazado 260" d="M1208.586,567.93v-6.662h3.488v.924h-2.259v1.815h2.089v.9h-2.089v2.1h2.331v.918Z" transform="translate(-1111.706 -561.141)" fill="#fff"/>
          <path id="Trazado_261" data-name="Trazado 261" d="M1221.233,567.992c-1.52,0-2.055-.573-2.055-2.065v-.073h1.253v.083c0,.582.073,1.152.812,1.152a.755.755,0,0,0,.828-.84c0-.662-.593-.912-1.244-1.316-.848-.536-1.559-.922-1.559-2.075,0-1.3.869-1.785,2.065-1.785,1.216,0,1.9.439,1.9,1.707v.255h-1.229v-.166c0-.488-.109-.894-.726-.894a.716.716,0,0,0-.767.783c0,.7.76.976,1.39,1.392.847.544,1.414.857,1.414,2C1223.317,567.519,1222.459,567.992,1221.233,567.992Z" transform="translate(-1115.42 -561.073)" fill="#fff"/>
          <path id="Trazado_262" data-name="Trazado 262" d="M1234.221,567.93l-.393-1.528h-2.011l-.393,1.528H1230.2l1.862-6.662h1.6l1.826,6.662Zm-1.4-5.674-.758,3.242h1.512Z" transform="translate(-1119.285 -561.141)" fill="#fff"/>
          <path id="Trazado_263" data-name="Trazado 263" d="M1246.416,567.93a7.993,7.993,0,0,1-.081-1.041c0-.265-.009-.561-.027-.847-.054-.764-.194-.966-.993-.966h-.491v2.855h-1.235v-6.662h2.09c1.162,0,1.991.238,1.991,1.724,0,.831-.257,1.437-1.132,1.622.865.064,1.005.527,1.033,1.657.008.253.014.518.027.775a5.744,5.744,0,0,0,.108.884Zm-1-5.759h-.588v2h.478c.812,0,1.106-.231,1.106-1.069C1246.407,562.413,1246.068,562.171,1245.411,562.171Z" transform="translate(-1123.978 -561.141)" fill="#fff"/>
          <path id="Trazado_264" data-name="Trazado 264" d="M1258.7,567.93a7.621,7.621,0,0,1-.078-1.041c0-.265-.01-.561-.03-.847-.055-.764-.192-.966-1-.966h-.484v2.855h-1.238v-6.662h2.094c1.157,0,1.989.238,1.989,1.724,0,.831-.257,1.437-1.135,1.622.865.064,1,.527,1.032,1.657.009.253.021.518.027.775a5.426,5.426,0,0,0,.112.884Zm-1-5.759h-.59v2h.475c.814,0,1.108-.231,1.108-1.069C1258.7,562.413,1258.357,562.171,1257.706,562.171Z" transform="translate(-1128.287 -561.141)" fill="#fff"/>
          <path id="Trazado_265" data-name="Trazado 265" d="M1269.986,567.992c-2.092,0-2.183-1.428-2.183-3.365,0-2.045.063-3.554,2.222-3.554,2.21,0,2.228,1.436,2.228,3.544C1272.253,566.545,1272.187,567.992,1269.986,567.992Zm.04-6.017c-.981,0-.981,1.094-.981,2.515,0,1.669.009,2.6.981,2.6.956,0,.966-.968.966-2.644C1270.991,563.006,1271,561.976,1270.025,561.976Z" transform="translate(-1132.468 -561.073)" fill="#fff"/>
          <path id="Trazado_266" data-name="Trazado 266" d="M1280.558,567.93v-6.662h1.235v5.744h2.074v.918Z" transform="translate(-1136.941 -561.141)" fill="#fff"/>
          <path id="Trazado_267" data-name="Trazado 267" d="M1291.16,567.93v-6.662h1.235v5.744h2.073v.918Z" transform="translate(-1140.657 -561.141)" fill="#fff"/>
          <path id="Trazado_268" data-name="Trazado 268" d="M1303.4,567.992c-2.091,0-2.183-1.428-2.183-3.365,0-2.045.064-3.554,2.222-3.554,2.21,0,2.229,1.436,2.229,3.544C1305.671,566.545,1305.607,567.992,1303.4,567.992Zm.04-6.017c-.981,0-.981,1.094-.981,2.515,0,1.669.012,2.6.981,2.6s.966-.968.966-2.644C1304.408,563.006,1304.417,561.976,1303.442,561.976Z" transform="translate(-1144.184 -561.073)" fill="#fff"/>
          <path id="Trazado_269" data-name="Trazado 269" d="M1321.584,567.93v-6.662h3.485v.924h-2.255v1.815h2.089v.9h-2.089v2.1h2.331v.918Z" transform="translate(-1151.324 -561.141)" fill="#fff"/>
          <path id="Trazado_270" data-name="Trazado 270" d="M1337.888,567.93V562.09l-1.374,5.841h-1.289l-1.375-5.841v5.841h-1.1v-6.662h2.02l1.154,5.335,1.131-5.335h2.018v6.662Z" transform="translate(-1155.24 -561.141)" fill="#fff"/>
          <path id="Trazado_271" data-name="Trazado 271" d="M1350.587,565.141h-.572v2.789h-1.233v-6.662h1.98c1.389,0,2.063.446,2.063,1.9C1352.824,564.937,1351.913,565.141,1350.587,565.141Zm-.13-2.97h-.442v2.064h.4c.793,0,1.176-.2,1.176-1.058C1351.592,562.365,1351.2,562.171,1350.457,562.171Z" transform="translate(-1160.86 -561.141)" fill="#fff"/>
          <path id="Trazado_272" data-name="Trazado 272" d="M1363.431,567.93a7.6,7.6,0,0,1-.085-1.041c0-.265-.012-.561-.027-.847-.055-.764-.2-.966-1-.966h-.488v2.855H1360.6v-6.662h2.092c1.162,0,1.989.238,1.989,1.724,0,.831-.258,1.437-1.135,1.622.869.064,1,.527,1.035,1.657.01.253.019.518.024.775a5.394,5.394,0,0,0,.116.884Zm-1.005-5.759h-.59v2h.479c.809,0,1.1-.231,1.1-1.069C1363.419,562.413,1363.08,562.171,1362.426,562.171Z" transform="translate(-1165.004 -561.141)" fill="#fff"/>
          <path id="Trazado_273" data-name="Trazado 273" d="M1372.89,567.93v-6.662h3.485v.924h-2.258v1.815h2.088v.9h-2.088v2.1h2.331v.918Z" transform="translate(-1169.313 -561.141)" fill="#fff"/>
          <path id="Trazado_274" data-name="Trazado 274" d="M1385.533,567.992c-1.519,0-2.054-.573-2.054-2.065v-.073h1.253v.083c0,.582.075,1.152.811,1.152a.755.755,0,0,0,.83-.84c0-.662-.587-.912-1.245-1.316-.848-.536-1.555-.922-1.555-2.075,0-1.3.865-1.785,2.064-1.785s1.9.439,1.9,1.707v.255h-1.23v-.166c0-.488-.108-.894-.726-.894a.716.716,0,0,0-.766.783c0,.7.757.976,1.4,1.392.848.544,1.408.857,1.408,2C1387.616,567.519,1386.76,567.992,1385.533,567.992Z" transform="translate(-1173.025 -561.073)" fill="#fff"/>
          <path id="Trazado_275" data-name="Trazado 275" d="M1398.522,567.93l-.394-1.528h-2.011l-.394,1.528h-1.216l1.858-6.662h1.6l1.825,6.662Zm-1.4-5.674-.757,3.242h1.511Z" transform="translate(-1176.892 -561.141)" fill="#fff"/>
          <path id="Trazado_276" data-name="Trazado 276" d="M1410.715,567.93a8.253,8.253,0,0,1-.079-1.041c0-.265-.012-.561-.028-.847-.057-.764-.2-.966-.995-.966h-.491v2.855h-1.235v-6.662h2.095c1.157,0,1.989.238,1.989,1.724,0,.831-.257,1.437-1.131,1.622.862.064,1,.527,1.032,1.657.005.253.019.518.027.775a4.787,4.787,0,0,0,.113.884Zm-1-5.759h-.594v2h.481c.809,0,1.105-.231,1.105-1.069C1410.709,562.413,1410.367,562.171,1409.716,562.171Z" transform="translate(-1181.583 -561.141)" fill="#fff"/>
          <path id="Trazado_277" data-name="Trazado 277" d="M1420.181,567.93v-6.662h1.236v6.662Z" transform="translate(-1185.893 -561.141)" fill="#fff"/>
          <path id="Trazado_278" data-name="Trazado 278" d="M1431.35,567.93l-.4-1.528h-2.011l-.394,1.528h-1.217l1.862-6.662h1.592l1.826,6.662Zm-1.4-5.674-.757,3.242h1.51Z" transform="translate(-1188.401 -561.141)" fill="#fff"/>
          <path id="Trazado_279" data-name="Trazado 279" d="M1440.719,567.93v-6.662h1.234v5.744h2.071v.918Z" transform="translate(-1193.094 -561.141)" fill="#fff"/>
        </g>
      </g>
    </g>
  </g>
</svg>
