<?xml version="1.0" encoding="utf-8"?>
<!-- Generator: Adobe Illustrator 18.1.1, SVG Export Plug-In . SVG Version: 6.00 Build 0)  -->
<svg version="1.1" id="Layer_1" xmlns="http://www.w3.org/2000/svg" xmlns:xlink="http://www.w3.org/1999/xlink" x="0px" y="0px"
	 viewBox="0 0 162.3 29.2" enable-background="new 0 0 162.3 29.2" xml:space="preserve">
<g>
	<path fill="#FFFFFF" d="M0,28.7v-28h9.8c7.1,0,13.3,4.9,13.3,14.1c0,9.2-6.3,13.9-13.4,13.9H0z M9.6,25.2c5.2,0,9.5-3.5,9.5-10.5
		c0-7.1-4.3-10.6-9.4-10.6H3.9v21.1H9.6z"/>
	<path fill="#FFFFFF" d="M69,4.2v24.4h-3.9V4.2h-9.4V0.6h22.6v3.6H69z"/>
	<path fill="#FFFFFF" d="M86.7,28.6v-28h3.9V25h13.2v3.6H86.7z"/>
	<path fill="#FFFFFF" d="M129.2,20.8h-12.4l-3,7.8h-4.1l11.1-28h4.5l11.1,28h-4.2L129.2,20.8z M118.1,17.2h9.6l-4.9-12.6L118.1,17.2
		z"/>
	<path fill="#FFFFFF" d="M158.6,8.2c-0.3-2-2-4.8-5.9-4.8c-3.2,0-5.4,2.1-5.4,4.7c0,2,1.2,3.6,3.6,4.1l4.2,0.9
		c4.7,1,7.3,3.9,7.3,7.9c0,4.3-3.7,8.3-9.7,8.3c-6.8,0-9.9-4.3-10.5-8.3l3.7-1.2c0.3,3.1,2.5,6,6.7,6c3.9,0,5.8-2,5.8-4.5
		c0-2-1.4-3.8-4.2-4.3l-4-0.9c-4-0.9-6.8-3.5-6.8-7.7c0-4.4,4.1-8.3,9.2-8.3c6.3,0,8.8,3.9,9.5,6.9L158.6,8.2z"/>
	<path fill="#FFFFFF" d="M21.3,29.1"/>
	<g>
		<polygon fill="#FFFFFF" points="29.8,28 32.7,20.7 36.8,16.5 38.8,18.7 		"/>
		<polygon fill="#FFFFFF" points="36.8,0 41,0 52.1,28 45.1,20.7 		"/>
	</g>
</g>
</svg>
