<svg xmlns="http://www.w3.org/2000/svg" width="337.424" height="459.199" viewBox="0 0 337.424 459.199">
  <g id="Grupo_32" data-name="Grupo 32" transform="translate(-817.2 -147.357)">
    <path id="Trazado_18" data-name="Trazado 18" d="M1018.333,148.882v.519h.758c.2,0,.36-.519.759-.26a2.907,2.907,0,0,1,.6.419c.319.279.758.44.2.639s-1.518.4-1.558.559-.679.519-.758.36.279-.8-.4-.919-.718.44-.6.719a.684.684,0,0,1-.052.718c-.147.2-.187-.08-.587.32s-.479.559-.718.6-.759-.4-.759-.4-.638-.079-.32-.359.261-.957-.089-1.077.17.957-.709,1.4-1.836.279-1.916.718.2.8.4.8a1.018,1.018,0,0,1,.878.2,2.137,2.137,0,0,1,.759.879c.119.32.479.559.519.718s-.718.559-.959.6-1-.519-1.078-.239.559.8-.12,1a4.541,4.541,0,0,1-1.158.2s-.519.119-.519-.479V155.39s.559.12.639-.2a1.32,1.32,0,0,0-.239-.8s-.8-.48-1-.239-.04.6-.559.638-.32-.079-1-.159-1.119-.279-1.318-.12a.621.621,0,0,1-.679.16c-.4-.08-.718-.279-.838-.08a.811.811,0,0,0-.159.6c.04.239,1.317.879,1.317.879s.32.36.32.559v1.2l-.36,1.558-.879,1.4a4.49,4.49,0,0,1-1.6,3.275c-1.558,1.118-2.117.838-3.434,2.077s-.639,1.357-1.8,1.478-1.837.159-1.837.159.959-.12-1.477.279-2.157.279-2.157.279a2.871,2.871,0,0,0-1.717.279,13.717,13.717,0,0,0-1.317,1,5.1,5.1,0,0,1-1.358.919c-.439.119-1.357.2-1.557.439a6.822,6.822,0,0,0-.52.919A8.906,8.906,0,0,1,986.067,173a1.42,1.42,0,0,1-.758.8c-.52.16-1.6.639-1.6.639s-.919.44-1.038.719a7.014,7.014,0,0,1-.56,1.078,2.262,2.262,0,0,1-.838.8c-.32.16-.8.36-.8.36a3.359,3.359,0,0,0-1.118.4c-.4.279-.6.32-.6.519s.28.559,0,.719a3.947,3.947,0,0,1-2.835,2.156c-2.237.4-1.158.559-3.355.4s-2.636-.28-3.194,0a10.1,10.1,0,0,1-1.158.479,3.058,3.058,0,0,0-1.318-.239c-.718.04-2.515.2-2.515.2h-1a2.209,2.209,0,0,1-1.158-.239,5.539,5.539,0,0,1-1.477-.6c-1.158-.639.4-.08-1.757-.8s-2-.838-2.715-.838a3.494,3.494,0,0,0-1.318.08,5.758,5.758,0,0,1-1.277.159s-.16-1.2-.919-.239a3.249,3.249,0,0,0-.8,1.437s-1.317.519-1.4.838.08,1.637,0,2.157.04,1.038,0,1.717.679.919,0,1.478.08,1.6-.718,1.836-1.518,1.079-3.195.959a24.371,24.371,0,0,1-4.952-.959c-1.917-.519-2.836-.879-3.794-1.158s-1.079-.958-2.317-1.078-1.118-.4-1.956-.08a9.56,9.56,0,0,0-1.637.919c-.52.279-.879.4-1.039.838s0,.6-.639.759a3.758,3.758,0,0,0-1.637.771,4.247,4.247,0,0,1,0,1.026,1.742,1.742,0,0,1-.479.919,6.414,6.414,0,0,1-1.238,0,2.986,2.986,0,0,1-.759.879,5.9,5.9,0,0,1-1.517,1.2c-.839.44-.32.04-1.478.4s-.878.04-1.318.719a11.052,11.052,0,0,0-.6,1.158c-.279.479-.04.638-.639.838s-1.118-.08-1.4.159-.159.559-1,1.238-.719,1-1.278,1.158-.919-.2-1.158.239-.879.519-.239.919,1.158.559.718,1.558-1.038,1.118-1.2,1.557,0,1.039-.638,1.278-1.318.32-1.358.758-.36.8.279,1,.759-.161,1.2-.521.6-.559.879-.36.36.279.36.639.08,1.038-.16,1.278a2.161,2.161,0,0,1-.879.559c-.24.039-.839-.2-.918-.08s-1.03.439-.874.919.634.6.2,1.038-1.4.48-1.917,1.079-.638,1-.159,1.317.44-.04,1.038-.639.6-.8,1.2-1.118.879-1.357,1.478-1.437.838.159.878.959.679,1.038.08,1.317-.959.12-1.158.28-.159.4-.479.758-1.113-.36-.395,1.078.274.88.674.96,1.118-.04,1.2.2.159.8-.2.959-.678,0-.958.159c0,0-.564.484-.5.919s.449.464,0,.779-.659.15-.854.809-.554.644-.21,1.093.464.389.255.973.225.809-.6,1.587-1.123.6-1.453,1.048-.314.569-.06.868.464-.149.868,0,.674.314.884,1.093-.164.824.554,1.138a1.243,1.243,0,0,1,.839,1.617c-.2.854-.255.524-.66,1.542s.135.688-.643,1.558a2.6,2.6,0,0,1-1.3.973c-.66.36-.585-.045-.974-.045a1.125,1.125,0,0,0-.928.375c-.419.344-.2.793-1.109.568s-1.857.015-1.452-.509.18-.18.748-.36.989-.569.4-.644a6.728,6.728,0,0,0-1.378.031c-.435.014-.314.284-.494.4s-.3.089-.734-.015a2.139,2.139,0,0,0-1.287.136c-.45.164-.389.089-.674.613s.1.794-.585.734-.388.12-.928.165-.225-.21-.824.1-.673.074-1.093.613-.434.314-.673,1.018.434.569-.345.929-.823.239-1.228.568-.239.136-.463.63.06.538,0,1.392.03.793-.241,1.243-.509.389-.883.9-.794.225-.944.719a3.245,3.245,0,0,1-.434.973c-.33.613-.285.269-.435.928s.3.674-.4.929a5.451,5.451,0,0,1-1.289.33c-.224.03-.538.075-.853.673s.149.525-.435.884-.4.075-1.093.494-.569.449-1.168,1.079a5.421,5.421,0,0,1-1.557,1.228,8.683,8.683,0,0,0-1.528,1.108c-1.453,1.123-.644.779-1.9,1.378a7.4,7.4,0,0,0-1.812,1.228c-.419.269-.838.194-1.573.21a12.507,12.507,0,0,0-2.785.36c-.375.18-.33.194-.344.734s.374.479-.3.779-.9.135-1.093.613-.644.585-.164.884.629.374.943,0,.21-.613.569-.374.344.372.524.628a.968.968,0,0,0,.838.286,1.05,1.05,0,0,1,.569.194s-.12.375.434,1.184.51.254,1.019,1.018.463.314.344,1.2a8.238,8.238,0,0,1-.51,1.648c-.21.763-.674.688.016,1.572s.419.854.4,1.467a15.216,15.216,0,0,0,.09,2.486c.119.585.329.314.494.854s.24.584-.045,1.018a1.457,1.457,0,0,0-.36,1.467c.15.943.1,1.364-.329,1.722s0,.719-.689.943a5.62,5.62,0,0,1-2.351.1c-1-.089-1.422.136-1.5-.688a6.922,6.922,0,0,1-.045-1.752c.075-.763-.12-.868.194-1.153s.285-.435.66-.314.014.838.613.359.4-.434.749-.823.464-.419.329-1.063.315-1.078-.419-1.153a2.677,2.677,0,0,0-1.153.089s-.269-.089-.524.314-.21.585-.464.764-.075.36-.494.21-.734-.061-.554-.464a1.675,1.675,0,0,1,.494-.763c.36-.375.524-.165.449-.6a8.127,8.127,0,0,0-.18-.794s-.052-.538-.333-.659-.745.03-.356-.374a1.525,1.525,0,0,0,.51-1.093c-.045-.225-.031-.51-.569-.494s-.48.015-.809.21.075.509-.614.225a3.026,3.026,0,0,1-1.632-1.992c-.375-1.093.135-1.258-.854-1.827s-.973-.419-1.558-.973.2-.6-.9-.9-1.228-.225-1.453-.794a6.264,6.264,0,0,1-.4-.973c-.075-.36-.674-.375-1.063-.943s.18-.075-.6-.913-.33-.988-.959-.988-.809.03-.928.688a2.129,2.129,0,0,1-.585,1.362c-.374.36-.734.45-.838.779a2.783,2.783,0,0,0-.03,1.048c.03.255.03.824.419,1.049a4.573,4.573,0,0,1,1.183.987c.389.45.749.539,1.018,1.123a3.413,3.413,0,0,1,.136,1.663,1.818,1.818,0,0,0,.494,1.243,12.522,12.522,0,0,1,1.752,2.037,9.5,9.5,0,0,1,1.123,2.156s-.6-.224-.12.794a9.9,9.9,0,0,1,.809,1.722c.2.688-.03.674-.03,1.467a10,10,0,0,1-.135,1.542c-.075.734.3.644-.375,1.063s-.434.659-1.2.763a4.139,4.139,0,0,1-1.273,0,5.3,5.3,0,0,0-.6.659c-.24.33-.36.494-.959,1.453s-.3,1.034-1.153,1.813a18.192,18.192,0,0,0-1.8,2.2c-.959,1.138-.854.793-.959,1.617s.165,1.212-.584,1.317-1.258.33-1.857,0-.449-.06-.749-.973a3.468,3.468,0,0,0-.913-1.736c-.449-.4-.21-.794-.928-.929s-.749-.33-1.3-.045-.839.255-.764.988,0,.959.314,1.362.765.18.749,1.018a4.472,4.472,0,0,1-.18,1.3c-.014.075.15-.3-.239.225s-.164.4-1.139.629-.913-.194-1.212.554a8.267,8.267,0,0,0-.374,1.408,12.828,12.828,0,0,1-.555,1.348c-.149.494.061,1.137-.4,1.737s-.973.6-.719,1.109.839.539,1.243,1.108.045.7.539,1.064,1.542,1.287,2.636,2.1a15.659,15.659,0,0,1,1.8,1.633,1.577,1.577,0,0,1,.644,1.438c.016.584-.344.449-.854.688s-.509.494-.538,1.034-.494,1.483-.061,1.977.51.838.7.255-.089-1.2.315-1.213,1.586,1.183,2.276,1.9a2.159,2.159,0,0,1,.823,2.231c-.21,1.034-.419,1.184.2,1.453s.629.688.913.4.269-.285.135-.555-.285-.659.014-.913-.044-.584.854-.374,1.064-.06,1.453.479a1.811,1.811,0,0,1,.389.959s-.614.33-.061.688a5.622,5.622,0,0,1,1.648,1.663c.3.569.239.524.044,1.109s-.419.269-.479,1.093a5.088,5.088,0,0,0-.089,1.392c.074.718.21.793.06.913s-.749.15-.779.374-.285.524.015.749.524-.389.6.33-.165,1.033-.061,1.572.135.793-.1,1.123-.629.494-.868.3a1.285,1.285,0,0,1-.449-.659c-.15-.36.06-.435-.45-.494s-.688-.464-.7.075.179.688-.015,1.034a2.65,2.65,0,0,0-.3.853,2.037,2.037,0,0,0,.33,1.318,9.636,9.636,0,0,0,.854,1.093c.629.763,0,.958.809,1.033s.823.03,1.168.075.584-.285.524.27.119.958.014,1.782.239.988.36,1.722.135.613.21,1.228.015,0,.763,1.033,1.079.749,1.184,1.558.254,1.168-.165,1.8-.913.36-1.212.959.164.464-.27,1.2-.643,1.392-1.467,1.527-.809-.464-1.647-.075-.539.644-1.408.824-1.063-.12-1.273.285-.479.224-.194.809.269.928.194,1.078-.224.18.09.479.419.644.854.314.344-.734.673-.554a2.079,2.079,0,0,1,.6.585s-.613.149-.194.344.839.18.973.269.585.868.075,1.034-.809.06-.719.449a5.111,5.111,0,0,1,.24,1.243c-.045.239-.016.374.344.494a1.611,1.611,0,0,1,.928.463c.33.36.539.719.435.913s-.569.27-.569.27-.089-.66-.494-.33-.164.809-.149,1.558-.585,1-.045,1.123.524-.075.868,0,.36.509.629.1.344-.389.569-.36.51,0,.584.164a.472.472,0,0,1-.03.539,4.1,4.1,0,0,1-.434.314,2.412,2.412,0,0,0-.7,0,5.109,5.109,0,0,0-.794.194c-.4.12-.344.061-.434.255a6.936,6.936,0,0,0,.509,2.171c.3.869.3.749.225,1.439s.119,2.126.089,3.114-.449.868.15,1.378.688.419,1.078.9.03.659.644.868a2.221,2.221,0,0,1,1.2.884,1.138,1.138,0,0,1,.224.674c-.014.3.255.435-.074.569s-.569.494-.764.045-.269-.464-.269-.644.03-.285-.33-.374-.928-.075-1,.179-.269.285-.15.51.375.419.419.644.435.254.18,1.018-.239.6-.389,1.123-.15.6.015.928.314.389.164.66-.225-.075-.314.314-.135.629.089.718.555-.135.389.164-.584.6-.643.719-.075.1-.015.36a.993.993,0,0,0,.21.494c.135.18.689-.135.824.434s.659.838.044.9a2.267,2.267,0,0,0-.913.239,3.872,3.872,0,0,0-1.586.793c-.375.435-.2.6-.644,1.018s-.719.075-.749.7.2.943-.224,1.123-.285.419-.555.18a1.509,1.509,0,0,1-.374-.494s-.33-.524-.6-.269a4.182,4.182,0,0,0-.569.884c-.135.21-.18.164-.014.659a7.483,7.483,0,0,1,.15,2.066c-.015.674-.719.689.044,1.228s1.034.569,1.214.988.254.644.419.629.479-.643.763-.374-.1.089-.1.674-.314.763.21.9.554-.03.854.135.255.809.374,1.049.15.778.479.748.33-.149.555-.4.479-.3.374-.7-.285-.419-.15-.6a3.017,3.017,0,0,1,.435-.449,2.276,2.276,0,0,0,.449-.524c.285-.389.2-.48.419-.749s-.164-.659.569-.554.793.06,1,.314.031.4.389.554.839.119.674.36-.734.4-.853.524-.225.135-.18.449.18.524.1.674.119.36-.27.36-1.033-.061-1.228.359-.643.45-.779.838.539.464.794.569.314-.03.36.48-.45.748.329.748,1.453-.03,1.453-.03.718.06,1.123.09a.942.942,0,0,0,.793-.285c.21-.18.524.06.345-.33s-.45-.479-.389-.823.044-.48.434-.539.255-.15.66-.075.089-.239.928,0,.943,0,1.018.389.21.539.15.718-.614.375-.614.375-.285-.285-.329-.015a5.538,5.538,0,0,0-.2.794c0,.254-.479-.015-.014.809s1.167,1.513.868,1.916.12.569-.793.449-1.123.945-1.364.039-.164-1.028.135-1.042.375-.164.375-.164.224-.389-.285-.63-.6-.613-.9-.4a.955.955,0,0,0-.3.838c0,.239.075.4-.225.659s-.539.314-.554.764-.239,1.033.06,1.183a7.677,7.677,0,0,0,1.124.285c.359.1.659.06.584.239a.9.9,0,0,1-.629.569,4.482,4.482,0,0,1-.838.075c-.091,0,.718.374-.539,1s-1.916.36-2.337,1.078-.987,1.558-.987,1.558-.719.06-.809.569a1.05,1.05,0,0,0,.21.969c.18.229.868-.131.419.589a3.814,3.814,0,0,1-.989,1.078,1.853,1.853,0,0,0-1.258.779,2.784,2.784,0,0,1-1.528.928,2.382,2.382,0,0,0-.749.539,8.376,8.376,0,0,1-.958.929c-.21.089-.629.659-.239,1.018s.748-.45,1.108-.21a1.544,1.544,0,0,1,.449,1.138c0,.239-1.408.539-1.408.539l-1.078.449a1.384,1.384,0,0,1-.419.749c-.36.329-.569.629-.868.868s-.24.449-.988.779a2.324,2.324,0,0,0-1.079.688,5.033,5.033,0,0,0-.809,1.708h.539s.51-.569.868-.36a1.318,1.318,0,0,1,.51.6l-.33.779s-.688-.15-.569.3-.928-.18-1.167.33-.51.479-.18,1.018.449.629.389,1.018a1,1,0,0,1-.51.9,2.355,2.355,0,0,1-1.317.239.335.335,0,0,0-.3.51c.18.269.809.33.989.569s.629.6.239.749a3.958,3.958,0,0,1-.988.179s-.6-.688-1.078-.688a.812.812,0,0,0-.688.36,5.534,5.534,0,0,1,.6,1.736,1.794,1.794,0,0,1-.51.719s-.809-.389-.809-1.018,1.408-1.528-.15-1.138-1.557.6-1.707.929a2.1,2.1,0,0,0-.15,1.078c.03.419.51.9,0,.988s-.718.389-.988-.21.18-.868-.269-1.048-.539-.449-.749.06.45,1.558-.269,2.157-.809.838-1.408,1.108-1.288.09-1.258-.479a2.9,2.9,0,0,0,0-1.433c-.21-.663-.239-1.113-1.109-.873s-.748.42-1.347.6-.989-.449-.929.389.438.6-.006,1.289-.773.988-1.012,1.018.12-.629-.538-.66-.69-.149-1.079.48a2.806,2.806,0,0,0-.36,1.408s.959.21.389.748-.568,1.049-.718,0,.479-1.153-.21-1.43-1.289.143-1.079-.336.719-.779.21-.988a1.544,1.544,0,0,0-.809-.15s-.6,1.947-1.736,2.307-1.707-.24-2.1.388-.45.689-.389,1.259.568.9-.12,1.287-.6.419-.779.6-.718-.749-.329.9.568,1.018.9,1.947-.569.569.389,1.138a1.857,1.857,0,0,1,.839,1.946c0,.539-.03,2.456-.779,2.636s-1.437-.629-2.187-.36-1.586.15-1.078.779.3.749.9.809.718-.569,1.167.09.929.958.809,1.467-.928.33-.329.868.269.33,1.018.449.868.389.868.749.06,1.947-.688,2.546-.839,1.167-1.468.329-.9-1.258-1.5-.928-.3.779-1.108.6-.061-.03-1.378-.6-.33-.719-1.8-.51-1.5.689-2.157,1.348a26.683,26.683,0,0,1-2.336,2.606c-1.079.9-1.378.3-1.378,1.377s-.749,1.2.779,2.277.119,1.018,1.766.988,1.617-.33,1.8.239a17.764,17.764,0,0,1,.419,1.736c.09.45.33.569.749.9s1.078.149,1.857,1.137.51,1.259,1.587,2.067.838.3,1.437.778,1.917,2.277,2.726,2.4,1.677-.18,1.946.03.36,1.018,1.318,1.827,1.108.24,1.677,1.259,1.258.809,1.857.809,1.2-.15,1.378.3,3.564,2.936,4.852,3.954.9,1.736,2.576,2.126a18.259,18.259,0,0,0,2.725.569,2.842,2.842,0,0,0,1.378-.33,8.565,8.565,0,0,1,1.467-.838,8.4,8.4,0,0,1,1.947-.18c.419,0,.778-.6,1.437-.15s1.976.09,1.2.779-.539.929-.929,1.378a3.219,3.219,0,0,0-.539,1.288l1.049,1.109a1.852,1.852,0,0,0,2.126,1.647c2.007-.089,2.966-.449,3.055.15s.539.868.09,1.228a6.8,6.8,0,0,1-1.168.688s-.569.09-.12.659.779.51.989.959a9.919,9.919,0,0,1,.389,1.018s-.389.15-.24.988.538,1.168.779,1.258a9.758,9.758,0,0,0,1.5.09l1.348-.629s1.137.149,1.408.568.119.63.718.689a5.767,5.767,0,0,0,1.437-.12s.988-.239,1.348-.329.779-.45,1.258-.21l.838.419.66.629a6.149,6.149,0,0,1,2.276.569c.928.509.659.838,1.647,1.437s.928.119,1.767-.061a1.953,1.953,0,0,1,1.8.21c.63.389.569.719.929.389a.628.628,0,0,0-.03-1.018c-.33-.21-.9-.449-.3-.569a5.693,5.693,0,0,1,1.558.031s1.138.419,1.348.538a4.326,4.326,0,0,1,.9.51c.419.329-.329.6.659.9a1.544,1.544,0,0,0,1.827-.718c.36-.45.18-1.018.809-.66s1.138.719,1.348.66.51-.569.51-.569a13.007,13.007,0,0,1-.15-1.647c.03-.419-.569-.9.18-1.617s1.018-.929,1.377-.838.569.329.929.239a1.33,1.33,0,0,0,.929-.51,1.265,1.265,0,0,1,.748-.449,1.92,1.92,0,0,0,1.048,1.018c.779.3.988,0,1.8.151s1.018.149,1.168.359a2.742,2.742,0,0,0,.569.659c.419.389.539.3.988.389s.659.089.779.3-.36.6.18.6.509-.389.9,0a2.623,2.623,0,0,1,.809,1.677c-.03.569-.33.809.06,1.438s.51.928.989,1.2.868.18,1.378.42.959.06,1.108.509.27.479.36.809-.03.539.6.779a4.177,4.177,0,0,0,2.756.659c1.287-.269,1.347-.329,2.126-.479s1.048-.659,1.467,0,.27.629.869,1.108a4.667,4.667,0,0,0,1.467.838c.749.33.479-.21,1.677.629a5.484,5.484,0,0,0,2.037.959c.749.3,1.138.36,1.738.659s.6.779,1.378.12a6.963,6.963,0,0,0,1.108-1.258c.269-.269.239-.659.988-.36s.809.21.989.419-.03.51.809.6.838-.419,1.2.09.6.242.928.839a3.638,3.638,0,0,0,.779,1.017c.36.389.51-.36,1.228.748s1.289.21,1.738.839.569,1.018,1.168.748.839-1.258,1.377-1.438.569.239,1.318.838.629,1.228.659,1.888-.389.718.33,1.437.958.868,1.347.868.629.18.838,0,.569-.36.839,0,.629.718.778.929.6.748.6.748a1.412,1.412,0,0,0,.539,1.168c.6.449.359.18,1.318.569s1.048.3,1.527.9.479.629.839,1.018.809.33.659.719a1.137,1.137,0,0,0,0,.988c.15.239.6.419.6.538s-.419.239-.21.629a4.673,4.673,0,0,0,.929.959l-.419.479-.659.33s-.27.21-.031.629a2.513,2.513,0,0,0,.689.719,1.656,1.656,0,0,1,1.317,1.018c.36.928.21.959.779.988s1.168-.27.809.269.09.868-.6.809-.718-.688-1.078-.3a1.513,1.513,0,0,0-.33.988,5.773,5.773,0,0,0,.749.779c.479.419.719.659.809,1.018a4.051,4.051,0,0,1,.239.959c-.03.21-.15.629.51.659s.479-.3,1.467-.06,1.288.269,1.617.569.718.779,1.108.748.51-.089.6-.509-.419-.838.09-.929.748-.419.928.03a2.933,2.933,0,0,1,.03,1.259,4.941,4.941,0,0,0-.149.809c0,.239.239-.419,1.168,0s-.211.809.689.928,1.048-.3,1.348-.269.659-.21.718.479.21.959.21,1.378-1.258.36.389,1.138,1.857,1.048,2.1.809a2.39,2.39,0,0,0,.33-1.018s.3-.48.929-.061.748.45.868.629.3.619,1.2.534a1.611,1.611,0,0,1,1.8,1.233c.329.9-.51.719.239,1.437s1.048.419,1.137.988a12.656,12.656,0,0,0,.3,1.287,1.878,1.878,0,0,0,.449.69c.269.21.838.629.838.629s.33-.03.389.659.239,1.289.27,1.588.269.449-.09.9-.449.09-.779.66a7.9,7.9,0,0,0-.509,1.467c-.18.449-1.018.59-.239,1.283s1.048.184,1.946,1.2.9,1.318,1.767,1.109a1.891,1.891,0,0,1,1.408-.03c.569.149,1.137.419,1.557.06s.18-.449.749-.539.839.419.868-.21.12-.928.45-.718.958.149.988.568-.45.687-.12,1.078.779.39.809.839.06,1.078.06,1.078,1.827-.839,1.617.719a3.822,3.822,0,0,1-.479,1.857c-.33.809-.69.36-.21,1.048s.959,1.258.959,1.258.748.6.688.989a2.861,2.861,0,0,1-.36.868s-1.287-.179-1.317.15a2.492,2.492,0,0,0,.089.749,1.035,1.035,0,0,1-.239.838c-.33.33-.9.21-1.109.269s-.239.061-.239.27-.089.659.779,1.587.449.539.809,1.259.6.868.929,1.018,0,.809.809.149a1.636,1.636,0,0,1,1.887-.239c.509.18.449-.03.719.12a4.372,4.372,0,0,1,.778.868s-.449.809-.18,1.078.779.27.779.569-.568.719.091.779a3.858,3.858,0,0,0,1.8-.659,10.711,10.711,0,0,0,1.258-.719s-.21-1.2.479-.569,1.109.42,1.109.42.419-.689.568-.719.689,0,.719.239.12.719.12.719-.51.688.119.569.929-.27.959-.569.089,0,.15-.749a2.706,2.706,0,0,1,.149-.9l.6-.27s.9.66,1.678,1.2a1.5,1.5,0,0,0,1.916.18,4.287,4.287,0,0,1,1.437-.419,2.024,2.024,0,0,1,.959.389c.3.3-.929-.15.6.688s1.647.9,2.187.629a5.509,5.509,0,0,1,1.377-.389,2.58,2.58,0,0,0,1.168-.21,1.492,1.492,0,0,0,.51-.688s-.03-.569.389-.06-.36,1.108.479.838,1.048.15,1.018-.779a3,3,0,0,1,1.617-2.4c.779-.36.6-.239,1.108-.03s.779.809,1.378.539.989-.09,1.139-.959.36-.959.959-1.018,1.167.719,1.287-.539-.15-1.377.21-1.916.269-.33,1.018-.809.749-.24,1.258-.839.659-.779.809-.779-.21.269.09.838-.569.839.03,1.378.329.838.9.569.21-.66.9-.809.538-.539.868-.18.3.06.509.569.389.659.9.629.988-.239,1.527.329.3.9.48,1.977.39,1.287.748,1.138a1.077,1.077,0,0,0,.569-1.259c-.18-.568-.569-.987.18-1.078s.929.21,1.168.749a3.425,3.425,0,0,1,.479,1.558c-.06.449-.659.718-.03,1.108s.659.929,1.288.449a6.283,6.283,0,0,0,1.2-1.108c.359-.419.061-.779.749-.6a10.846,10.846,0,0,1,1.138.3c.3.12-.15.18.928.36s1.647.3,1.827-.449-.119-.809.359-1.617.779-1.138,1.528-.838.479.538,1.078.659.809-.089.838-.33a4.6,4.6,0,0,0-.18-.988c-.089-.509-.688-.958.03-1.2s1.2-.24,1.408.239-.21,1.018.359,1.078a1.578,1.578,0,0,0,1.078-.419s-.03-.719.719-.18.9.539.988.9-.061.509.329.718a6.837,6.837,0,0,0,1.288.33c.269.089-.061-.33.509.149s-.089.12.929.719a8.979,8.979,0,0,0,1.588.749c.838.389.119.779.419,1.078s.389.03.718,1.348.779,1.647,1.109,1.5.479-.269.538-.509a11.585,11.585,0,0,0-.06-1.259c0-.6-.12-.718.33-.718s.839.119.9.569-.3.987.36,1.078.839-.239,1.2-.12.629.24.629.629-.239.45.18.749.839-.14,1.168-.2.269-.365.928-.395,1.138-.389,1.287.03a1.346,1.346,0,0,1-.119.929s-1.048.21-1.228.449-.629.51-.27.9a2.611,2.611,0,0,0,1.2.538s.48-.538.779-.868.15-.539.54-.539.868-.36.868-.06a12.85,12.85,0,0,0,.21,1.647,1.24,1.24,0,0,0,.838.9s.9.031,1.138.389-.629.839.33,1.2,1.078.18,1.228-.269-.21-.779.568-.779.719.749.719,2.066-1.258,2.7-2.036,3.954-15.794,24.958-15.794,24.958.04.159,1.079.519.32,1.357,1.2,1.238.638-.6,1.517-.52,1.079.22,1.238.529.04.869.8.829.918.32,1.278-.16.919-1.2.919-1.2a1.232,1.232,0,0,1,.718-.839,7.727,7.727,0,0,1,1.718-.439,1.464,1.464,0,0,1,1.478.159c.958.48,1.118.2,1.516,1s.919.982.959,1.569a2.926,2.926,0,0,0,1.078,1.785c.639.6,1.119,1.118,1.119,1.6a1.616,1.616,0,0,0,.4,1.158,7.437,7.437,0,0,1,1.158.8c.679.6,1.4,1,1.638,1.518s.479,1,.519,1.158-.16.479.279.44,1.478-5.751,1.478-5.751l12.938-70.72a6.59,6.59,0,0,0,1.2-1.8c.06-.51,0,.18-.51-1.258s-1.018-.629-.688-2.186a10.972,10.972,0,0,1,.629-2.187l.24-1.168-.479-.839a1.661,1.661,0,0,1-.12-.659,1.9,1.9,0,0,0-.269-.868s-2.216-.9-2.337-1.888.239-1.287-.329-2.126a4.889,4.889,0,0,0-1.558-1.647c-.659-.419-1.109-.749-1.139-1.467a4.628,4.628,0,0,1,.27-1.528l1.048-.809.06-1.558a13.918,13.918,0,0,1-1.558-.9c0-.09.48-1.078.48-1.2s1.018-.03-.061-.749-1.737-1.108-1.737-1.108a17.75,17.75,0,0,0-1.558-1.228c-.419-.239-.119-.419-1.168-.629s-.9-.419-1.407-.809a2.44,2.44,0,0,0-1.109-.45l-1.078-.119-.719-.959a1.429,1.429,0,0,0-.629-1.228c-.659-.36-.9-.15-1.258-.718a2.044,2.044,0,0,1-.479-1.348c.06-.389.329-.569-.061-.838a4.174,4.174,0,0,1-.6-.449c-.119-.12,0-17.97,0-17.97a8.857,8.857,0,0,0,1.437-.569c.061-.119.12-.6.45-.629a2.182,2.182,0,0,1,.9.09c.269.089.749-.3.749-.3s-.061-.33.569-.36a15.826,15.826,0,0,1,1.647-.03c.479.03.838.389,1.467.12s.36.149.779-.389a3.053,3.053,0,0,0,.688-1.558c.03-.449-.21-.838.33-.9s1.137-.03,1.347.358-.03.779.6,1.049.6.538,1.079.089a3.051,3.051,0,0,0,.778-1.288c.24-.539.061-.809.51-1.048s.9-.719,1.348-.689.21-.269.778.12a11.729,11.729,0,0,1,1.407.988c.9.718,1.236.389,1.277.958s-.34.779,0,1.318.58.959.85.718a2.55,2.55,0,0,0,.419-1.048s-.15-.629.36-.659.509-.479.718.089.33.27.3.84.18.958.419.928a3.111,3.111,0,0,0,1.438-.718c.21-.33-.18-.719.359-1.018s.629-.63.958-.3.27.6.539.629.36-.15.51-.329.179-.45-.18-.839-.719-.809-1.049-1.167-.748-.719-.449-.959a.757.757,0,0,1,.629-.15l.209.09a12.821,12.821,0,0,1-.568-1.259c0-.119-.36-1.137.21-1.2s.928-.031.928-.42-.089.061-.868-.718-1.378-.749-.69-1.018,1.049-.269.869-.6-.51-.269-.929-.449a.912.912,0,0,1-.479-.689s0-1.437-.659-1.677-.719.479-1.348-.06-.33-.838-.929-.9-.688-.419-1.167.12-.061.809-.808.959-.869.479-1.139.089-.18-.838-.659-.9a3.26,3.26,0,0,0-1.109-.09,1.6,1.6,0,0,0-.9.27c-.33.179-.12.538-.929.179s-.419-.388-.958-.659a1.677,1.677,0,0,0-1.2-.239c-.449.06.03.239-.719.18s-.748,0-1.078-.18-.3-.569-.689-.33a6.057,6.057,0,0,0-.748.539c-.389.3-.419.629-.838.688a1.837,1.837,0,0,1-.929-.21l-.269-.449V444.144s1.567-.36,1.847-.36.759-.439.759-.439a6.237,6.237,0,0,1,1.277-.04,2.184,2.184,0,0,0,.719.239,1.62,1.62,0,0,0,1.277-.4c.56-.479.959-1.277,1.4-1.357s1.118-.239,1.317.08-.04.718.6.8.839-.6,1.478-.32a3.717,3.717,0,0,1,1.438.919,2.316,2.316,0,0,0,.959.6h32.584l.32-.519a2.139,2.139,0,0,1-.479-.44c-.08-.159.04-.758-.239-.8s-.8-.08-.8-.08-.16.559-.36.559a2.587,2.587,0,0,1-.759-.4s.04-.4.2-.52.32-.039.32-.32.119-.519-.2-.519-.718.04-.839.04-.2.08-.2-.279-.44-.679,0-.8a8.226,8.226,0,0,0,1.038-.4l.2-.519a4.829,4.829,0,0,1-.08-.919,1.579,1.579,0,0,1,.639-.959,2.375,2.375,0,0,1,.919-.279c.28,0,.839-.079.918.239s.04.36.32.48a6.331,6.331,0,0,0,.919.239,1.052,1.052,0,0,1,.679.159c.2.2.718.4.918,1.039a8.107,8.107,0,0,0,.519,1.437c.2.36.12.519,1.078.919a4.252,4.252,0,0,1,1.638.919c.279.32.479.32.678.519s.959.36,1.039.239a3.31,3.31,0,0,1,.439-.4l-.359-2.277s.159-1.237.359-1.357a7.344,7.344,0,0,1,1.638-.639h1.357s.519-.479.8-.679a3.924,3.924,0,0,1,1.119-.4,3.6,3.6,0,0,0,1.118-.559l1-.8s.6-.758.959-1.2a9.177,9.177,0,0,1,1.118-1.2,9.249,9.249,0,0,0,1.318-1.837l1.438-.32a5.976,5.976,0,0,1,1.277.4,4.238,4.238,0,0,1,.959.718c.08.16.319.12.319,1.078a5.916,5.916,0,0,1,0,1.478c-.12.639-.4,1.877-.4,1.877a3.782,3.782,0,0,0,.453,1.278,2.743,2.743,0,0,1,.586,1.517,3.555,3.555,0,0,0,.119,1,13.2,13.2,0,0,0,1.079.838c.279.16,1.317.639,1.757.919s.838.239,1,.8a9.253,9.253,0,0,1,.24,1.278s1.038,3.753,1.118,3.874a11.043,11.043,0,0,1,1.038,1.876,5.878,5.878,0,0,1,.559,1.8s-.4,1.318-.559,1.8a12.441,12.441,0,0,0-.36,2,5.2,5.2,0,0,0,.12,1.238c.04.239.32,1.238.439,1.6a4.551,4.551,0,0,0,.6.958l5.512-1.8v-.4s-.6-.16-.639-.32a2.664,2.664,0,0,1,.159-1.238c.16-.159.639-.28.48-.8a7.74,7.74,0,0,0-.319-1.238c-.16-.239-1.079-.6-1.318-.919a2.2,2.2,0,0,1-.479-1.277c.04-.4.119-1.119.119-1.4s-3.314-8.106-3.314-8.106.04-1.278,0-1.677-.12-.879-.12-.879a9.938,9.938,0,0,0-.878-1.437,11.066,11.066,0,0,1-.919-.838c-.079-.16,0-4.354,0-4.354a8.367,8.367,0,0,1-1.237-.119,1.751,1.751,0,0,1-1.278-1.118,15.712,15.712,0,0,1-.639-2.4c-.04-.48-.639-1.039-.119-1.437a10.392,10.392,0,0,0,.958-.8c.16-.159.12-1.038.12-1.038a26.74,26.74,0,0,1-3.115-1.956V422.74a10.338,10.338,0,0,0-.758-.879c-.159-.12-4.632-4.272-4.632-4.272h-1.4s-.639-1.957-.639-2.237a3,3,0,0,0-.838-1.317c-.2-.08-1.039-.519-1.478-.36s-.838.6-1,.439-.718-.958-.718-.958a15.673,15.673,0,0,0-2.436-.16c-.12.12-.08.959-.6,1.039s-1.038.279-1.158-.08.519-1.038.519-1.038l11.74-11.1s.758-.16.878-.16.4-.639.4-.8v-.8l1.956-1.8a11.467,11.467,0,0,0,.08-1.278c-.04-.12-1.039-1.518-1.039-1.518l-1.677-.2-.12-.4s.12-.919.12-1.038-1-2.036-1-2.2-.439-2.515-.519-2.676a8.649,8.649,0,0,0-.758-1.478,9.286,9.286,0,0,0-1.717.36h-1.079L1131.5,385.2s-.2-1-.319-1.438a17.551,17.551,0,0,0-1-1.637c-.08-.239-.24-2.316-.24-2.316l-.718-2.316-1.358-2.356.24-4.872a6.818,6.818,0,0,0-.36-1.557c-.12.039-2.875-3.435-2.875-3.435s.559-1.677.718-1.956a17.642,17.642,0,0,0,.719-3.275c-.04-.36-.12-6.309-.12-6.429s.519-2,.48-2.2a9.029,9.029,0,0,0-.44-1.6c-.2-.4-.919-1-.6-1.278s.8-.4.878-.718a8.353,8.353,0,0,0,0-1.437s-.878-1.6-.878-1.717a16.2,16.2,0,0,1,.839-1.478s2.756-1.2,3.235-1.358a13.3,13.3,0,0,0,2.476-1.876c.079-.16.519-1.518.519-1.518a7.24,7.24,0,0,0-.2-1.518,15.191,15.191,0,0,1-.878-1.357l-.279-2.2s.638-.279.758-.519a7.208,7.208,0,0,0,.2-1.558c0-.2-.079-.958-.079-.958l1.836-2.237,1.958-1.158,1.158-1.357.119-1.238-1.078-1.277s-.719-2-.719-2.2-.28-2.236-.319-2.476a19.971,19.971,0,0,0-3-1.6l-3.514.2s-.4-.718-.759-.718a5.08,5.08,0,0,0-1.8.2c-.2.2-.838,1.2-1.317,1.318a5.152,5.152,0,0,0-1.558.758L1122,319.794l-1.278-.08a9.564,9.564,0,0,0-1.478-.758,14.613,14.613,0,0,0-1.8-.04,4.171,4.171,0,0,1-.758.559,9.381,9.381,0,0,0-1.478.08c-.16.079-1.238.958-1.238.958l-2.875.08a10.651,10.651,0,0,0-1.917-.519c-.319.04-1.6.279-1.6.279s-.639.718-.959.718-1.8-.04-2,0-.4.44-.878.679a3.815,3.815,0,0,1-2.117.159c-.519-.159-2.436-.758-2.835-.958a10.777,10.777,0,0,0-3.474-.4c-.919.12-1.318-.479-2.436-.559s-2.835-.32-2.955-.04.359.759.08,1.238-.559.519-.919.718-.4.48-.959,1a6.03,6.03,0,0,1-1.317.879,4.6,4.6,0,0,1-1.518-1.038c-.279-.48-.8-1.039-1.318-.879a14.314,14.314,0,0,0-1.916,1.038l-18.449-23.121s-.6-.718-1.038-.718-2.676.079-2.676.079l-1,.919a6.364,6.364,0,0,1-1.437-.159,2.3,2.3,0,0,0-1.278-.959c-.638-.08-2.356-.479-2.356-.479l-.758.239-2.316-2.436s-1.558.04-3.315.12-3.714-.16-4.192-.04a7.627,7.627,0,0,0-1.957.678c-.479.32-.559,1.079-.838,1.159s-1.357.119-1.518.319-.159.56-.559.719a4.791,4.791,0,0,1-1.6.159,9.357,9.357,0,0,1-1.278-1.158,3.688,3.688,0,0,0-1.158-.439c-.279.04-.519.279-.718.279s-5.152.08-5.152.08-.239-.44-.4-.44a3.827,3.827,0,0,0-.958,0c-.12.08-1.039.44-1.039.44l-3.074-.24s-.679-1.038-.839-1.038-1.2.279-1.2.279a.979.979,0,0,1-.639.6c-.479.12-1.158.239-1.158.12a5.655,5.655,0,0,0-.519-.879,8.629,8.629,0,0,0-1.278-.2,2.265,2.265,0,0,0-.758.679c-.2.28-.2.559-.4.6s-1.278.12-1.637.12-3.634.119-3.634.119l-1.118-1s-.759-.52-.6-1.159a1.443,1.443,0,0,0-.08-1.038l-2.236-2.915s-.32-3-.32-3.154a6.1,6.1,0,0,0-1.238-1.478,6.454,6.454,0,0,0-1.558.519l-4.073.04-.32-.519.279-1.079-1.4-1.4.36-1.558a10.338,10.338,0,0,0-.12-1.4,15.643,15.643,0,0,1-.479-1.837c0-.2.44-4.033.44-4.033l.519-3.673a9.033,9.033,0,0,1,1.078-1.039c.12,0,.639.639,1.158-.2s-.159-2.555-.159-2.676a9.448,9.448,0,0,1,.28-1.158c.079-.239-.44-1.238-.519-1.518s-.36-2.915-.36-3.154-.08-1.876-.08-1.876l-7.507-6.829-2.476-12.259a4.77,4.77,0,0,0-.679-1.358c-.119,0-1.677-.519-1.916-.519a3.256,3.256,0,0,0-1.437.559,3.875,3.875,0,0,1-1.238.519l-.519-.878a11.115,11.115,0,0,0,.28-1.357c0-.279-.2-.439-.4-.639a3.692,3.692,0,0,1-.718-1.2c-.04-.279-.16-1-.16-1l-1.6.2s.079,1.039-.4,1.2a6.684,6.684,0,0,1-1.238.279c-.119,0-.559.6-.758.919s-.239.519-.479.6-4.672.4-4.672.4l2.156-6.11s3.634-4.312,3.713-4.432,1.358-1.518,1.358-1.518l2.077-4.952.879-.839.639-.838a4.937,4.937,0,0,1-.2-.758,9.4,9.4,0,0,0-1-1.318l.559-3.074,1.222-1.837V209.26l2.172-3.554,1.158-.559,2.117-2.555,1.038-3.315,1.358-2,1.916-5.35,2.2-3.994,2.236-1.757s1.837-.959,2-1,2.037-.24,2.037-.24l4.393-7.147,3.275-6.829,6.909-1.518,7.028-2.156,2.475-1.238,1-1.717a4.842,4.842,0,0,1-.559-1.039,3.066,3.066,0,0,1,.359-.8,2.955,2.955,0,0,1,.359.479c.04.12,0,.6.16.6s.918-.079.918-.079l.839-1.278s1.677-1,1.876-1.038,1.2-.32,1.2-.32l.32-1.278a12.536,12.536,0,0,0-1-1.8l-2.2-3.554-.28-2.116-1.118-.8-1.558.239a6.136,6.136,0,0,0-1.238-.918c-.32-.08-1.557-.2-1.557-.2l-1.8-1.078-2-.966-1.517.247Z" transform="translate(0 0)" fill="none" stroke="#ffd300" stroke-miterlimit="10" stroke-width="2"/>
    <path id="Trazado_19" data-name="Trazado 19" d="M942.628,497.412l5.434-1.572L958,492.965a8.806,8.806,0,0,1,1.8,0c.4.12,1.158-.4,1.558-.4a4.571,4.571,0,0,1,1.677.36c.12.16.2.719.479.919s.559.08,1.039.279.439,1.638.439,1.638l6.789.319,2.516,1.6.678.959h3.834l.959-2.157,2-.159L983,498.2l1.357.44,1.6-.759,1.158-.638,1.916.2,3,3,1.317.2.6-.479,2-2.8.958-.04,1.957,1.717,1.836-.079,1.358-1.478,2.037-5.431,2.2-1.238.839-1.557,1.039-1.158h2.795l1.518.559,2-.559,1.2-1.8v-1.638l1.518-.838.639.16,2.2-2.915.759-.519s2.636-.04,2.755,0,3-.919,3-.919l.6-1.119a7.133,7.133,0,0,0,1.478.759c.28,0,1.478-.519,1.6-.519s1.557.4,1.557.4l.36,1.118s1.038.48,1.158.56a7.423,7.423,0,0,1,1.078,1.158c.08.2,1.039-.879,1.158-.879a10.047,10.047,0,0,1,1.877.879,13.491,13.491,0,0,1,1,1.478c0,.2.2.718,0,.918s-.878.44-.878.56.159.918.159.918a3.6,3.6,0,0,1,1,.6,9.566,9.566,0,0,1,.678,1.518v1.6s.759.919,1,1.237,1.317-.319,1.317-.319l.36-.919h1.518l1,.559.638.8.4-.8s.679-.279.959-.12a4.241,4.241,0,0,1,.838,1.238c.04.12.679.36.679.36s.678-.519,1.078-.44a9.941,9.941,0,0,1,1.757,1.079s.239,1.876.639,1.956a6.169,6.169,0,0,0,1.438.239c.119-.08.718-.36,1-.159s.36-.28.48-.36.639-.719,1.118-.719,1.916.16,1.916.16,1.4.2,1.238.479.4.44-.4.6a4.289,4.289,0,0,0-1.757.479c-.28.28-.24.719-.439,1a5.145,5.145,0,0,1-.6.639,5.1,5.1,0,0,1,.918.479,1,1,0,0,1,.519,1.118c-.04.759-.08,1.757-.08,1.757a2.155,2.155,0,0,0-.359.719c-.08.36.439.519.159,1.038s-.758.959-.878,1.278.758,1.478,1.039,1.637.958.32.678,1a6.061,6.061,0,0,1-.439.919s-1.358.36-1.4.559a3.976,3.976,0,0,0,.32,1.158c.12.32.839.679.839.679s.28-.838.718-.838a2.955,2.955,0,0,1,1.2.6s-.123.4-.323,1.039a1.066,1.066,0,0,0,.323,1.118,12.086,12.086,0,0,0,1.275.879s1.118-1.2,1.357-1.438,0-.719,0-.758-1.438-.16-1.357-.6-.12-.679.119-1.119a3.166,3.166,0,0,1,1.118-1.038c.12,0,.639.679.919.8a2.224,2.224,0,0,0,1.358-.119,1.072,1.072,0,0,1,1.038-.32c.479.159.679.279.919.2s.559-.479.718-.4a.9.9,0,0,1,.32.56c0,.119.279.6,0,.758a7.581,7.581,0,0,1-.8.4c-.36.159-.479.32-.479.519a1.442,1.442,0,0,1-.279.879c-.2.159-.36.279-.36.279l.08.36.4.159s.319.04.719.08a9.806,9.806,0,0,0,1.277-.04,9.886,9.886,0,0,1,.719-1c.12-.079.639-.479.639-.479s.559.44.6.719.159.718.32.758a1.535,1.535,0,0,0,.678.159c.28-.039.719-.039.719-.159a4.513,4.513,0,0,0-.28-.719l-.4-.678s.32-.32.519-.32,1.439.28,1.439.28.958,1.038,1.038,1.2.559.319.6.6a8.635,8.635,0,0,1,0,1.038l-1.078.679-.319,1s-.24.44.159.6a7.908,7.908,0,0,0,.878.279s.315-1.158.377-1.4a1.716,1.716,0,0,1,.342-.718,3.174,3.174,0,0,1,1.038-.48,7.055,7.055,0,0,0,.759,1.039c.239.2,1.158.919,1.317,1.118s.04.439.639.159.639-.318.639-.519a11.393,11.393,0,0,0-.16-1.317c-.079-.44-.119-1.318-.119-1.318l.079-.838,1.468.03" transform="translate(3.424 9.081)" fill="none" stroke="#ffd300" stroke-miterlimit="10" stroke-width="2"/>
    <path id="Trazado_20" data-name="Trazado 20" d="M1025.384,479.959l-.919-1.437-1.317-.4-.879.919-1-.52-.718-.159-.16.679h-.959v-1.119s-.479-.678-.638-.678-1.438.279-1.438.279l-.678-.719-1.558-.2s-1-.6-.919-.719a12.242,12.242,0,0,0,.319-1.317l-1.357-.44s.519-.6,0-.6-2.237-.28-2.237-.28v-2.156a7.777,7.777,0,0,0-.958-.44c-.2-.04-1.158.36-1.158,0V469.1s.32-1,0-1.079-.639-.119-.839-.159-.839,0-.839-.559v-.959c0-.36-1.078-1.558-1.078-1.558l6.789-6.15-.04-1.876,1.518-1.079,1.717.52.639-1s.479-.36.718-.519a4.1,4.1,0,0,0,.719-.519c.239-.24.479-.6.4-.8s-.559-1.078-.439-1.158,1.317-.439,1.317-.439a.348.348,0,0,0,.12.6c.479.239.879.6,1.118.4a3.177,3.177,0,0,0,.519-.718l-.439-.959-.758-1.558s-.919-.678-.919-.958a5.705,5.705,0,0,1,.32-1.118s1.118-1.039,1.2-1.2a13.964,13.964,0,0,0,.559-2,5.751,5.751,0,0,1,.519-1.677,8.214,8.214,0,0,0,.479-1.6c.04-.16.959-3.594.959-3.594l2.316-2.276,1.916,1.557h.8a9.3,9.3,0,0,0,1.438-1.4,9.073,9.073,0,0,1,1.238-1.078,15.982,15.982,0,0,1,1.956-.838,5.453,5.453,0,0,0,1.877-.919c.2-.239,1.158-.919,1.357-1.2s.878-1.357.878-1.357l1.158.2v.639l3.354-.4a9.022,9.022,0,0,0,1.439.559,5.4,5.4,0,0,0,1.8-.159,4.5,4.5,0,0,1,1.318-.838c.159.039,1.518-.48,1.956-.52a11.339,11.339,0,0,0,2.077-.4,6.173,6.173,0,0,0,.6-.719l2.635-.239.8-.559a7.694,7.694,0,0,0,1,0,8.366,8.366,0,0,1,1.038,0l1.6-1.278,1-.36.4,1.438s-.36,1.038-.718,1.237-1.638.639-1.638.639v2.436l.759.119s3.394,3.594,3.713,3.755,2.835-.08,2.955.039,2.146,1.039,2.146,1.039" transform="translate(5.169 7.632)" fill="none" stroke="#ffd300" stroke-miterlimit="10" stroke-width="2"/>
    <path id="Trazado_21" data-name="Trazado 21" d="M960.421,493.9l-3.6-1.452s-1.518,0-1.6-.32-.8-2.077-.8-2.077-1.277.24-1.517,0a6.413,6.413,0,0,0-1.678-1.038,12.29,12.29,0,0,1-1.2.32c-.4,0-1.277-1.2-1.277-1.2H947.8V486.3l-2.157-1.2-.559.639s-1.118.479-1.277.239-.719-.878-.719-.878a5.723,5.723,0,0,1-1.2.4l-1.437.32h-2.077V484.7a2.032,2.032,0,0,1-.8-.959c-.159-.559-.479-1.357-.479-1.357l.479-1.358-.479-2.236-1.119-1.917-3.195-.718H930.87a13.166,13.166,0,0,0-1.757-.719h-.8l-.32-5.35a7.367,7.367,0,0,0-1.358-.639c-.559-.16-1.836-.4-1.836-.4l-.878-.32-1.278.32-.878-2.316.279-1.478L920.427,464l-.18-2.216s-3.354-.6-3.594-.6a13.774,13.774,0,0,1-3.114-.06,5.636,5.636,0,0,1-1.2-1.2,12.283,12.283,0,0,0-1.5-.779,5.1,5.1,0,0,0-2.337-.6c-.779.18-1.2.719-1.5.6s-2.4-1.318-2.4-1.318l-.838-1.2-.959-.66-.18-1.857s-.3-.659-.779-.659-1.857.06-2.215.119-.84-.119-1.018.18.419.6-.54.9-1.617.479-1.617.479a14.938,14.938,0,0,0-1.977-.239c-.239.06.12.539-.9.659s-.779.3-1.917.06-2.994-.6-2.994-.6l-1.378-.539s-1.138-1.138-1.318-1.018-.479-.539-.479-.539v-6.409l-2.337-2.1-1.557-.838s-1.139.838-1.378,1.078,0,2.1,0,2.1a7.769,7.769,0,0,1-1.5.36c-.419,0-1.377-.12-1.617-.061s-.119.36-1.018.66-1.857.6-2.515.778a18.833,18.833,0,0,0-2.4,1.138l-.958,1.916,1.317,3.714.719,2.156-.66,1.378-3.354,3.893-.36,2.157.839.719,1.558,1.438.18,1.744.263,4.318" transform="translate(1.368 8.12)" fill="none" stroke="#ffd300" stroke-miterlimit="10" stroke-width="2"/>
    <path id="Trazado_22" data-name="Trazado 22" d="M845.93,411.225l2.244,2.407,2,2.317,2.475,3.274.48,2.237s.638,1.2,1.357,1.357a19.255,19.255,0,0,1,2.077.4c.718.239.878.8,1.437.8a6.264,6.264,0,0,0,2.077-.879,7.384,7.384,0,0,1,2-.4c.4,0,1.677.24,1.757.48a14.52,14.52,0,0,1,.8,2.236,8.064,8.064,0,0,0,.24,2,8.073,8.073,0,0,0,1.837,1.118l1.8.8a5.052,5.052,0,0,0,0,1.757,2.293,2.293,0,0,1,0,1.2l-1.558.958s-1.916,0-2.077.4a5.859,5.859,0,0,0-.24,1.757c0,.559-.479,1.6-.239,1.837a12.02,12.02,0,0,0,2.4.639s2.236-.24,2.955-.24,1.677.16,2,.08a4.948,4.948,0,0,0,1.357-.879c.24-.239.24-1.118.8-.879a6.6,6.6,0,0,1,1.916,1.278c.08.239.639,1.677.639,1.677s2-.4,2.077,0,.479,1.278.479,1.518a2.786,2.786,0,0,1-.479,1.437l-1.039,1.038a1.933,1.933,0,0,0-.4.959.63.63,0,0,1,.718.559,21.15,21.15,0,0,0,.719,2.476l-.248.994" transform="translate(0.764 7.23)" fill="none" stroke="#ffd300" stroke-miterlimit="10" stroke-width="2"/>
    <path id="Trazado_23" data-name="Trazado 23" d="M860.813,392.5l1.727,1.039.8,2.795a7.379,7.379,0,0,0,1.118,1.2c.24.08,1.678.32,1.917.4a12.17,12.17,0,0,1,1.438,1.438l1.677.4h2s2-.719,2.716,0a6.008,6.008,0,0,0,1.677,1.357,16.374,16.374,0,0,0,2,0l2-.879a3.408,3.408,0,0,1,1.757-.879c.8,0,2.316.239,2.636.239a8.283,8.283,0,0,0,1.677-.8s.879-.8.959-1.2,1.038-2.316,1.038-2.555v-1.917l1.6.16a12.431,12.431,0,0,0,2.555.958c.559,0,2.476.32,2.476.32s2,.959,2.4,1.039,2.077.479,2.077.479l-.4,3.114,1.2,1.952a10.78,10.78,0,0,0,1.357,1.322c.239.08.718,1.118.718,1.118l.959,3.115s-.559,1.837-.559,2.077a25.928,25.928,0,0,0,1.278,2.943,32.964,32.964,0,0,1,2.236,2.874c.16.412.559,2.329.559,2.329l-1.677,1.038-2-1.677-1.757-.639-.959.959c-.239.239-.959,1.2-1.6,1.357s-1.916.4-1.916.4l-2.236-.719a.862.862,0,0,0-1.039.4c-.32.639-.08,1.118-.479,1.6a8.923,8.923,0,0,1-1.118,1.038h-1.039l.878,2.636a1.843,1.843,0,0,1,.239,1.917,2.312,2.312,0,0,1-1.357,1.038,25.55,25.55,0,0,0-2.716-.479c-.559,0-2.316-.24-2.316-.24l-1.118.719.32,1.438.159,1.837-.159,1.677.479,1.2,1.278.4,1.2.159.959,1.518a11.66,11.66,0,0,1,.239,1.6c0,.48-.08,1.439-.08,1.837s-.239,1.2.08,1.357.079.4.958.4h3.035a3.554,3.554,0,0,1,.719,1.118,4.321,4.321,0,0,0,.638,1.118h.959a2.716,2.716,0,0,1,1.278,0,10.419,10.419,0,0,1,1.437.4l-2.4,1.677a20.615,20.615,0,0,1-2,3.435,3.149,3.149,0,0,0-.8,1.357,7.266,7.266,0,0,1,1.2,1.757c.079.479.318,1.6.318,1.6l1.2-1.119s.959.719.959,1.2a5.93,5.93,0,0,0,.239,1.278l2.417,1.637" transform="translate(1.173 6.715)" fill="none" stroke="#ffd300" stroke-miterlimit="10" stroke-width="2"/>
    <path id="Trazado_24" data-name="Trazado 24" d="M896.694,442.056h3.035l2.156-2.4a12.778,12.778,0,0,1,1.6-2.636c.479-.32,1.437-2,1.916-2.236a3.355,3.355,0,0,0,.959-.959s.639-2,.8-2.236a17.786,17.786,0,0,1,1.917-1.357,5.381,5.381,0,0,0,1.916-.429,15.041,15.041,0,0,0,1.917-1.648,22.935,22.935,0,0,1,1.2-3.514c.4-.559,1.278-2.237,1.278-2.237s2.316-1.277,2.8-1.6a10.418,10.418,0,0,0,1.438-2.4s-.639-1.757,0-2.4a5.98,5.98,0,0,1,2.715-1.69,6.785,6.785,0,0,0,2.636-.945c1.2-.718,1.438-.8,1.6-1.357a9.575,9.575,0,0,0,.159-2.636c-.079-.639-.878-1.437-.638-1.757s.67-.878.67-.878l2.844-3.914,3.514.8a7.607,7.607,0,0,0,1.6,1.358c.479.159,2.077.479,2.077.479s1.518,1.278,1.6,1.757,0,2.476,0,2.955a14.576,14.576,0,0,1-.958,2.555l-1.118.8a29.861,29.861,0,0,0-.24,3.434c.08.718.56,2.156.8,3.195s.559,2.515.718,3.374.16,2.216.32,2.775.879,2.739,1.2,3.485.639,2.105.8,2.425a6.128,6.128,0,0,0,1.358,1.038s2.316.959,2.635,1.039,1.836-.32,2.715-.24a22.663,22.663,0,0,1,2.955.719l1.757,3.195s1.118-.479,1.438.08,1.119,1.757,1.119,1.757a3.354,3.354,0,0,0,2,.8,7.584,7.584,0,0,0,3.034-.879,6.128,6.128,0,0,1,2.8-.959H964.9v3.275l2.077,2.157,1.757,2.316,1.757,1.518v2.475s.8,1.837,1.038,1.837A4.279,4.279,0,0,1,974,453.517c.479.758,1.757,2.356,1.757,2.356a9.233,9.233,0,0,1,1.916.879c.32.32,1.678,1.757,1.678,1.757s1.836,1.2,2.156.879a15.661,15.661,0,0,0,1.118-1.6s-.079-1.2.559-1.517l1.6-.8s1.118-.718,1.2-1.2a11.567,11.567,0,0,1,0-1.677c.159-.718.718-2,1.118-2s1.357,1.118,1.357,1.118.639.719,1.039.239,0-1.518.4-1.518a14.863,14.863,0,0,1,2.236.719l4.073,3.114a5.734,5.734,0,0,1,2.077,1.278,10.586,10.586,0,0,1,1.2,1.916,9.835,9.835,0,0,0,.8,1.6,2.681,2.681,0,0,0,1.278,1.118,2.234,2.234,0,0,1,.879,1.437,2.461,2.461,0,0,0,.159,1.278,1.438,1.438,0,0,0,.959.959,1.693,1.693,0,0,0,.959,0l.958-.719s1.6,0,1.757.239,1.837,2.036,1.837,2.036" transform="translate(2.16 7)" fill="none" stroke="#ffd300" stroke-miterlimit="10" stroke-width="2"/>
    <path id="Trazado_25" data-name="Trazado 25" d="M963.073,438.747V418.541l1.757-.32,2.077.959a20.59,20.59,0,0,1,2.316-.239,10.981,10.981,0,0,1,1.677.159,9.016,9.016,0,0,0,1.677.48c.4,0,.959-.559.959-.559l1.2-.8a2.327,2.327,0,0,1,1.757-.4,9.511,9.511,0,0,0,3.355-.719,9.149,9.149,0,0,0,2.06-1.2v-1.038l1.533-1.677,2.157-1.358s1.118,1.678,1.357,1.6,1.119-.48,1.119-.48a5.179,5.179,0,0,0,.958-1.118,3.036,3.036,0,0,1,1.837-1.038,3.831,3.831,0,0,1,1.357,0c.719.08,1.039-.08,1.278-.4s.559-1.2.959-1.357,1.118,0,1.518-.16a17.469,17.469,0,0,0,1.517-1.038c.639-.4.639-.719,1.2-.879a4.6,4.6,0,0,1,1.118-.16l1.438.56,1.038.638.719-.479s.319-1.357,0-1.6-.16-1.836.559-1.836,2,1.6,2,1.6-.16.879.959.8,3.274-.32,3.993-.4a24.733,24.733,0,0,0,2.475-.08c.639-.159.639-.959,1.358-1.118s1.357-.4,1.6-.159.32.878,1.438.878a29.1,29.1,0,0,0,6.15-.4,7.074,7.074,0,0,1,2.955-.239,15.659,15.659,0,0,0,2.955.159c.32-.08-.959-.8,1.2-.479a13.236,13.236,0,0,0,3.914-.08c.559,0,.239,1.357,1.517,1.518s1.677-.239,2.236-.16a5.772,5.772,0,0,1,1.438.56,1.763,1.763,0,0,0,1.038.559c.639.079.56.079,1.278.159s.559-.959,1.518.16,2.316-.32,2.316-.32l2.316-.639,1.677.559-10.062,5.91.639,1.424h2s.079-.651.4,0,.959,2.01.959,2.01l.8,1.278,1.518,1.118a13.158,13.158,0,0,0-.08,2.077c.08.639.879,1.118.879,1.118s1.2,0,1.837-.08-1.038-1.2,1.518-.08a9.641,9.641,0,0,0,4.313.959l1.358-.32,1.038-.958h1.757a2.9,2.9,0,0,0,1.6,0c.958-.24,1.277-.639,1.677,0s.959.638,1.038,1.2a9,9,0,0,1,.08,1.119l-1.278.879-2.076,1.8" transform="translate(3.986 7.034)" fill="none" stroke="#ffd300" stroke-miterlimit="10" stroke-width="2"/>
    <path id="Trazado_26" data-name="Trazado 26" d="M940.482,383.322a3.39,3.39,0,0,1-.224,2.008c-.419.718-.239.9-.9,1.5s-1.678,1.258-1.977,1.558-.659.5-.719,1a16.853,16.853,0,0,0,.18,3.074c.18,1.617,1.018,1.857.239,2.636s-1.916,1.736-1.916,1.736l-.659.959-1.139,1.138a8.344,8.344,0,0,0-2.036.479c-.539.3-2.615,3.973-2.615,3.973" transform="translate(3.041 6.463)" fill="none" stroke="#ffd300" stroke-miterlimit="10" stroke-width="2"/>
    <path id="Trazado_27" data-name="Trazado 27" d="M900.4,403.162h2.178l2.457-1.453,2.635-1.977s1.916-.9,2.336-1.078a2.738,2.738,0,0,0,1.078-1.138,16.435,16.435,0,0,0,0-1.737,5.945,5.945,0,0,1,1.438-1.2c.839-.479,1.2-1.617,1.5-1.738s0-1.018.539-1.5a3.794,3.794,0,0,1,1.557-.659s1.438.479,2.157.659a11.893,11.893,0,0,0,1.617.3,4.914,4.914,0,0,1,1.2.42s-.12-1.5,0-1.378.839-.061,1.078.3.3.9.659.838.539-.659,1.018-.9.66-.074,1.378-.247a1.992,1.992,0,0,1,1.138,0,1.81,1.81,0,0,1,.18,1.265,10.82,10.82,0,0,1-1.318,2.157s-.539,1.018.659,1.018a11.352,11.352,0,0,0,3.055-.36,2.661,2.661,0,0,0,1.259-1.2,3.578,3.578,0,0,1,1.377-1.917,11.079,11.079,0,0,1,1.438-1.042v-.874a4.048,4.048,0,0,0-.36-1.317s-.239-.66.36-.839.9-.3,1.2-.359.719-.9.719-1.138V385l.838-.9,1.378-.6A9.994,9.994,0,0,1,939,381.883c.9-.538,1.078-.779,1.139-1.2a.7.7,0,0,1,.479-.538l1.018.419" transform="translate(2.262 6.375)" fill="none" stroke="#ffd300" stroke-miterlimit="10" stroke-width="2"/>
    <path id="Trazado_28" data-name="Trazado 28" d="M1047.562,407.8l2.456-1.6,1.738-.479s-.18-1.018.479-1.318,1.2-.6,1.2-.6.359-.719,0-1.018-.839-.18-.539-.9.659-1.258.539-1.5-.839-.6-.839-.6l-.3-.838,1.737-1.558,1.018-.779a2.619,2.619,0,0,0,1.318.3,2.35,2.35,0,0,0,1.138-.959c.061-.18-.239-.659-.239-.659s-.36-1.737-.18-1.858.959.061.779-.3a7.768,7.768,0,0,0-1.977-1.138s.061-.359.719-.538a4.978,4.978,0,0,1,1.284-.36c.453,0,.453-.239,1.171.06a6.223,6.223,0,0,0,1.757.6c.4,0,.16.3.879-.3a7.463,7.463,0,0,1,1.677-1.2,1.158,1.158,0,0,0,.66-.619,5.874,5.874,0,0,1,.06-1.358c.119-.659.239-1.5.9-1.558a3.453,3.453,0,0,1,1.378-.06c.779.12.659-.1,1.078-.051s1.2-.548,1.2-.548a4.47,4.47,0,0,1,1.378-.119c.719.06,1.558.06,1.558.06a.665.665,0,0,0,.479-.36,4.27,4.27,0,0,0,0-1.258l.053-1.738s1.324-.479,1.864,0,.419,1.018.958.66-.538-.36.539-.36,1.5-.061,1.8.3.119.539.9.48.779-.419,1.258-.36a1.517,1.517,0,0,1,.839.479s.24.6.539.36.12-1.378.12-1.378l-.3-.393s1.259.027,1.5,0,.359.452.838.992,0,.779,1.137.9a3.7,3.7,0,0,0,1.858-.061,3.335,3.335,0,0,0,.838-.479,5.915,5.915,0,0,1,1.378-.719l3.833-.633,2.1-1.1a1.552,1.552,0,0,1,1.317-.48,17.636,17.636,0,0,0,2.516.12,14.289,14.289,0,0,0,2.216-.419s1.377-.239,1.737-.36.959-1.078,1.078-1.317a1.072,1.072,0,0,1,.839-.779c.718-.239.359-.719,1.138-1.2a14.69,14.69,0,0,1,1.438-.779l.779-.479s0-.18.779-.3a8,8,0,0,1,1.558-.119,9.161,9.161,0,0,0,1.018-.061s0-.479.838-.3.718.539,1.8.6l1.078.06s.06-1.018.659-1.018a2.936,2.936,0,0,1,1.5.419c.419.239.958.3,1.078.838s-.36,1.079.479,1.079.66.359,1.318-.12.6-.779.838-1.078a11.845,11.845,0,0,1,1.677-1.138l1.857-.9" transform="translate(6.31 6.196)" fill="none" stroke="#ffd300" stroke-miterlimit="10" stroke-width="2"/>
    <path id="Trazado_29" data-name="Trazado 29" d="M1030.889,407.06V351.483l2.217-1.377,1.438-4.253a16.054,16.054,0,0,1,2.216-1.259,12.973,12.973,0,0,0,2.1-1.557c.839-.6,1.5-1.259,2.157-1.678a3.743,3.743,0,0,0,1.317-1.137,15.8,15.8,0,0,0,0-2.4l6.469-3.954a27.167,27.167,0,0,0,2.756-.239,9.126,9.126,0,0,0,2.515-.6,16.569,16.569,0,0,0,2.1-1.137,11.178,11.178,0,0,0,2.215-1.378,11.857,11.857,0,0,0,1.139-1.8,10.406,10.406,0,0,1,1.078-1.857c.48-.479,4.193-6.569,4.193-6.569" transform="translate(5.852 4.729)" fill="none" stroke="#ffd300" stroke-miterlimit="10" stroke-width="2"/>
    <path id="Trazado_30" data-name="Trazado 30" d="M1007.862,294.234l-1.668,3.7v2.636s-.879,1.118-1.2,1.437a8.525,8.525,0,0,0-1.2,1.757,9.652,9.652,0,0,0-.08,2.236,3.105,3.105,0,0,1-.479,2.077,15.268,15.268,0,0,1-2,1.6l-2.157-.56s-1.118,0-.959.56a10.509,10.509,0,0,1,.32,1.916c0,.32-1.837,1.837-2.077,2a13.293,13.293,0,0,0-1.118,2l3.594.559.159,3.035,3.594.879,3.434-.879a1.361,1.361,0,0,1,1.118-1.357c1.119-.16,1.678-.639,2.476-.639a4.288,4.288,0,0,0,2.475-.4c.639-.479.559-.718,1.358-.718a6.57,6.57,0,0,0,1.438-.16,6.579,6.579,0,0,1,2,.32c1.757.4,1.518.239,2.157.4a15.455,15.455,0,0,0,2,.239,12.768,12.768,0,0,1,1.757-.159,9.321,9.321,0,0,0,2.716-.959,30.59,30.59,0,0,1,3.593-.878l4.473.32s2,.479,2.875.559,2.8,0,2.8,0l2.955-.48a5.716,5.716,0,0,1,1.757.16c.958.239.559.4,1.757.4a12.394,12.394,0,0,0,1.916-.08,3.827,3.827,0,0,0,1.518-.559l.879-.719a6.918,6.918,0,0,1,1.2-.4,15.092,15.092,0,0,1,2.555.079c.879.16,2.556.48,2.556.48s2.077.638,2.316.8,2,2.795,2.4,2.795,2-.079,2-.079,1.334.893.978.968c-.455.1,1.737,1.907,1.737,1.907l4.073.32h3.434l3.914-2.436" transform="translate(4.871 4.012)" fill="none" stroke="#ffd300" stroke-miterlimit="10" stroke-width="2"/>
    <path id="Trazado_31" data-name="Trazado 31" d="M995.772,315.01v2.716s.719,1.357.959,1.357h1.518v1.678l-.879.559a5.529,5.529,0,0,1-.36,1.6,8.15,8.15,0,0,1-1.8,1.757c-.24.16-.719.639-.639.959a3.642,3.642,0,0,0,.719.959h1.916l2.077,1.437s.239,1.2,1.118,1.518,1.518.479,1.2.639-1.837.559-1.837.559l-.638,2V334.5s1.118.8.079.8a2.918,2.918,0,0,1-1.836-.8s0-1.2-.639-1.2-1.2,0-1.518.4a6.494,6.494,0,0,0-.648,1.6,8.366,8.366,0,0,1-1.269,1.757,10.933,10.933,0,0,0-2,1.6c-.479.559-.8.32-1.437,1.357s-1.2,1.916-1.2,1.916l-2.636-2.636s-.639-1.6-1.357-1.038a4.6,4.6,0,0,0-1.2,1.757c-.319.559-.8,1.677-1.437,1.916a3.384,3.384,0,0,0-1.437,1.358c-.32.479,0,1.757,0,1.757l1.118,1.038a1.2,1.2,0,0,1,.479,1.039c-.079.639-3.514,3.354-3.514,3.354s-.879-.559-1.437,0-.639,2.716-.8,3.115-.159,1.118.479,1.277a2.717,2.717,0,0,1,1.6,1.518,47.984,47.984,0,0,0,3.194,4.233l-.639,1.517,1.118,2.4a8.7,8.7,0,0,1,2.077,1.437c.639.719,2.316,1.518,2.4,2.077s.948.779.948.779a5.023,5.023,0,0,0,1.406-.18,2.875,2.875,0,0,1,1.05-.718,7.762,7.762,0,0,1,1.647-.36,1.2,1.2,0,0,1,1.138-.239c.6.239.269.089,1.168.239a4.9,4.9,0,0,0,1.916.15c.69-.12,1.348-.21,1.617-.3a2.68,2.68,0,0,0,.959-.868,7.142,7.142,0,0,1,.779-1.078c.089-.061,2.815-1.049,2.994-1.049a8.215,8.215,0,0,1,1.888.569c.329.21.569.959,1.137,1.109a3.663,3.663,0,0,0,1.8-.031,5.124,5.124,0,0,0,1.378-.718l.868-1.437,1.647-2.216,1.468-.779,2.156-.419a8.3,8.3,0,0,0,3.2-1.287c1.408-1.018,1.467-1.708,2.546-1.947a19.591,19.591,0,0,1,2.216-.629,3.954,3.954,0,0,0,2.246-.929c.6-.509.6-.778,1.108-1.048s1.5-.959,1.767-1.048,4.671-1.977,4.671-1.977" transform="translate(4.352 4.584)" fill="none" stroke="#ffd300" stroke-miterlimit="10" stroke-width="2"/>
    <path id="Trazado_32" data-name="Trazado 32" d="M948.461,374.693a4.093,4.093,0,0,0,1.856,0,2.379,2.379,0,0,0,1.588-.958c.27-.21.689-.809.988-.959s1.318-.569,1.318-.569a7.341,7.341,0,0,1,1.586-.389,10.96,10.96,0,0,0,2.546-.838c.39-.18,1.647-.988,1.647-.988l.868-1.018-.868-1.378s-1.108-.538-1.048-.629.688-.629.688-.629-1.377-2.276-1.347-2.365,1.2-1.318,1.2-1.318a4.39,4.39,0,0,1,.987-1.168c.45-.269,1.138-.659,1.138-.659s1.109.539,1.617.779.988.18,1.108.718.3,1.5.42,2.038a13.565,13.565,0,0,0,.928,2.156c.15.269-.06.48.9.779s.9.479,1.258.36,1.287-.9,1.5-.929,1.2-.03,1.2-.03.779.33,1.528.6,1.287.12,2.037.719a10.493,10.493,0,0,0,1.586,1.288,4.3,4.3,0,0,0,1.168.18c.3,0,2.436-14.206,2.436-14.206" transform="translate(3.584 5.691)" fill="none" stroke="#ffd300" stroke-miterlimit="10" stroke-width="2"/>
    <path id="Trazado_33" data-name="Trazado 33" d="M938.8,382.988a27.819,27.819,0,0,1,0-3.392c.138-.18,1.1-1.617,1.1-1.617a2.408,2.408,0,0,1-.6-1.738c.061-1.078-.3-1.617.24-2.276a5.94,5.94,0,0,0,.884-1.617c.194-.419-.285-1.83-.285-1.83l-1.4-1.7a2.187,2.187,0,0,0-1,.239,12.669,12.669,0,0,0-1.678,1.2c-.419.419-.538.838-.838.718s-2.276-1.378-2.276-1.378l-1.916-1.078-1.138.419-.9-.838a1.316,1.316,0,0,1,.359-1.018,39.263,39.263,0,0,0,2.336-3.954l-.3-6.289a36.4,36.4,0,0,1,2.036-4.012c.3-.18.419-2.216.3-3.235a32.682,32.682,0,0,1-.6-3.474,36.539,36.539,0,0,1,.6-3.954c.18-.539-.06-1.2.239-1.5a23.645,23.645,0,0,0,1.138-3.535s.6-2.815.659-3.114.06-3.175.06-3.175a19.831,19.831,0,0,1,.12-2.515c.119-.3.06-.779.538-.779s.18.36.9.419a2.083,2.083,0,0,0,1.317-.419l.839-.479a8.867,8.867,0,0,0,1.677.479,13.52,13.52,0,0,0,1.617,0l1.2-1.378a5.24,5.24,0,0,1,1.137-.06c.36.06.779.659.9,1.438a3.731,3.731,0,0,1,.18,1.916c-.18,1.138-.6,1.259-.3,2.157a9.655,9.655,0,0,0,1.018,2.4,4.674,4.674,0,0,0,1.5,1.558c.419.179,1.8.239,2.156.419a2.665,2.665,0,0,1,1.018.718c.36.419.419,1.318,1.258,1.318s2.216-1.437,2.216-1.437a3.71,3.71,0,0,1,.719-1.437c.479-.48,1.977-1.617,1.977-1.617l1.976-1.139s.66-.779.9-.3.479.719.419,1.259,0,.359-.539,1.377-1.592,1.2-.437,1.8,1.455.838,1.755.36.419-1.138.718-1.138a10.512,10.512,0,0,1,2.1,2.216,2.837,2.837,0,0,1,.6,1.617c.06,1.079,0,1.778.419,2.027a2.978,2.978,0,0,1,1.2,1.207,13.354,13.354,0,0,1,.838,1.858,14.494,14.494,0,0,1,.3,1.737,1.96,1.96,0,0,1-.419,1.677c-.659.719-.239,0-.659.719s-.48.659-.419,1.5-.18.9.479,1.318a4.224,4.224,0,0,0,1.437.538,6.874,6.874,0,0,1,1.977.42,4.524,4.524,0,0,1,.6.958,14.574,14.574,0,0,0,1.378,2.036,1.7,1.7,0,0,0,1.137.5c.719.1.959-.08,1.438.7s.9,1.5.9,1.5a11.549,11.549,0,0,1,1.437-.24c.36,0,1.982-2.752,1.982-2.752" transform="translate(3.049 4.888)" fill="none" stroke="#ffd300" stroke-miterlimit="10" stroke-width="2"/>
    <path id="Trazado_34" data-name="Trazado 34" d="M940.111,384.231s1.332-.123,1.721-.123a1.6,1.6,0,0,0,1.049-.809,1.243,1.243,0,0,1,.329-.869c.33-.419.749-.809,1.018-1.108s.659-.3.749-1.2-.33-1.2,0-1.588,1.317-.749,1.857-1.647.21-1.288.569-1.707a1.208,1.208,0,0,1,.812-.388l.477-.029.758-1.65,1.438-1.2s.319-.079.079-.359-.958-1.318-.958-1.318l-.559-1.956.678-2.037s.639-.719.639-1.078-.28-.879-.08-1.358.4-1.317.919-1.677a3.586,3.586,0,0,0,1.079-.959,7.525,7.525,0,0,0,.6-2.077,5.2,5.2,0,0,0,.279-2.083,7.466,7.466,0,0,1-.32-2.03c0-1.4,0-1.8-.24-1.916s-.8-.44-.8-.44-.936-.079-1.067.16a7.063,7.063,0,0,1-.53,1.557,11.844,11.844,0,0,1-1,2.038,3.043,3.043,0,0,1-.8.632c-.36.207-.573.149-1.212.428s-.385.576-.385.576a3.242,3.242,0,0,0,.2,1,2.427,2.427,0,0,0,.8.758c.32.2.6.159.639.6s0,.758,0,1.558-.04,1.2-.24,1.437-1.237.119-1.4.519a1.351,1.351,0,0,0,0,1.238c.239.519.519.439.6.758a1.289,1.289,0,0,1,.04.959c-.159.439-.32.4-.36,1.038s.2.719.16,1.238.079.6-.2,1.078-.6.475-.838,1.156-.119,1.041-.28,1.28a1.635,1.635,0,0,1-.958.519c-.24,0-.639-.36-1.079-.239a12.179,12.179,0,0,0-1.357.559,6.479,6.479,0,0,0-.759,1.291,6.94,6.94,0,0,0,.56,1.226,6.255,6.255,0,0,1,.239.879s-.759.838-.8,1.277-.239.679-.279,1.278a6.636,6.636,0,0,1-.2,1.2c-.08.4-1.158.7-1.158.7l-.334,1.3A4.327,4.327,0,0,0,940.111,384.231Z" transform="translate(3.354 5.618)" fill="none" stroke="#ffd300" stroke-miterlimit="10" stroke-width="2"/>
    <path id="Trazado_35" data-name="Trazado 35" d="M1006.578,293.337l-1.4.559a4.566,4.566,0,0,1-1.039-.279c-.119-.12-.559-.719-.559-.719l-.718.32s-.16.831-.16,1.054.2.583-.24.862a5.717,5.717,0,0,1-.719.4l-.918-.919a1.308,1.308,0,0,0-.638.279,4.539,4.539,0,0,0-.279,1.118c-.08.28.119.719-.24,1.039a8.653,8.653,0,0,1-.758.679,3.076,3.076,0,0,1-1.118.279,12.093,12.093,0,0,1-1.238-.279s-.918-.719-1.158-.679-.32.28-.439.559a2.32,2.32,0,0,0-.16,1.078c0,.6-.04,1.757,0,2.915s-.017,3.275-.017,3.275a13.249,13.249,0,0,0-1.06,1.2c-.2.32.04.679.2,1.278s.6.838.279,1.078-1.038.479-1.558.838a3.988,3.988,0,0,1-1.637.838,3.737,3.737,0,0,1-1.238-.439l-.159-1.118-.838-1.678s-1.318-.439-1.478-.439-.919-.12-.878.4a2.9,2.9,0,0,0,.32,1.238,9.313,9.313,0,0,1,.879,1,9.434,9.434,0,0,1,.8,1.478,4.584,4.584,0,0,1,.2,1.118l-.919.519a.638.638,0,0,0-.359.559c0,.4-.12,2.875-.12,2.875l-7.148,7.747s-2.276-.239-2.4-.239-.919-.759-1.478-.6a2.394,2.394,0,0,0-1.158.678c-.08.16-.32,1.439-.32,1.439s.439.879-.08,1.118a7.649,7.649,0,0,0-1.278.678c-.4.28-1.757,0-2,.2s-.08,1-.239,1.4-.679,1.2-1.158,1.038-1.558-.239-1.877-1.2-.758-1-.079-1.8.758-.879,1.438-1.158a3.254,3.254,0,0,0,1.078-.719s.479-1.2.159-1.717-1.078-.919-1.477-1.437-.8-.959-.8-.959-1.518.16-1.717.44a4.378,4.378,0,0,1-.919,1.2c-.758.758-1.078.918-1.2,1.557a8.322,8.322,0,0,0,.08,1.957l.239,1.557-.279,1.4-.919.9-1.158.219-.8-.919s-.559.04-.878.04a6.631,6.631,0,0,0-2.077.678,4.2,4.2,0,0,1-1.717.2,12.041,12.041,0,0,1-2.436-.24c-.359-.2-1.038-.958-1.518-1.237a2,2,0,0,0-1.158-.36c-.678-.08-1.038.119-1.118-.679a2.053,2.053,0,0,0-.479-1.2l-1.518-.519s-.04.679-.519.879-.919.838-1.078.08-.52-.519-.36-1.4a9.86,9.86,0,0,0-.08-2.277c0-.479,1.837-1.158-.28-1.6a4.983,4.983,0,0,0-3.154.08c-.6.119.159,2.355-1.2-.04a19.654,19.654,0,0,1-1.8-3.994l-1.078-1.2-1.278,1.119s-1.4,1.836-1.278,2.356a15.714,15.714,0,0,1,.639,1.717c.12.718.759.559.12,1.8s-1.078,1.438-.919,2.276a14.8,14.8,0,0,1,.4,1.6c-.04.279-.7,1.977-.7,1.977" transform="translate(3.249 3.975)" fill="none" stroke="#ffd300" stroke-miterlimit="10" stroke-width="2"/>
    <path id="Trazado_36" data-name="Trazado 36" d="M898.015,397.547l1.118-3.235.919-3.154.417-5.91,2.3-3.354a6.974,6.974,0,0,1,0-1.837,24.172,24.172,0,0,1,2.077-2.037l3.114-3.474s-.04-1.957,0-2.2a28.472,28.472,0,0,1,1-2.955c.119-.119,1.637-1.557,1.637-1.557l.52-2.117.2-3.035,2.515-2.356,2.716-1.277v-5.711l2.2-1.478a7.471,7.471,0,0,1-.519-1.2,2.805,2.805,0,0,1-.079-1.437,3.688,3.688,0,0,0,.2-1.437v-1.437s-.12-1.078.4-1.437.759-.519,1.2-.479,1,.039,1,.039a1.209,1.209,0,0,0,.838-.045c.44-.194.559-.434,1.078-.434s.56-.12,1.039,0a4.533,4.533,0,0,0,1.038.2.76.76,0,0,0,.48-.159c.159-.08.2-.479.2-.479a2.393,2.393,0,0,0-.2-.759,1.238,1.238,0,0,1-.2-1.357c.32-.679.16-.919.559-1s1.6-.479,1.877-.559,5.91,0,5.91,0l1.131.645" transform="translate(2.197 5.267)" fill="none" stroke="#ffd300" stroke-miterlimit="10" stroke-width="2"/>
    <path id="Trazado_37" data-name="Trazado 37" d="M907.8,372.394l-1.341-.21s-.749-3.025-.779-3.174-1.287-1.888-1.287-1.888a10.681,10.681,0,0,1-.569-2.276c.03-.569-.749-5.212-.689-5.331s.359-1.079.359-1.079a5.1,5.1,0,0,1,1.018-.449,4.892,4.892,0,0,0,.954-.269c.515-.18.693-.449,1.023-.449a.942.942,0,0,0,.688-.15,3.376,3.376,0,0,0,.623-.539v-.509a19.229,19.229,0,0,1,2.942,0,1.537,1.537,0,0,0,1.109.419c.538-.03,1.258-.06,1.258-.06l.9-.27,2.4.15" transform="translate(2.337 5.711)" fill="none" stroke="#ffd300" stroke-miterlimit="10" stroke-width="2"/>
    <path id="Trazado_38" data-name="Trazado 38" d="M936.842,327.747h-1.366s-.3.81-.339.909-.559.739-.559.739a8.9,8.9,0,0,1-1.357.239,7.7,7.7,0,0,1-1.058-.538,1.754,1.754,0,0,0-1.179-.5,16.641,16.641,0,0,0-1.677-.021c-.12.021-1.178.04-1.278.1a2.757,2.757,0,0,0-.858.678c-.2.32-.419.838-.819.959s-1,.02-1.158.12a7.832,7.832,0,0,0-.639.559l-.159,1.4a8.741,8.741,0,0,1-.579,1.078,6.993,6.993,0,0,1-1.018.639,1.039,1.039,0,0,0-.879.06,2.725,2.725,0,0,0-.639.66c-.179.2.9.359-.718.559a4.157,4.157,0,0,1-1.977,0s-.419-1.079-.519-1.5-.26-1.1-.26-1.1l-.778-.419s-.66-.359-.4-.7a6.36,6.36,0,0,0,.439-.659.568.568,0,0,0-.159-.5,4.093,4.093,0,0,0-.918-.479,3.321,3.321,0,0,0-1.158.4,1.505,1.505,0,0,1-.739.2l-.919-.48s-.339-.879-.639-1.057a4.241,4.241,0,0,0-1.178-.579c-.2.019-.539.36-.539.36s-.538.559-.538.779.039,1.338.039,1.338a10.5,10.5,0,0,0,.12,1.936,3.692,3.692,0,0,1,.3,1.3c-.06.2-.339.339-.578.379s-.758.06-.758.06-.759-.3-.919-.339a3.931,3.931,0,0,0-1.219-.32,4.4,4.4,0,0,0-1.377.279c-.36.119-1.079.439-1.079.439a8.281,8.281,0,0,0-1.038.748,2.473,2.473,0,0,0-.36,1.449c.04.4,0,1.058.159,1.258s0,.339.5.4.6.119.838.119.539-.439.939-.519a2.884,2.884,0,0,1,1.237-.159,4.733,4.733,0,0,1,1.039.479s.679.639.639.959a1.491,1.491,0,0,1-.36.958c-.26.22-.22.4-.639.559s-.519.38-1.238.141a7.15,7.15,0,0,0-2.077-.52,1.122,1.122,0,0,0-.119.739c.04.62.419,1.9.459,2.216s.119.48-.04.759-.32.5-.419.659a1.466,1.466,0,0,1-.36.5,3.766,3.766,0,0,1-1.1.659c-.579.3-.6.6-.818.959s-.679.379-.559.938-.18.9.339,1.317-.719.2.819.839,1.457.5,1.677.239a1.082,1.082,0,0,0,.36-.679,13.975,13.975,0,0,0,.259-1.558s.62-.459.978-.4.779-.16.9.36.3,1.876.419,2.156a2.857,2.857,0,0,0,.639.7s2.715-.079,3.633,0,1.278-.259,1.937,0a7.909,7.909,0,0,1,1.058.5s.559.419.6.639a2.141,2.141,0,0,0,.459.8c.159.16.878.739.878.739" transform="translate(2.292 4.934)" fill="none" stroke="#ffd300" stroke-miterlimit="10" stroke-width="2"/>
    <path id="Trazado_39" data-name="Trazado 39" d="M861.192,373.563V371.8a6.037,6.037,0,0,1,1.078-.322c.36-.038.779-.816.9-1.056s.6-.419.6-.419a1.264,1.264,0,0,1,.718.419c.3.36-.239.48.3.36a.8.8,0,0,0,.659-.779c.06-.3.12-.718.479-.718s.719.6.779.838,0,.779.3.838-.539.18.6.06,1.438-.179,1.438-.179a1.228,1.228,0,0,1,1.317.179c.6.539.419.36.9.84s0,.718.838.748-.239.09.839.03a5.271,5.271,0,0,0,1.736-.359.9.9,0,0,1,1.138.06,4.332,4.332,0,0,1,1.018,1.228c.06.03.12.688.3.749s.419-.36.958,0,.9.6,1.318.839.119.479.839.538a4.388,4.388,0,0,0,1.558-.239l.6-.838s.479-.119,1.5-.3.839.9,1.558,0,.6-1.437,1.137-1.708a7.436,7.436,0,0,1,1.438-.748c.959-.36,1.5-.3,1.259-.779a7.7,7.7,0,0,0-.539-.9l-1.977-.9.18-1.078a7.206,7.206,0,0,0-.6-1.678c-.24-.239-.6.6-.6-.538s-.659-1.437,0-1.858a3.389,3.389,0,0,1,1.378-.479l.659-.419a10.914,10.914,0,0,1,.12-1.677c.119-.539,1.311-3.055,1.434-3.535a4.643,4.643,0,0,1,.9-1.8c.419-.413,1.139-1.311,1.139-1.311l1.2-.9a7.351,7.351,0,0,0,1.5-.42,8.709,8.709,0,0,0,1.018-.479,15.187,15.187,0,0,0,.838-2.037c.061-.419-.119-1.558.24-1.857s.119-.838,1.137-.779.659-.189,1.318,0,.538-.055,1.018.423a16.176,16.176,0,0,1,1.078,1.258s.794,1.079.756,1.318-.277.239.262.479a2.333,2.333,0,0,0,.838.239.4.4,0,0,1,.6.3,3.708,3.708,0,0,1,.06,1.078s-.837.48-.659.9a1.043,1.043,0,0,0,.779.659,1.74,1.74,0,0,0,.6,0s-.247-1.018.326-.838a2.652,2.652,0,0,1,1.052.779,1.024,1.024,0,0,0,.3.718c.3.239.519.645.739.473a12.431,12.431,0,0,1,2.579.067" transform="translate(1.184 5.501)" fill="none" stroke="#ffd300" stroke-miterlimit="10" stroke-width="2"/>
    <path id="Trazado_40" data-name="Trazado 40" d="M903.733,335.965a4.789,4.789,0,0,1-1.077-.138,3.149,3.149,0,0,0-.779-.389,3.9,3.9,0,0,0-1.109-.18,6.05,6.05,0,0,0-.838.27,3.032,3.032,0,0,1-.928.239c-.48.06-.6.095-1.2.2s-.929.761-1.228.971a8.817,8.817,0,0,0-1.138.688,8.694,8.694,0,0,1-1.527.809s-1.139.449-1.168.809-.18,1.138-.21,1.617-.18.569-.239,1.348a6.76,6.76,0,0,0,.688,3.354,2.064,2.064,0,0,1,.449,1.558c0,.419-.06.569.12.718s2.079,1.23,2.079,1.23" transform="translate(2.039 5.14)" fill="none" stroke="#ffd300" stroke-miterlimit="10" stroke-width="2"/>
    <path id="Trazado_41" data-name="Trazado 41" d="M874.819,265.683l-1.068,1.527a8.211,8.211,0,0,1-1.518-.279c-.12-.119-.239-.718-.439-.32a2.189,2.189,0,0,0-.24.959,1.142,1.142,0,0,0,.4.8c.32.32.639.48.8.838s.36.44.239.919a7.965,7.965,0,0,1-.439,1.158,6.387,6.387,0,0,0-1,.839c-.2.279-.958.239-1.317.718a1.26,1.26,0,0,0-.239,1.438,6.755,6.755,0,0,0,1.158,1.6,5.84,5.84,0,0,0,1.2.758,16.414,16.414,0,0,1,1.956,1.278s3,2.6,3.554,3.074,2.117,2.157,2.117,2.157.958,1.317,1.437,2.077.4.919.879,1.238a3.271,3.271,0,0,0,1.237.4,8.02,8.02,0,0,1,1.358.36c.8.279.639.08.919.519a10.7,10.7,0,0,1,.8,1.438,4.055,4.055,0,0,1,.439,1.478c.04.679.4,1.238.08,1.678a2.963,2.963,0,0,0-.838,1.4,6.568,6.568,0,0,0-.159,1.757,10.3,10.3,0,0,1,0,1.2.5.5,0,0,1-.639.119,2.8,2.8,0,0,1-.6-.479c-.08-.12-.16-.639-.719-.719a5.4,5.4,0,0,0-1.357-.079,6.307,6.307,0,0,1-1.638-.12c-.718-.12-1-.32-1.557-.2a3.21,3.21,0,0,0-1.055.479v.838s-.217,1.278,0,1.4.3-.079.336.52.287,1.357-.336,1.6a3.639,3.639,0,0,1-1.5.12s-1.517-.4-1.956-.08-.8.44-.879.879-.479-.559.04,1.637.4,2.2,1.2,2.476a5.327,5.327,0,0,0,1.158.239c.2.08.24.639.12,1.039s-.52.678-.2,1.078a5.212,5.212,0,0,0,1.437.879l1.2,1.118a2.7,2.7,0,0,1,.8,1.518,5.141,5.141,0,0,1-.281,1.877c-.119.319-.6-.44-.28,1.078s.759,1.876.759,1.876a8.231,8.231,0,0,1,.838,1.439c.279.678-.44,1.357.159,1.637s.759.439,1.278.32a4.837,4.837,0,0,0,1.2-.559,2.053,2.053,0,0,1,1.4,0c.719.28.719.479,1.039.159a10.576,10.576,0,0,0,.718-.838s-.159-.36,1.318-.2a9.923,9.923,0,0,0,2.276.04,9.017,9.017,0,0,1,1.877-.2,3,3,0,0,0,1.158-.04c.279-.079.718-.159.917.08a4.395,4.395,0,0,1,.6,1.318c.08.359-.32,1.118-.359,1.836a2.176,2.176,0,0,0,.37,1.6,7.572,7.572,0,0,0,.867.8s.719-.758,1.2-.159.639.718.719,1.118a3.487,3.487,0,0,1,.04,1.956c-.28.759-.719.559-.8,1.478a10.335,10.335,0,0,0-.079,1.717c.04.2,1.2.36,1.4.8s.639,1.2.479,1.677-.608.119-.164,1.2l.444,1.078a9.836,9.836,0,0,1,.639.8,3.735,3.735,0,0,1,.6,1.079c.08.32.239,1.547.239,1.547" transform="translate(1.422 3.227)" fill="none" stroke="#ffd300" stroke-miterlimit="10" stroke-width="2"/>
    <path id="Trazado_42" data-name="Trazado 42" d="M889.041,244.27l.859,1.606s.4,2.077.4,2.276.4,1.4.519,1.8a4.363,4.363,0,0,0,.6,1.558c.32.32.32.36,1.4.679s1.118.119,1.757.439,1.118.04,1.158.838a9.782,9.782,0,0,0,0,1.877,2.124,2.124,0,0,1,0,2.077c-.559.758-1.038,1.277-1.038,1.277a18.352,18.352,0,0,0-1.837,1.558,4.8,4.8,0,0,1-.679.8,15.982,15.982,0,0,0-1.078,1.8l-.28,1.638-.679,1.2a1.973,1.973,0,0,0-.479.879,28.049,28.049,0,0,0-.239,3.234,7.724,7.724,0,0,1-1.318,2.038,5.024,5.024,0,0,0-1.238,2.636,20.731,20.731,0,0,0-.079,2.156,14.032,14.032,0,0,0,0,2.6c.159.6.159,1.438.6,1.877a11.5,11.5,0,0,1,1.118,1.558s.479.8.8,1.237,1.877,2.4,1.877,2.4H905s3.553-5.351,3.633-5.511.28-1.8.28-1.8a11.635,11.635,0,0,1,.32-1.4,4.794,4.794,0,0,1,.559-1.158,1.912,1.912,0,0,1,.719-.639,9.443,9.443,0,0,1,.958-.36s.959.519,1.2.639a1.666,1.666,0,0,0,.919.36,3.853,3.853,0,0,0,.8,0,2.823,2.823,0,0,0,.08-.8,5.266,5.266,0,0,1,.2-1.238,1.442,1.442,0,0,1,.639-.719,3.1,3.1,0,0,1,1.079-.319c.519-.079.879-.159.879-.159s.6,0,1-.919-.32-.239.679-1.478a5.1,5.1,0,0,1,1.357-1.357,3.555,3.555,0,0,0,.919-1.2s-.36-.32.2-.8.52-.679,1-.56a3.279,3.279,0,0,0,1.278.24,6.463,6.463,0,0,1,1.4.159,5.84,5.84,0,0,0,2.077,0,3.024,3.024,0,0,0,.879-.639l.959-.04a2.012,2.012,0,0,0,1.118-.119c.359-.239.439-.648.839-1.2a6.323,6.323,0,0,0,.679-1.352,1.869,1.869,0,0,1,1.6-.24,10.394,10.394,0,0,1,1.478.559l1.118,1.4L937.1,266.8s1.238.838,1.677,1.118,0-1.158.959.639,1.2,2.037,1.238,2.475.4.759.2,1.4a8.137,8.137,0,0,0-.519,1.678c-.08.678,1.317,1.6,1.438,1.757s.519.4.6.8a2.6,2.6,0,0,1,0,.838s-.959.559-1.318.759a1.972,1.972,0,0,0-.6.559,4.546,4.546,0,0,0-.119,1.038,6.362,6.362,0,0,1,.04.679l-1.558,2.676.639,1.956a4.56,4.56,0,0,0,.758.719c.32.2,1.078,0,1.318.4a1.707,1.707,0,0,0,.678.6s-.209-1.2.2-1.2a9.552,9.552,0,0,0,1-.08s-.2-1.4-.04-1.517.8-.4,1.118-.2.52-.079.679.559.679.8.239,1.358-.8,1.078-.8,1.078a4.969,4.969,0,0,0-.2.519,3.5,3.5,0,0,0-.04.559.864.864,0,0,1,0,.759,4.843,4.843,0,0,0-.32,1,1.968,1.968,0,0,0-.2.879,3.451,3.451,0,0,0,.2,1.079,7.174,7.174,0,1,0,.279.879,22.772,22.772,0,0,0,1.251,2.676,5.4,5.4,0,0,0,0,.8,14.913,14.913,0,0,0,2.983,0l7.507-7.348h.479" transform="translate(1.886 2.638)" fill="none" stroke="#ffd300" stroke-miterlimit="10" stroke-width="2"/>
    <path id="Trazado_43" data-name="Trazado 43" d="M954.944,287.495a4.557,4.557,0,0,0,.479.919c.18.18,0,1.317,0,1.677a16.956,16.956,0,0,0,.3,1.857,2.978,2.978,0,0,0,.538,1.1c.18.159.719.459.719.879s.18.457,0,1.007,2.157.191-.3,1.269a17.6,17.6,0,0,1-3.175,1.2l-.959.779a7.226,7.226,0,0,0-.959,1.078,7.169,7.169,0,0,1-1.258,1.678c-.779.718-.6.9-1.557,1.5s-1.858,1.258-1.858,1.258l-2.036,1.078s-.18-.119-1.737,1.2-1.737,2.216-1.437,3,.6,1.5.6,1.5l.239,1.438-.96.778-1.436.9-.36.718-.579,1.478" transform="translate(3.33 3.827)" fill="none" stroke="#ffd300" stroke-miterlimit="10" stroke-width="2"/>
    <path id="Trazado_44" data-name="Trazado 44" d="M954.989,288.467l.319-2.237a20.372,20.372,0,0,1,0-2.236c.08-.439-.159-1.038,0-1.478s.08-1,.48-1.317.319-.44,1-1.079.959-1,1-1.357.119-1.039.119-1.039l.32-4.432s-.28-.719-.6-1.478a13.488,13.488,0,0,0-1.018-1.8V268.78l.459-1.757.559-1.4a6.419,6.419,0,0,1,1-.4,6.877,6.877,0,0,1,1,.36s.36.8.679,1.518a12.049,12.049,0,0,0,.759,1.277,9.254,9.254,0,0,1,.718,1.238c.12.4.4.6.08,1.118s-.719,1.4-.719,1.4a4.748,4.748,0,0,0-.678,1.158,3.049,3.049,0,0,0-.16,1.078,2.046,2.046,0,0,0,.48,1.078,1.586,1.586,0,0,0,.718.279c.479.08.239-.519,1.478.08a14.371,14.371,0,0,1,1.837,1.038,6.87,6.87,0,0,1,1.078.879s.4.52.679.879.2.639.958.879,1.638.44,1.638.44a4.632,4.632,0,0,1,1.4.159c.639.2.759.32,1.158.4a3.611,3.611,0,0,0,.639.08l.838-.679.479-1.038s-.039-.44.959-.48.28-.36,1.518-.079a11.146,11.146,0,0,1,2.036.519,6.638,6.638,0,0,0,1.518.36s-.08-1.039.4-.759.839.28.839.759.159.6.119,1a5.317,5.317,0,0,0,.006.879l1.056.6s.535-.279.895.878.6,1.917.6,1.917.56.678.679.879a5,5,0,0,1,.679,1.757,7.343,7.343,0,0,1-.08,2.037c-.159,1-.08,1.237-.239,1.916s.04.719-.16,1-.638.4-.4.958.159.719.639,1,.678.04,1.4.479.679.232,1.078.575.32.663,1.158.7.6-.381,1.477-.191,1.837.35,1.837.35h.679s.159-.359.32.919l.159,1.278,1.6.279" transform="translate(3.764 3.214)" fill="none" stroke="#ffd300" stroke-miterlimit="10" stroke-width="2"/>
    <path id="Trazado_45" data-name="Trazado 45" d="M962.84,276.38,964,275.7a8.059,8.059,0,0,1,2.156.679c.6.4,1.119.919,1.6.879a2.839,2.839,0,0,0,1.478-.879,6.744,6.744,0,0,0,.8-1.358c.04-.119-.04-.239.08-1.118s-.2-1.357.2-1.916.2-.879.8-.959.918.159,1.277-.08a1.035,1.035,0,0,0,.32-1.277c-.239-.44,1.478-.08-.639-1s-2.435-1.518-2.435-1.518l-.56-1.4-.079-2.117.159-1.158s1.757-2,1.757-2.117-.04-1.317-.08-1.956a8.756,8.756,0,0,0-.359-1.637l-1.358-.32a.877.877,0,0,0-.32.758,2.055,2.055,0,0,1,.04,1.2,5.967,5.967,0,0,0-.28.878s-.8.639-1,.519-.639-.079-.838-.678-.52-1.119-.36-1.638.4-1,.519-1.357a2.547,2.547,0,0,0,.2-.639c0-.159-.32-.36-.6-.479s-.838-.4-.838-.4l-.6-1.038a7.257,7.257,0,0,1,.16-1.917,13.973,13.973,0,0,1,.758-1.2,5.941,5.941,0,0,0,1.2-1.277l.679-.919.155-.759.883-.639-.159-4.991s-.4,0-.559-1.039-.487-1.6-.164-2.077a3.569,3.569,0,0,0,.444-1.2l2.077-.36" transform="translate(3.98 2.443)" fill="none" stroke="#ffd300" stroke-miterlimit="10" stroke-width="2"/>
    <path id="Trazado_46" data-name="Trazado 46" d="M908.626,230.219v1.947l.8.559a3.456,3.456,0,0,0,1.079.36,4.172,4.172,0,0,1,1.357.16,3.083,3.083,0,0,1,.959.439c.359.239.519.239.758.639s.36.878.479,1.078a3.738,3.738,0,0,1,.4.6,1.09,1.09,0,0,0,.919.759,5.206,5.206,0,0,1,1.038.32s.2.079,1.2.638a8.619,8.619,0,0,1,1.358.879s.04.759.079,1.039a2.663,2.663,0,0,0,.36.758,5.707,5.707,0,0,1,1.438.12c.6.159.8,0,.959.439s.319.52.319,1.039a10.673,10.673,0,0,1-.239,1.6l-.2,1.07-.878.289-1.557.439s-1.278.08-1.837.12-.719.04-.8.32a7.734,7.734,0,0,0-.12,1.078l.559.6.8.758a13.13,13.13,0,0,0,.279,1.877,13.038,13.038,0,0,1,.318,1.478,2.179,2.179,0,0,1,.16.8,6.773,6.773,0,0,1,0,1.278,2.58,2.58,0,0,0-.08,1.2,2.985,2.985,0,0,0,.6.838l1.158.04,1.079-.32.758,1.4a8.91,8.91,0,0,0,0,1.039c.04.119.08.519.919.239s.8-.48,1.518-.759a1.741,1.741,0,0,0,.958-.919.914.914,0,0,1,.879-.678c.679.04,1.437,0,1.437,0s1.079.2,1.238.479a12.946,12.946,0,0,0,2.516,1.638,4.382,4.382,0,0,1,1.2.838c.2.159.159-.48.8-.12s1.038.479,1.038.879a1.448,1.448,0,0,1-.4,1.039c-.24.2-.44.279-.44.559s.4.638.36.958a6.788,6.788,0,0,1-.16.759l-.914,1.422" transform="translate(2.488 2.251)" fill="none" stroke="#ffd300" stroke-miterlimit="10" stroke-width="2"/>
    <path id="Trazado_47" data-name="Trazado 47" d="M934.061,262.558l1.478-1.158s1.118-.119,1.238-.159.279-.519.32-.879a2.039,2.039,0,0,1,.479-.838,3.069,3.069,0,0,0,1.158-.52c.519-.4.839.04.839-.758s.239-.559,0-1.238-.879-1.916-.879-1.916a1.875,1.875,0,0,1-.479-1.238v-2.4s-.04-1.518-.04-1.956a5.6,5.6,0,0,1,.08-.879s.918-.246,1-.882.4-.316,0-1.195a3.7,3.7,0,0,0-1.038-1.6c-.639-.638-1.345-1.277-1.345-1.277l-1.251-1.518-1.079-.919a7.929,7.929,0,0,0-1.078-.239,2.923,2.923,0,0,1-1.278-.6c-.04-.12-2.156-3.834-2.316-4.233a15.876,15.876,0,0,0-.838-1.477l.04-2a17.5,17.5,0,0,0,.159-1.947,2.159,2.159,0,0,0-.878-1.447l-1.357-1.238-.639-1.357s-1.277-.48-1.956-.679a3.986,3.986,0,0,1-1.278-.718,10.2,10.2,0,0,0-1.317-1.278,9.691,9.691,0,0,0-1.318-.479l-2.2.159a2.131,2.131,0,0,0-.759.559c-.479.48-.8.48-.8.48s-.838-.48-.519-1.159a6.137,6.137,0,0,1,1.038-1.557c.679-.879,1.118-1,1.358-1.677s2.037-1.238.079-1.718a13.8,13.8,0,0,0-2.875-.479h-1.277l-.759-1.238a15.986,15.986,0,0,1,.559-1.8,3.6,3.6,0,0,0,.28-.918l-.839-2.277-2.2-.679" transform="translate(2.57 1.729)" fill="none" stroke="#ffd300" stroke-miterlimit="10" stroke-width="2"/>
    <path id="Trazado_48" data-name="Trazado 48" d="M920.428,193.173l-.579,1.518a5.581,5.581,0,0,1-.269.838c-.15.33-.18.389,0,.9s.424,1.109.424,1.109a1.281,1.281,0,0,1,.424.659,1.8,1.8,0,0,1-.19.929l-.783.809a1.43,1.43,0,0,0,.124.838,9.538,9.538,0,0,0,.539.959l1.377,1.078,1.259.629s.089.36.868.719.629.089,1.228.509.838.6,1.2.9a4.691,4.691,0,0,0,1.288.749c.569.239-.03-.779.779.48s1.048,1.5.988,1.736a13.089,13.089,0,0,1-1.168,1.558l.3,1.168s.03.6.21.748.359.239.809.539a14.866,14.866,0,0,0,1.527.779s.9.538.959.809a2.662,2.662,0,0,1,.21.838,3.534,3.534,0,0,1-.959,1.527,2.632,2.632,0,0,0-.659,1.018s.33,1.2.479,1.588.449.4.719.858.546.1.422.85-.153,1.317-.153,1.317.067.51.183,1.138.236,1.378.236,1.378l.389,1.617-.21,1.347s.06.21.269.959a3.533,3.533,0,0,0,.419,1.108,21.152,21.152,0,0,0,3.145,2.1c.659.419,2.306,1.587,2.306,1.587a17.482,17.482,0,0,0,.779,1.587c.27.419.3.749.749,1.138a2.868,2.868,0,0,0,1.018.539s.18-.839.6-.839a5.059,5.059,0,0,1,1.228.3,5.5,5.5,0,0,0,.838.779,3.21,3.21,0,0,0,.929.239c.329,0,.269-.51,1.078.3l1.827,1.827a2.386,2.386,0,0,1,.868.689c.51.569,1.2.688,1.5,1.348s-.27,1.377,1.018,1.228a8.265,8.265,0,0,1,2.156-.24c.809.09,1.168-.119,1.678.36a2.95,2.95,0,0,0,1.167.809c.239.03.6-.119.988.12s.449.21.539.659.18-.779.36.779.239,1.588.568,1.977a11.3,11.3,0,0,1,.929,1.408,12.108,12.108,0,0,1,.569,1.467l-.389,1.287a5.19,5.19,0,0,0,.089,1.168c.12.539.33.449.45,1.228s.479.9.718,1.647.449,1.438.449,1.438a11.121,11.121,0,0,0-.569,2.815c.18.36.539.479.569,1.228s.3,1.048.15,1.8a9.155,9.155,0,0,0-.15,1.558s-.21.868-.3,1.228-.777,2.167-.777,2.167" transform="translate(2.786 1.232)" fill="none" stroke="#ffd300" stroke-miterlimit="10" stroke-width="2"/>
    <path id="Trazado_49" data-name="Trazado 49" d="M931.286,185.534l.825,1.9s.878,1.039,1.038,1.238.48.1.6.75-.079.768,0,1.167a2.424,2.424,0,0,1,0,1.2,2.849,2.849,0,0,0-.159,1.317,8.911,8.911,0,0,0,.235,1.558,11.811,11.811,0,0,1,0,1.277c-.036.8,0,1.358,0,1.358v1.677a2.517,2.517,0,0,1-.2.838,8.365,8.365,0,0,1-.639.838s-.36.32-.719.679a5.556,5.556,0,0,0-.758,1.357l-.04,1.318-2.713,4.383" transform="translate(3.042 1.022)" fill="none" stroke="#ffd300" stroke-miterlimit="10" stroke-width="2"/>
    <path id="Trazado_50" data-name="Trazado 50" d="M964.6,181.164l-.749,1.847a13.173,13.173,0,0,0-1.228,1.437,7.805,7.805,0,0,0-.03,1.287c0,.569.374,1.467-.007,1.827a3.8,3.8,0,0,0-.681,1.168s.494,1.258.681,1.647.067-.3.846.959.839,1.408.809,1.5-.748-.03-.989.21-.779.6-.6.929a2.065,2.065,0,0,0,.6.6,1.42,1.42,0,0,1,1.708.419l-.569,1.048-.659,1.467a1.7,1.7,0,0,0,.03.659c.089.24.15,2.246.15,2.246a3.176,3.176,0,0,0-.719.48c-.18.21-.868,1.287-.868,1.287a2.286,2.286,0,0,1-.959.988c-.659.33-1.317.33-1.947.688s-.629.66-1.2.809a4.331,4.331,0,0,1-1.348.12,4.752,4.752,0,0,0-1.558.719s-1.168.388-1.228,1.137.12.988-.329,1.617-1.138,1.318-1.468,1.8a14.629,14.629,0,0,0-.809,1.5l-.209,2.067a8.763,8.763,0,0,0,.51,1.766c.21.27.928.779,1.168,1.318s1.766,1.228,1.916,1.378a13.136,13.136,0,0,1,1.018,1.347c.15.27.569,1.2.569,1.2l.779.959a5.312,5.312,0,0,0,.239,1.707,7.652,7.652,0,0,0,.779,1.378c.239.449.688.838.688,1.168s.36.659.089.928a5.774,5.774,0,0,1-.6.51s-.51-.629-1.018-.51a10.626,10.626,0,0,0-1.259.45,5.879,5.879,0,0,1-1.557.149l-1.378-.6H952.2s-1.887,1.8-2.007,1.947a6.066,6.066,0,0,0-.389.809l.958.868,1.5.9a3.216,3.216,0,0,1,.9.988c.359.629.539.629.809,1.2s.509.688.568,1.048a3.388,3.388,0,0,1,.03,1.258c-.089.539-.449.629-.089,1.048s.51.778,1.018.9.779-.119,1.018.33.479.959.479.959.21.659.389,1.108a3.322,3.322,0,0,0,.569.869,1.651,1.651,0,0,1,.389.748,3.471,3.471,0,0,1-.36.988l-1.167,1.587" transform="translate(3.621 0.901)" fill="none" stroke="#ffd300" stroke-miterlimit="10" stroke-width="2"/>
    <path id="Trazado_51" data-name="Trazado 51" d="M963.818,192.382l2.069-.4a9.285,9.285,0,0,1,1.837-.519c.6-.04.439,0,1.637,0a14.1,14.1,0,0,1,1.917,0c.479.08.6-.36,1.038,0a1.444,1.444,0,0,1,.559.916c.08.283.36.4.08.842a6.665,6.665,0,0,0-.639,1.118c-.159.4-.239.559-.159.8s.519.559.519.559l.4-.4s.319-.479.558-.519.2-.44.639.119.838.879.918,1.278-.239.838.279.959.759-.08,1.278.079.679-.119.838.4a1.572,1.572,0,0,1,0,1.518c-.359.6-.479,1-.838,1.238s-1.238.878-1.238.878l-.479.718.36,1.158s.119,1,1.277.679.44-1.039,1.8-.759a3.194,3.194,0,0,1,1.8.822s.519.7.878.816.679.32.919.08a7.92,7.92,0,0,1,2.173-.325" transform="translate(4.007 1.181)" fill="none" stroke="#ffd300" stroke-miterlimit="10" stroke-width="2"/>
  </g>
</svg>
